<svg width="129px" height="63px" viewBox="101 39 129 63" version="1.1" xmlns="http://www.w3.org/2000/svg" xmlns:xlink="http://www.w3.org/1999/xlink">
    <defs>
        <polygon id="path-1" points="4.49929907 6.01059956 4.49929907 0.318012422 0.174824446 0.318012422 0.174824446 6.01059956 4.49929907 6.01059956"></polygon>
        <polygon id="path-3" points="0 62.0638316 100.526871 62.0638316 127.090616 62.0638316 127.090616 0 0 0"></polygon>
    </defs>
    <g id="Page-1" stroke="none" stroke-width="1" fill="none" fill-rule="evenodd" transform="translate(101.948632, 39.000000)">
        <path d="M70.6946558,43.0700207 L70.3364387,44.2758315 L72.7263103,44.2758315 L72.3677637,43.0700207 C72.009217,41.8750849 71.5313745,41.1036164 71.5313745,41.1036164 C71.4334992,41.2341168 71.053532,41.8750849 70.6946558,43.0700207 L70.6946558,43.0700207 Z M73.4974492,42.7879288 C73.7910752,43.7327388 74.0949171,44.6782078 74.3994181,45.6230178 C74.671294,46.4920321 74.8881357,47.1982503 75.0838863,47.5027513 C75.0838863,47.5027513 74.8555106,47.5788766 74.6386689,47.5788766 C73.7040749,47.5788766 73.4430741,46.6551576 73.1936073,45.840189 L72.9978567,45.1995505 L70.0645628,45.1995505 L69.8688122,45.840189 C69.6190159,46.6551576 69.3583445,47.5788766 68.4240801,47.5788766 C68.2069089,47.5788766 67.9788627,47.5027513 67.9788627,47.5027513 C68.1742838,47.1982503 68.391455,46.4920321 68.6630013,45.6230178 C68.9675023,44.6782078 69.2604692,43.7327388 69.5649702,42.7879288 C70.2820635,40.4952735 71.4552493,39.6697593 71.5313745,39.6045091 C71.5966247,39.6697593 72.7698104,40.4952735 73.4974492,42.7879288 L73.4974492,42.7879288 Z" id="Fill-1" fill="#263137"></path>
        <path d="M75.6330427,39.289166 C75.6982929,39.289166 76.7736033,39.3000411 76.7736033,39.908384 L76.7736033,45.6121757 C76.7736033,46.2317232 76.8714786,47.2309084 77.5450718,47.2309084 C77.2844005,47.5245344 77.0128541,47.5789095 76.7736033,47.5789095 C75.9912598,47.5789095 75.6330427,46.8291911 75.6330427,45.9598473 L75.6330427,39.289166 Z" id="Fill-3" fill="#263137"></path>
        <path d="M78.2346809,41.9182884 C78.2781811,41.9182884 79.3755711,41.9182884 79.3755711,42.5375064 L79.3755711,47.57858 C79.3755711,47.57858 78.2346809,47.57858 78.2346809,46.959362 L78.2346809,41.9182884 Z M78.2346809,39.908384 L79.0496495,39.908384 C79.18015,39.908384 79.364696,40.0497595 79.364696,40.1799304 L79.364696,41.0061036 L78.560932,41.0061036 C78.3978065,41.0061036 78.2346809,40.8864782 78.2346809,40.7451027 L78.2346809,39.908384 Z" id="Fill-5" fill="#263137"></path>
        <path d="M81.6294718,46.546572 C81.694722,46.5791971 82.020314,46.7640727 82.6724866,46.7640727 C83.6828763,46.7640727 83.9761728,46.4051965 83.9761728,45.6663532 L83.9761728,43.8199038 C83.9761728,43.0593104 83.5306258,42.7337184 82.9331579,42.7337184 C82.2813148,42.7337184 81.6294718,43.1354357 81.6294718,43.7111535 L81.6294718,46.546572 Z M85.1167334,45.8294787 C85.1167334,46.9815735 84.2691396,47.6327574 82.6939071,47.6327574 C81.7817223,47.6327574 81.3140957,47.3071654 80.4885816,47.2419152 L80.4885816,39.3110479 C80.5538318,39.3110479 81.6294718,39.3001729 81.6294718,40.0390163 L81.6294718,41.5598736 C81.6294718,42.0703412 81.5315964,42.3748422 81.5315964,42.3748422 C81.5315964,42.3748422 81.9665979,41.8643746 83.0745334,41.8643746 C84.1719234,41.8643746 85.1167334,42.5373087 85.1167334,43.6567783 L85.1167334,45.8294787 Z" id="Fill-7" fill="#263137"></path>
        <path d="M89.4228852,44.5910757 C89.1945094,45.2429188 87.1414344,44.8514175 87.1414344,45.9817622 C87.1414344,46.4596047 87.4999811,46.7964012 88.2823246,46.7964012 C88.9667928,46.7964012 89.4228852,46.546605 89.4228852,46.546605 L89.4228852,44.5910757 Z M89.3902601,43.6133111 C89.3902601,43.1351391 89.1625434,42.7657174 88.2388244,42.7657174 C87.2716053,42.7657174 86.5222165,43.124264 86.5222165,43.9609827 C86.2612156,43.6021065 86.1639994,43.2982646 86.1639994,43.0372637 C86.1639994,42.1899995 87.2716053,41.8644076 88.2388244,41.8644076 C89.7273862,41.8644076 90.5311503,42.5271257 90.5311503,43.6673567 L90.5311503,47.5896198 C90.2596039,47.4699944 89.998603,47.4373693 89.7491363,47.4373693 C89.2271346,47.4373693 88.727542,47.6327904 88.119199,47.6327904 C87.0653092,47.6327904 86.0117488,47.2201981 86.0117488,45.9817622 C86.0117488,43.9174826 88.9776678,44.5584506 89.3902601,43.6133111 L89.3902601,43.6133111 Z" id="Fill-9" fill="#263137"></path>
        <path d="M92.7523929,46.546572 C92.8176431,46.5791971 93.1432351,46.7640727 93.7954077,46.7640727 C94.8057974,46.7640727 95.0990939,46.4051965 95.0990939,45.6663532 L95.0990939,43.8199038 C95.0990939,43.0593104 94.6535469,42.7337184 94.056079,42.7337184 C93.404236,42.7337184 92.7523929,43.1354357 92.7523929,43.7111535 L92.7523929,46.546572 Z M96.2396545,45.8294787 C96.2396545,46.9815735 95.3920608,47.6327574 93.8168282,47.6327574 C92.9046434,47.6327574 92.4370168,47.3071654 91.6115027,47.2419152 L91.6115027,39.3110479 C91.6767529,39.3110479 92.7523929,39.3001729 92.7523929,40.0390163 L92.7523929,41.5598736 C92.7523929,42.0703412 92.6545176,42.3748422 92.6545176,42.3748422 C92.6545176,42.3748422 93.089519,41.8643746 94.1974545,41.8643746 C95.2948445,41.8643746 96.2396545,42.5373087 96.2396545,43.6567783 L96.2396545,45.8294787 Z" id="Fill-11" fill="#263137"></path>
        <path d="M100.545971,44.5910757 C100.317595,45.2429188 98.2645203,44.8514175 98.2645203,45.9817622 C98.2645203,46.4596047 98.623067,46.7964012 99.4054105,46.7964012 C100.089879,46.7964012 100.545971,46.546605 100.545971,46.546605 L100.545971,44.5910757 Z M100.513346,43.6133111 C100.513346,43.1351391 100.28497,42.7657174 99.3619103,42.7657174 C98.3950208,42.7657174 97.6453024,43.124264 97.6453024,43.9609827 C97.3843015,43.6021065 97.2870853,43.2982646 97.2870853,43.0372637 C97.2870853,42.1899995 98.3950208,41.8644076 99.3619103,41.8644076 C100.850472,41.8644076 101.654236,42.5271257 101.654236,43.6673567 L101.654236,47.5896198 C101.38269,47.4699944 101.121689,47.4373693 100.872222,47.4373693 C100.35022,47.4373693 99.8506279,47.6327904 99.2422849,47.6327904 C98.1883951,47.6327904 97.1348347,47.2201981 97.1348347,45.9817622 C97.1348347,43.9174826 100.100754,44.5584506 100.513346,43.6133111 L100.513346,43.6133111 Z" id="Fill-13" fill="#263137"></path>
        <path d="M73.8235355,54.1939963 C73.8235355,53.0643108 73.4870685,52.3903881 71.7266308,52.3903881 C69.9882728,52.3903881 69.6518057,53.0643108 69.6518057,54.1939963 L69.6518057,56.9532896 C69.6518057,58.0836343 69.9882728,58.7572274 71.7266308,58.7572274 C73.4870685,58.7572274 73.8235355,58.0836343 73.8235355,56.9532896 L73.8235355,54.1939963 Z M74.7363795,57.0946651 C74.7363795,58.6049769 73.7800354,59.5062867 71.7375059,59.5062867 C69.6844309,59.5062867 68.7389618,58.6049769 68.7389618,57.0946651 L68.7389618,54.0526209 C68.7389618,52.5426386 69.6844309,51.6409992 71.7375059,51.6409992 C73.7800354,51.6409992 74.7363795,52.5426386 74.7363795,54.0526209 L74.7363795,57.0946651 Z" id="Fill-15" fill="#263137"></path>
        <path d="M76.8594832,57.7358308 C76.8594832,58.3659239 77.5874515,58.8002662 78.3045448,58.8002662 C78.9778084,58.8002662 79.4780601,58.4420491 79.4780601,57.6270805 L79.4780601,55.7041764 C79.4780601,54.9106283 79.162684,54.5197861 78.0438735,54.5197861 C77.2292344,54.5197861 76.8594832,54.7699119 76.8594832,54.7699119 L76.8594832,57.7358308 Z M75.9901393,53.867943 C76.7942329,54.215285 77.141575,53.8135678 78.065294,53.8135678 C79.5535262,53.8135678 80.3467448,54.4436608 80.3467448,55.5413804 L80.3467448,57.790206 C80.3467448,58.8655164 79.467185,59.5064845 78.4455907,59.5064845 C77.1313591,59.5064845 76.7507328,58.9090166 76.7507328,58.9090166 C76.7507328,58.9090166 76.8594832,59.1591424 76.8594832,59.8976562 L76.8594832,61.4079681 L76.8594832,62.0598112 C76.7833579,62.0598112 75.9901393,62.0706862 75.9901393,61.4079681 L75.9901393,53.867943 Z" id="Fill-17" fill="#263137"></path>
        <path d="M82.2594989,56.1059595 C82.2703739,56.1277096 82.922217,56.3017102 83.389514,56.3017102 C84.4213242,56.3017102 84.7802004,55.9863341 84.7802004,55.4541164 C84.7802004,54.9001487 84.4756994,54.519852 83.5849351,54.519852 C82.6183751,54.519852 82.2594989,54.9653989 82.2594989,55.7259923 L82.2594989,56.1059595 Z M85.7147945,58.3547852 C85.7147945,59.1153786 84.6932001,59.5062208 83.6284352,59.5062208 C82.2486238,59.5062208 81.3901551,58.8543778 81.3901551,57.7573173 L81.3901551,55.5628668 C81.3901551,54.4654768 82.2051237,53.8136337 83.5849351,53.8136337 C84.964417,53.8136337 85.6488851,54.4654768 85.6488851,55.4541164 C85.6488851,56.3343353 85.0520763,57.0623036 83.4544347,57.0623036 C83.0853425,57.0623036 82.5204997,56.9861784 82.2594989,56.8013027 L82.2594989,57.5945213 C82.2594989,58.3547852 82.6829662,58.7462865 83.6936855,58.7462865 C84.638825,58.7462865 85.4320435,58.3547852 85.4320435,57.5945213 C85.6277942,57.8769427 85.7147945,58.1270685 85.7147945,58.3547852 L85.7147945,58.3547852 Z" id="Fill-19" fill="#263137"></path>
        <path d="M90.2454993,55.6062022 C90.2454993,54.932609 89.8974981,54.5417668 88.9309381,54.5417668 C88.1377196,54.5417668 87.6269224,54.7694835 87.6269224,54.7694835 L87.6269224,59.45234 C87.6269224,59.45234 86.7582377,59.45234 86.7582377,58.9092473 L86.7582377,53.8678441 C87.0077044,53.9983445 87.2469552,54.0418447 87.464456,54.0418447 C87.9857986,54.0418447 88.4636411,53.8137985 89.0831886,53.8137985 C90.0714987,53.8137985 91.1148431,54.1611405 91.1148431,55.4430766 L91.1148431,59.45234 C91.1148431,59.45234 90.2454993,59.4414649 90.2454993,58.9092473 L90.2454993,55.6062022 Z" id="Fill-21" fill="#263137"></path>
        <path d="M98.1865496,58.7027204 C99.4141105,58.7027204 100.066283,58.1270026 100.066283,57.2576588 C100.066283,54.976208 95.2423807,56.7471912 95.2423807,53.8244428 C95.2423807,52.1516645 96.5355214,51.6411969 98.1321744,51.6411969 C99.4249856,51.6411969 100.761626,51.8580386 100.761626,52.8901784 C100.761626,53.1290996 100.685501,53.422396 100.511501,53.7703972 C100.511501,52.629507 99.3600649,52.444961 98.1321744,52.444961 C96.9589887,52.444961 96.1983953,52.7708825 96.1983953,53.726897 C96.1983953,55.7803016 101.021968,53.9549433 101.021968,57.2032836 C101.021968,58.7353455 99.7835322,59.506814 98.1865496,59.506814 C96.8937385,59.506814 95.4055063,59.2893133 95.4055063,58.246628 C95.4055063,58.0073772 95.481302,57.7137512 95.6553025,57.3772842 C95.6553025,58.5178448 96.9589887,58.7027204 98.1865496,58.7027204" id="Fill-23" fill="#263137"></path>
        <path d="M105.893029,55.7258935 C105.893029,54.9653 105.642903,54.5197531 104.415342,54.5197531 C103.187781,54.5197531 102.937985,54.9653 102.937985,55.7258935 L102.937985,57.5944224 C102.937985,58.3550159 103.187781,58.8005628 104.415342,58.8005628 C105.642903,58.8005628 105.893029,58.3550159 105.893029,57.5944224 L105.893029,55.7258935 Z M106.762372,57.757548 C106.762372,58.8546084 106.012654,59.506122 104.415342,59.506122 C102.818359,59.506122 102.068641,58.8546084 102.068641,57.757548 L102.068641,55.5627679 C102.068641,54.4657075 102.818359,53.8135348 104.415342,53.8135348 C106.012654,53.8135348 106.762372,54.4657075 106.762372,55.5627679 L106.762372,57.757548 Z" id="Fill-25" fill="#263137"></path>
        <path d="M108.748648,57.7139819 C108.748648,58.3875751 109.09665,58.7790764 110.06321,58.7790764 C110.856099,58.7790764 111.367225,58.5507006 111.367225,58.5507006 L111.367225,53.8678441 C111.367225,53.8678441 112.23591,53.8678441 112.23591,54.4109368 L112.23591,59.45234 C111.986443,59.3221691 111.747192,59.2786689 111.529692,59.2786689 C111.008349,59.2786689 110.530507,59.5063856 109.910959,59.5063856 C108.922649,59.5063856 107.879305,59.1590435 107.879305,57.8771075 L107.879305,53.8678441 C107.879305,53.8678441 108.748648,53.8787191 108.748648,54.4109368 L108.748648,57.7139819 Z" id="Fill-27" fill="#263137"></path>
        <path d="M114.320325,54.7697801 L114.320325,59.4519775 C114.320325,59.4519775 113.450981,59.4519775 113.450981,58.9088848 L113.450981,53.8678112 C113.701107,53.9983116 113.918608,54.0418117 114.113699,54.0418117 C114.570451,54.0418117 114.939543,53.813436 115.53734,53.813436 C116.297604,53.813436 116.819276,54.107062 116.819276,54.6936548 C116.819276,54.9546557 116.721401,55.1823723 116.514775,55.4651233 C116.514775,54.8676554 115.993433,54.5849045 115.36334,54.5849045 C114.787292,54.5849045 114.320325,54.7697801 114.320325,54.7697801" id="Fill-29" fill="#263137"></path>
        <path d="M119.750033,59.5065174 C118.370221,59.5065174 117.512082,58.8546743 117.512082,57.7576139 L117.512082,55.5625043 C117.512082,54.4654438 118.370221,53.8136007 119.750033,53.8136007 C121.021094,53.8136007 122.205155,54.4654438 121.33614,55.7262889 C121.33614,54.9650364 120.597626,54.5741942 119.815283,54.5741942 C118.804564,54.5741942 118.381096,54.9650364 118.381096,55.7262889 L118.381096,57.5944883 C118.381096,58.3550818 118.804564,58.745924 119.815283,58.745924 C120.760093,58.745924 121.553641,58.3550818 121.553641,57.5944883 C122.422326,58.8546743 121.129844,59.5065174 119.750033,59.5065174" id="Fill-31" fill="#263137"></path>
        <g id="Group-35" transform="translate(122.591317, 53.495621)">
            <mask id="mask-2" fill="white">
                <use xlink:href="#path-1"></use>
            </mask>
            <g id="Clip-34"></g>
            <path d="M1.04416825,2.61033824 C1.05504329,2.63208831 1.70688636,2.80608889 2.17418337,2.80608889 C3.20599363,2.80608889 3.56486982,2.49071284 3.56486982,1.95849516 C3.56486982,1.4045274 3.26036881,1.02423068 2.36960448,1.02423068 C1.40304444,1.02423068 1.04416825,1.46977762 1.04416825,2.23037106 L1.04416825,2.61033824 Z M4.49946384,4.8591639 C4.49946384,5.61975735 3.47786953,6.01059956 2.41310462,6.01059956 C1.03329321,6.01059956 0.174824446,5.35875648 0.174824446,4.26169601 L0.174824446,2.06724552 C0.174824446,0.969855502 0.989793068,0.318012422 2.36960448,0.318012422 C3.74908635,0.318012422 4.43355453,0.969855502 4.43355453,1.95849516 C4.43355453,2.838714 3.83674573,3.56668233 2.23910405,3.56668233 C1.87001191,3.56668233 1.30516912,3.49055708 1.04416825,3.30568146 L1.04416825,4.09890001 C1.04416825,4.8591639 1.46763557,5.25066521 2.47835484,5.25066521 C3.42349435,5.25066521 4.2167129,4.8591639 4.2167129,4.09890001 C4.41246355,4.3813214 4.49946384,4.63144724 4.49946384,4.8591639 L4.49946384,4.8591639 Z" id="Fill-33" fill="#263137" mask="url(#mask-2)"></path>
        </g>
        <mask id="mask-4" fill="white">
            <use xlink:href="#path-3"></use>
        </mask>
        <g id="Clip-37"></g>
        <polygon id="Fill-36" fill="#263137" mask="url(#mask-4)" points="0 62.0638316 23.2827934 62.0638316 23.2827934 53.1970521 0 53.1970521"></polygon>
        <polygon id="Fill-38" fill="#263137" mask="url(#mask-4)" points="0 62.0611952 8.86677952 62.0611952 8.86677952 31.0333988 0 31.0333988"></polygon>
        <polygon id="Fill-39" fill="#263137" mask="url(#mask-4)" points="50.2449741 62.0638316 59.1117536 62.0638316 59.1117536 31.0360351 50.2449741 31.0360351"></polygon>
        <polygon id="Fill-40" fill="#263137" mask="url(#mask-4)" points="35.8289602 62.0638316 59.1117536 62.0638316 59.1117536 53.1970521 35.8289602 53.1970521"></polygon>
        <polygon id="Fill-41" fill="#793887" mask="url(#mask-4)" points="0 31.0330692 4.43306021 31.0330692 4.43306021 26.600009 0 26.600009"></polygon>
        <polygon id="Fill-42" fill="#D84730" mask="url(#mask-4)" points="4.43371931 26.600009 8.86677952 26.600009 8.86677952 22.1669488 4.43371931 22.1669488"></polygon>
        <polygon id="Fill-43" fill="#397FBA" mask="url(#mask-4)" points="0 22.1662897 4.43306021 22.1662897 4.43306021 17.7332295 0 17.7332295"></polygon>
        <polygon id="Fill-44" fill="#E8B519" mask="url(#mask-4)" points="4.43371931 17.7332295 8.86677952 17.7332295 8.86677952 13.3001693 4.43371931 13.3001693"></polygon>
        <polygon id="Fill-45" fill="#4E9E3F" mask="url(#mask-4)" points="0 13.2998397 4.43306021 13.2998397 4.43306021 8.86677952 0 8.86677952"></polygon>
        <polygon id="Fill-46" fill="#DE591A" mask="url(#mask-4)" points="4.43371931 8.86644997 8.86677952 8.86644997 8.86677952 4.43338976 4.43371931 4.43338976"></polygon>
        <polygon id="Fill-47" fill="#3491C7" mask="url(#mask-4)" points="0 4.43306021 4.43306021 4.43306021 4.43306021 0 0 0"></polygon>
        <polygon id="Fill-48" fill="#82B134" mask="url(#mask-4)" points="8.86677952 4.43306021 13.2998397 4.43306021 13.2998397 0 8.86677952 0"></polygon>
        <polygon id="Fill-49" fill="#E89114" mask="url(#mask-4)" points="13.3004988 8.86644997 17.733559 8.86644997 17.733559 4.43338976 13.3004988 4.43338976"></polygon>
        <polygon id="Fill-50" fill="#27A5BC" mask="url(#mask-4)" points="17.7338886 4.43306021 22.1669488 4.43306021 22.1669488 0 17.7338886 0"></polygon>
        <polygon id="Fill-51" fill="#793887" mask="url(#mask-4)" points="54.6783639 31.0360351 59.1114241 31.0360351 59.1114241 26.6029749 54.6783639 26.6029749"></polygon>
        <polygon id="Fill-52" fill="#D84730" mask="url(#mask-4)" points="50.2449741 26.6023158 54.6780343 26.6023158 54.6780343 22.1692556 50.2449741 22.1692556"></polygon>
        <polygon id="Fill-53" fill="#397FBA" mask="url(#mask-4)" points="54.6783639 22.1692556 59.1114241 22.1692556 59.1114241 17.7361954 54.6783639 17.7361954"></polygon>
        <polygon id="Fill-54" fill="#E8B519" mask="url(#mask-4)" points="50.2449741 17.7355363 54.6780343 17.7355363 54.6780343 13.3024761 50.2449741 13.3024761"></polygon>
        <polygon id="Fill-55" fill="#4E9E3F" mask="url(#mask-4)" points="54.6783639 13.3024761 59.1114241 13.3024761 59.1114241 8.86941589 54.6783639 8.86941589"></polygon>
        <polygon id="Fill-56" fill="#DE591A" mask="url(#mask-4)" points="50.2449741 8.86941589 54.6780343 8.86941589 54.6780343 4.43635568 50.2449741 4.43635568"></polygon>
        <polygon id="Fill-57" fill="#3491C7" mask="url(#mask-4)" points="54.6783639 4.43569659 59.1114241 4.43569659 59.1114241 0.00263637241 54.6783639 0.00263637241"></polygon>
        <polygon id="Fill-58" fill="#82B134" mask="url(#mask-4)" points="45.8115843 4.43569659 50.2446445 4.43569659 50.2446445 0.00263637241 45.8115843 0.00263637241"></polygon>
        <polygon id="Fill-59" fill="#E89114" mask="url(#mask-4)" points="41.3785241 8.86941589 45.8115843 8.86941589 45.8115843 4.43635568 41.3785241 4.43635568"></polygon>
        <polygon id="Fill-60" fill="#27A5BC" mask="url(#mask-4)" points="36.9448048 4.43569659 41.377865 4.43569659 41.377865 0.00263637241 36.9448048 0.00263637241"></polygon>
    </g>
</svg>