<svg width="40px" height="39px" viewBox="25 365 40 39" version="1.1" xmlns="http://www.w3.org/2000/svg" xmlns:xlink="http://www.w3.org/1999/xlink">
    <defs></defs>
    <path d="M58.9840891,388.593618 C56.2876437,388.593618 54.1045866,390.7813 54.1045866,393.47312 C54.1045866,394.717278 54.5717238,395.850432 55.3348688,396.71533 C52.5736716,399.448776 48.8458243,401.021317 44.8635952,401.021317 C41.1218725,401.021317 37.5975304,399.633781 34.8872096,397.182467 C35.3543468,396.433197 35.6226038,395.549799 35.6226038,394.606275 C35.6226038,391.909829 33.4395468,389.726772 30.7431014,389.726772 C30.6320985,389.726772 30.5257207,389.731397 30.4147178,389.736023 C30.1233352,388.565867 29.9753313,387.363336 29.9753313,386.133053 C29.9753313,379.833639 33.9251845,374.306619 39.6834599,372.174439 C40.2477247,374.246493 42.1440242,375.768158 44.3918329,375.768158 C46.7460194,375.768158 48.7116958,374.098489 49.1695827,371.883056 C55.112863,373.672978 59.4049751,379.042743 59.7287336,385.360658 C59.7564843,385.874047 60.1912456,386.267182 60.704634,386.239431 C61.2180225,386.21168 61.6111577,385.776919 61.583407,385.263531 C61.2087722,377.969715 56.1396398,371.809054 49.1834581,369.959006 C48.7486967,367.706572 46.769145,366.004528 44.3918329,366.004528 C41.908143,366.004528 39.8592145,367.859201 39.5493314,370.255014 C32.796655,372.502822 28.1206579,378.857738 28.1206579,386.128428 C28.1206579,387.515965 28.2917873,388.880375 28.6201709,390.20316 C26.9875033,390.994055 25.8589738,392.663724 25.8589738,394.60165 C25.8589738,397.298095 28.0466559,399.481152 30.7384762,399.481152 C31.8161294,399.481152 32.8151555,399.129643 33.6245516,398.537627 C36.6771314,401.30345 40.645485,402.871366 44.8589701,402.871366 C49.4239644,402.871366 53.697576,401.035193 56.8149074,397.848484 C57.4670495,398.172243 58.2024437,398.352623 58.979464,398.352623 C61.6759094,398.352623 63.8589664,396.169566 63.8589664,393.47312 C63.8635916,390.776675 61.6805345,388.593618 58.9840891,388.593618 L58.9840891,388.593618 Z M44.3918329,367.854576 C46.0615015,367.854576 47.4166619,369.209736 47.4166619,370.879405 C47.4166619,372.549074 46.0615015,373.904234 44.3918329,373.904234 C42.7221643,373.904234 41.3670039,372.549074 41.3670039,370.879405 C41.3670039,369.209736 42.7221643,367.854576 44.3918329,367.854576 L44.3918329,367.854576 Z M27.7182724,394.60165 C27.7182724,392.931981 29.0734328,391.576821 30.7431014,391.576821 C32.41277,391.576821 33.7679304,392.931981 33.7679304,394.60165 C33.7679304,396.271318 32.41277,397.626479 30.7431014,397.626479 C29.0734328,397.626479 27.7182724,396.275943 27.7182724,394.60165 Z M58.9840891,396.497949 C57.3144205,396.497949 55.9592601,395.142789 55.9592601,393.47312 C55.9592601,391.803452 57.3144205,390.448291 58.9840891,390.448291 C60.6537577,390.448291 62.0089181,391.803452 62.0089181,393.47312 C62.0089181,395.142789 60.6537577,396.497949 58.9840891,396.497949 Z" id="Shape" stroke="#FFFFFF" stroke-width="0.8" fill="#FFFFFF" fill-rule="nonzero"></path>
</svg>