<svg width="29px" height="24px" viewBox="383 48 29 24" version="1.1" xmlns="http://www.w3.org/2000/svg" xmlns:xlink="http://www.w3.org/1999/xlink">
    <desc>Created with Sketch.</desc>
    <defs></defs>
    <g stroke="none" stroke-width="1" fill="none" fill-rule="evenodd" transform="translate(383.088889, 48.000000)">
        <path d="M12.6029748,12.3836207 C11.902957,12.3836207 11.2694993,12.6684919 10.8132504,13.1248356 L4.74202074,9.80200296 C4.91989333,9.46199704 5.03044741,9.08235852 5.03044741,8.67441778 C5.03044741,8.43093333 4.98394074,8.20072296 4.91733333,7.9789037 L10.8993422,4.31862519 C11.344877,4.71371852 11.928083,4.96075852 12.5728237,4.96075852 C13.9591585,4.96075852 15.0865541,3.84990815 15.0865541,2.4838637 C15.0865541,1.11777185 13.9591585,0.00696888889 12.5728237,0.00696888889 C11.1865363,0.00696888889 10.0590933,1.11777185 10.0590933,2.4838637 C10.0590933,2.76565333 10.1175467,3.03246222 10.2055348,3.28519111 L4.27823407,6.91143111 C3.82388148,6.47044741 3.20237037,6.19676444 2.51610074,6.19676444 C1.12981333,6.19676444 0.00241777778,7.30766222 0.00241777778,8.67375407 C0.00241777778,10.0397985 1.12981333,11.1507437 2.51610074,11.1507437 C3.0201363,11.1507437 3.48833185,11.0008415 3.88228741,10.74816 L10.1904593,14.2004622 C10.1307733,14.4121363 10.0886756,14.6301156 10.0886756,14.8599467 C10.0886756,16.2259437 11.2160711,17.3368415 12.6023585,17.3368415 C13.9886459,17.3368415 15.1160889,16.2259437 15.1160889,14.8599467 C15.1160889,13.4939022 13.9899259,12.3836207 12.6029748,12.3836207 L12.6029748,12.3836207 Z" id="Shape" fill="#06A79C" fill-rule="nonzero"></path>
        <path d="M15.5032178,11.6439704 C16.2013393,11.6956444 16.8541393,11.458323 17.3429096,11.0368237 L23.1516919,14.7985067 C22.9491674,15.12448 22.8108326,15.4948267 22.7806341,15.9017719 C22.7626667,16.1444978 22.7919644,16.3776948 22.8419793,16.6035911 L16.6055822,19.8125985 C16.190483,19.3857422 15.6271407,19.0962726 14.9841541,19.0486281 C13.6016593,18.9464178 12.3951407,19.9711289 12.2940681,21.3334281 C12.1929956,22.69568 13.2351052,23.8867437 14.6176474,23.9890489 C16.0001422,24.0912593 17.2066607,23.0665956 17.3077333,21.7043437 C17.3285926,21.4233126 17.2900504,21.1529007 17.2209778,20.8943881 L23.4003911,17.7154844 C23.8208948,18.1886104 24.4204089,18.50752 25.1047822,18.5580563 C26.4873244,18.6604089 27.6937956,17.6357452 27.7949156,16.2733511 C27.8959407,14.9110519 26.8538311,13.720083 25.4712889,13.6177778 C24.9686756,13.5805156 24.4906667,13.6955259 24.0790756,13.9183407 L18.0435437,10.0101689 C18.1187319,9.80337778 18.1768533,9.5890963 18.1938252,9.3599763 C18.2948978,7.99767704 17.2527881,6.80661333 15.8702459,6.70430815 C14.4877511,6.60205037 13.2812326,7.62676148 13.18016,8.98891852 C13.0790874,10.3512652 14.1200593,11.5416178 15.5032178,11.6439704 L15.5032178,11.6439704 Z" id="Shape" fill="#06A79C" fill-rule="nonzero"></path>
    </g>
</svg>