<svg width="40px" height="19px" viewBox="565 107 40 19" version="1.1" xmlns="http://www.w3.org/2000/svg" xmlns:xlink="http://www.w3.org/1999/xlink">
    <defs></defs>
    <path d="M602.719101,123.162397 C599.089888,123.162397 597.168539,119.960149 595.033708,116.544419 C596.955056,113.128689 599.089888,109.926442 602.719101,109.926442 C603.359551,109.926442 603.786517,109.499475 603.786517,108.859026 C603.786517,108.218576 603.359551,107.79161 602.719101,107.79161 C598.235955,107.79161 595.88764,110.993857 593.752809,114.409588 C591.617978,110.993857 589.269663,107.79161 584.786517,107.79161 C580.516854,107.79161 577.955056,111.20734 576.033708,114.409588 C573.898876,110.993857 571.550562,107.79161 567.067416,107.79161 C566.426966,107.79161 566,108.218576 566,108.859026 C566,109.499475 566.426966,109.926442 567.067416,109.926442 C570.696629,109.926442 572.617978,113.128689 574.752809,116.544419 C572.831461,119.960149 570.696629,123.162397 567.067416,123.162397 C566.426966,123.162397 566,123.589363 566,124.229812 C566,124.870262 566.426966,125.297228 567.067416,125.297228 C571.550562,125.297228 573.898876,122.094981 576.033708,118.679251 C578.168539,122.094981 580.516854,125.297228 585,125.297228 C589.483146,125.297228 591.831461,122.094981 593.966292,118.679251 C596.101124,122.094981 598.449438,125.297228 602.932584,125.297228 C603.573034,125.297228 604,124.870262 604,124.229812 C604,123.589363 603.359551,123.162397 602.719101,123.162397 L602.719101,123.162397 Z M585,123.162397 C581.370787,123.162397 579.235955,119.960149 577.314607,116.544419 C579.235955,113.128689 581.370787,109.926442 585,109.926442 C588.629213,109.926442 590.550562,113.128689 592.685393,116.544419 C590.550562,119.960149 588.629213,123.162397 585,123.162397 Z" id="Shape" stroke="#FFFFFF" stroke-width="0.6" fill="#FFFFFF" fill-rule="nonzero"></path>
</svg>