<svg width="26px" height="26px" viewBox="1049 47 26 26" version="1.1" xmlns="http://www.w3.org/2000/svg" xmlns:xlink="http://www.w3.org/1999/xlink">
    <desc>Created with Sketch.</desc>
    <defs></defs>
    <g stroke="none" stroke-width="1" fill="none" fill-rule="evenodd" transform="translate(1050.122588, 48.000000)">
        <path d="M3.2471049,23.9805632 L3.2471049,18.8920678 L0.00206043133,18.8920678 L0.00206043133,0.0193911283 L23.7371373,0.0193911283 L23.7371373,18.8920678 L13.5515357,18.8920678 L13.3047745,18.9503753 L3.2471049,23.9805632 Z M1.02330225,17.87058 L4.26834672,17.87058 L4.26834672,22.3280262 L13.0132372,17.9692352 L13.4922441,17.87058 L22.7156495,17.87058 L22.7156495,1.04063294 L1.02330225,1.04063294 L1.02330225,17.87058 Z" id="Shape" stroke="#06A79C" stroke-width="0.4" fill="#06A79C" fill-rule="nonzero"></path>
        <path d="M12.169624,12.9934184 L11.1481362,12.9934184 L11.1481362,12.4858728 C11.1481362,12.2484605 11.2507278,11.9419157 11.4918304,11.4594645 C11.7191558,11.0033377 12.0965552,10.5678768 12.6449406,10.1284796 C13.0740049,9.78527738 13.4206514,9.37368076 13.6760234,8.90476078 C13.9272129,8.44469762 14.0492404,7.95535769 14.0492404,7.40795635 C14.0492404,6.62757112 13.8042014,6.01226741 13.299608,5.52710988 C12.7888641,5.03727792 12.0857302,4.7993736 11.1505964,4.7993736 C10.3126418,4.7993736 9.62205499,5.07319728 9.03873428,5.63536005 C8.46254822,6.19038813 8.14911481,7.08517406 8.10606078,8.29609967 L7.08506498,8.26042632 C7.13771393,6.77592305 7.55595315,5.64520097 8.32969575,4.89999705 C9.10147015,4.15528517 10.0503812,3.77788577 11.1503504,3.77788577 C12.3443004,3.77788577 13.3055126,4.11862774 14.0066784,4.79002472 C14.7130106,5.46929446 15.0704822,6.34981106 15.0704822,7.40795635 C15.0704822,8.1204392 14.9029405,8.78839186 14.5725315,9.39360864 C14.2522094,9.98184983 13.8177326,10.4982523 13.2823864,10.9258404 C12.8579966,11.2660903 12.5627689,11.5989595 12.4050681,11.9155912 C12.1890599,12.3476078 12.169624,12.4824284 12.1681479,12.4962057 L12.169624,12.9934184 Z" id="Shape" stroke="#06A79C" stroke-width="0.4" fill="#06A79C" fill-rule="nonzero"></path>
        <polygon id="Shape" stroke="#06A79C" stroke-width="0.4" fill="#06A79C" fill-rule="nonzero" points="11.060798 14.0545159 12.0822858 14.0545159 12.0822858 15.7956213 11.060798 15.7956213"></polygon>
    </g>
</svg>