<svg width="26px" height="26px" viewBox="717 47 26 26" version="1.1" xmlns="http://www.w3.org/2000/svg" xmlns:xlink="http://www.w3.org/1999/xlink">
    <desc>Created with Sketch.</desc>
    <defs></defs>
    <g stroke="none" stroke-width="1" fill="none" fill-rule="evenodd" transform="translate(718.713805, 48.000000)">
        <path d="M0.17931938,8.18972552 L11.0629422,15.6308499 C11.1302806,15.676909 11.2082862,15.6998972 11.2863193,15.6998972 C11.3643524,15.6998972 11.442358,15.6768538 11.5096964,15.6308499 L22.393016,8.18972552 C22.5009007,8.11596479 22.5654276,7.99369174 22.5654276,7.86298419 C22.5654276,7.73230419 22.5009007,7.61003116 22.3930436,7.53627044 L11.5096964,0.0949807138 C11.3750472,0.00289004714 11.1975914,0.00289004714 11.0629422,0.0949807138 L0.17931938,7.53627044 C0.0714346667,7.61003116 0.00690779798,7.73230422 0.00690779798,7.86298419 C0.00690779798,7.99369177 0.0714346667,8.11593724 0.17931938,8.18972552 Z M11.2863193,0.901166842 L21.4684158,7.86298422 L11.2863193,14.8246638 L1.10394718,7.86298422 L11.2863193,0.901166842 Z" id="Shape" stroke="#06A79C" fill="#06A79C" fill-rule="nonzero"></path>
        <path d="M0.17931938,12.1607324 L11.0629422,19.6018568 C11.1302806,19.6479159 11.2082862,19.6709041 11.2863193,19.6709041 C11.3643524,19.6709041 11.442358,19.6478883 11.5096964,19.6018568 L22.393016,12.1607324 C22.5734763,12.0373568 22.6197559,11.7910467 22.4963803,11.6106416 C22.3730047,11.4301814 22.1267221,11.3839293 21.9462895,11.5072773 L11.2863193,18.7956707 L0.626073508,11.5072773 C0.445613279,11.3839017 0.199330694,11.4301814 0.0759826801,11.6106416 C-0.0473928889,11.7910743 -0.00111326599,12.0373568 0.17931938,12.1607324 Z" id="Shape" stroke="#06A79C" fill="#06A79C" fill-rule="nonzero"></path>
        <path d="M21.9462895,15.8329752 L11.2863193,23.1213686 L0.626073508,15.8329752 C0.445613279,15.7095996 0.199330694,15.7558793 0.0759826801,15.9363395 C-0.0473929158,16.1167997 -0.00111326599,16.3630823 0.179346936,16.4864303 L11.0629698,23.9275547 C11.1303082,23.9736138 11.2083138,23.996602 11.2863469,23.996602 C11.36438,23.996602 11.4423855,23.9735862 11.5097239,23.9275547 L22.3930436,16.4864303 C22.5735038,16.3630547 22.6197834,16.1167446 22.4964078,15.9363395 C22.3730047,15.7558793 22.1267222,15.7096272 21.9462895,15.8329752 Z" id="Shape" stroke="#06A79C" fill="#06A79C" fill-rule="nonzero"></path>
    </g>
</svg>