<svg width="45px" height="38px" viewBox="22 97 45 38" version="1.1" xmlns="http://www.w3.org/2000/svg" xmlns:xlink="http://www.w3.org/1999/xlink">
    <defs></defs>
    <g id="防调试技术" stroke="none" stroke-width="1" fill="none" fill-rule="evenodd" transform="translate(23.858974, 98.481439)">
        <path d="M16.3631476,7.86029554 C16.4385461,7.93569407 16.5139446,7.93569407 16.5893431,7.93569404 C16.7401402,7.93569404 16.8155387,7.86029551 16.8909372,7.78489701 L21.0378557,1.07442887 L25.1847742,7.78489701 C25.2601728,7.93569404 25.5617668,8.01109257 25.7125639,7.93569404 C25.8633609,7.86029551 25.9387594,7.55870145 25.8633609,7.40790443 L21.4148483,0.169646651 C21.2640513,-0.0565489049 20.8870587,-0.0565489049 20.7362616,0.169646651 L16.2877491,7.40790443 C16.136952,7.55870145 16.2123505,7.78489701 16.3631476,7.86029554 Z M36.5897698,25.1661947 C36.5143712,25.0153977 36.2127772,24.9399992 36.0619801,25.0153977 C35.9111831,25.0907962 35.8357846,25.3923903 35.9111831,25.5431873 L40.8874853,33.6108288 L31.0856779,33.6108288 C30.8594824,33.6108288 30.7086853,33.7616258 30.7086853,33.9878214 C30.7086853,34.2140169 30.8594824,34.3648139 31.0856779,34.364814 L41.6414705,34.364814 C41.7922675,34.364814 41.867666,34.2894154 41.9430646,34.1386184 C42.0184631,34.0632199 42.0184631,33.9124229 41.9430646,33.7616258 L36.5897698,25.1661947 Z M1.11282766,33.6108288 L6.01373132,25.6185858 C6.08912985,25.4677888 6.08912985,25.2415933 5.86293429,25.0907962 C5.71213727,25.0153977 5.48594171,25.0153977 5.33514465,25.2415933 L0.0572483773,33.7616258 C-0.0181501519,33.9124228 -0.0181501519,33.9878214 0.0572483773,34.1386184 C0.132646906,34.2894155 0.283443933,34.364814 0.358842462,34.364814 L10.914635,34.364814 C11.1408306,34.364814 11.2916276,34.2140169 11.2916276,33.9878214 C11.2916276,33.7616258 11.2162291,33.6108288 10.9900335,33.6108288 L1.11282766,33.6108288 Z" id="Shape" stroke="#FFFFFF" stroke-width="1.4" fill="#2EC5FE" fill-rule="nonzero"></path>
        <path d="M33.4032127,28.8409029 L28.5777076,21.0748555 L31.423032,21.3566303 C31.6492275,21.4320288 31.8000246,21.2812318 31.8754231,21.1304348 C31.9508216,20.9796377 31.8000246,20.7534422 31.6492275,20.6780436 L27.8237224,20.0946748 L27.5221283,20.0946748 C27.4467298,20.1700733 27.3713313,20.2454718 27.3713313,20.3208703 L26.2600879,24.1158112 C26.1846894,24.3420068 26.3354864,24.4928038 26.561682,24.5682023 L26.6370805,24.5682023 C26.7878775,24.5682023 26.9386746,24.4174053 27.0140731,24.2666083 L27.8991209,21.4518481 L32.423032,28.6901058 L24.5984577,28.6901058 C24.3722621,28.6901058 24.2214651,28.8409029 24.2214651,29.0670984 C24.2214651,29.293294 24.3722621,29.444091 24.5984577,29.444091 L33.1016186,29.444091 C33.2524157,29.444091 33.3278142,29.3686925 33.4032127,29.2178954 C33.4786113,29.0670984 33.4786113,28.9163014 33.4032127,28.8409029 Z M16.5337639,26.372571 C16.3829669,26.5233681 16.3829669,26.7495636 16.5337639,26.9003607 L18.6251031,28.6901058 L9.65267946,28.6901058 L14.0910973,21.7336229 C14.1664958,21.5828259 14.1664958,21.3566303 13.9403002,21.2058333 C13.7895032,21.1304348 13.5633076,21.1304348 13.4125106,21.3566303 L8.59710021,28.8409029 C8.52170168,28.9916999 8.52170168,29.0670984 8.59710021,29.2178954 C8.67249874,29.3686925 8.82329576,29.444091 8.89869429,29.444091 L18.3989076,29.444091 L16.4583654,31.1584377 C16.3075683,31.3092347 16.3075683,31.5354302 16.4583654,31.6862273 C16.5337639,31.7616258 16.6091624,31.8370243 16.7599595,31.8370243 C16.835358,31.8370243 16.9107565,31.8370243 16.986155,31.7616258 L19.6102645,29.444091 C19.685663,29.3686925 19.7610615,29.293294 19.7610615,29.1424969 C19.7610615,28.9916999 19.685663,28.9163014 19.6102645,28.8409029 L17.0615535,26.372571 C16.9107565,26.221774 16.6845609,26.221774 16.5337639,26.372571 Z M16.8155387,17.1541325 L20.9624572,10.4436644 L25.2095493,17.0033355 C25.2849479,17.1541325 25.4357449,17.1541325 25.5111434,17.1541325 C25.5865419,17.1541325 25.6619404,17.1541325 25.737339,17.078734 C25.888136,17.0033355 25.9635345,16.7017414 25.888136,16.5509444 L21.3394498,9.53888221 C21.1886528,9.31268665 20.8116601,9.31268665 20.7362616,9.53888221 L16.2123506,16.7017414 L15.3829668,14.70562 C15.3075683,14.4794244 15.1567713,14.4040259 14.9305757,14.4040259 C14.7043802,14.4794244 14.6289816,14.6302215 14.6289817,14.856417 L15.6845609,17.8327192 C15.6845609,17.9081177 15.7599595,18.0589148 15.835358,18.0589148 C15.9107565,18.0589148 15.986155,18.1343133 15.986155,18.1343133 L16.136952,18.1343133 L19.9624572,17.5509444 C20.1886528,17.4755459 20.2640513,17.2493503 20.1886528,17.0985533 C20.1886528,16.9477563 19.9624572,16.7969592 19.7362616,16.8723577 L16.8155387,17.1541325 Z" id="Shape" stroke="#FFFFFF" stroke-width="1.4" fill="#2EC5FE" fill-rule="nonzero"></path>
    </g>
</svg>