<svg width="40px" height="41px" viewBox="565 363 40 41" version="1.1" xmlns="http://www.w3.org/2000/svg" xmlns:xlink="http://www.w3.org/1999/xlink">
    <defs></defs>
    <g id="火箭" stroke="none" stroke-width="1" fill="none" fill-rule="evenodd" transform="translate(566.000000, 364.871366)">
        <path d="M37.9532016,0.0475580345 C37.865958,1.61915734 37.8306265,3.14830676 37.6867832,4.66712589 C37.3557786,8.16103488 36.5167647,11.5256845 34.9600966,14.6903251 C33.4260858,17.8084357 31.3074131,20.4502226 28.5584164,22.5863441 C28.375856,22.7281908 28.2105707,22.996519 28.1863509,23.2218765 C27.9308705,25.5983735 26.7513029,27.5227667 25.2217194,29.2581755 C22.7571975,32.0538757 19.7354454,34.1312271 16.4865129,35.9038773 C16.1743459,36.0741975 15.8736378,36.1775876 15.6169421,35.8450204 C15.3641528,35.5177486 15.5311742,35.2579277 15.7662544,34.9857799 C17.7791932,32.6530348 18.9881024,29.9654994 19.3092976,26.890099 C19.3447159,26.5512815 19.2525242,26.3152464 18.9474756,26.1133275 C17.9612328,25.4602596 16.9203,24.8606663 16.0392703,24.0832872 C14.3778232,22.6174219 12.8256692,21.0350582 11.8185922,19.005452 C11.7286575,18.8242805 11.3710023,18.6623808 11.150593,18.6776593 C9.30814804,18.8050088 7.55199172,19.3001702 5.952787,20.2151425 C4.90013492,20.8174268 3.92986508,21.5661588 2.93815329,22.2711388 C2.66999874,22.4616857 2.38786782,22.6116057 2.16606954,22.3440588 C2.02717434,22.1766032 1.95217092,21.7967249 2.04740094,21.6180709 C4.00538934,17.9405598 6.34125954,14.5503882 9.6732688,11.9607738 C11.1715141,10.7963111 12.8212419,9.9465328 14.7574412,9.76136814 C14.9683882,9.74122834 15.2224796,9.58679422 15.3547774,9.41595313 C18.879417,4.86400989 23.5762453,2.21015645 29.1063581,0.910878571 C31.8774911,0.259894061 34.6975848,0.0342762019 37.5384259,0.0271577875 C37.634437,0.0268105896 37.730622,0.036185992 37.9532016,0.0475580345 Z M36.7539282,2.44133019 C36.7539282,2.25442933 36.7529733,2.18923536 36.7539282,2.12412824 C36.7673837,1.19613463 36.7222427,1.09717178 35.8001522,1.18745367 C33.9077918,1.37261834 32.001455,1.5189792 30.1384362,1.87715519 C25.7567264,2.71955463 21.7982997,4.50019123 18.5194178,7.60085316 C15.6981089,10.2688565 13.7391655,13.4544182 12.8382565,17.2627512 C12.676704,17.9461156 12.7689825,18.5444067 13.1458226,19.1209955 C14.6169833,21.3711847 16.4815647,23.2304707 18.6994607,24.7445153 C19.3747519,25.205387 20.0675786,25.3181525 20.8723895,25.1081603 C25.6825042,23.8530685 29.4480402,21.1107562 32.2645746,17.0635234 C35.3417112,12.6417944 36.4691062,7.60380469 36.7539282,2.44133019 Z M26.7222217,24.6732447 C26.7229162,24.1919728 26.4027627,24.0391881 25.9679339,24.2784351 C24.3794067,25.1516519 22.7283768,25.8647051 20.9474797,26.2409375 C20.5748065,26.3197606 20.4361717,26.5462466 20.4152507,26.8894914 C20.3050894,28.6817604 19.7930869,30.3646495 19.0642343,31.9956265 C18.9782061,32.1879096 19.0756064,32.4622276 19.0880201,32.6986099 C19.3088635,32.6597193 19.5851781,32.6919256 19.7418693,32.5703055 C20.8955676,31.6743445 22.0732254,30.7999124 23.1512259,29.8176628 C24.5767248,28.5187322 25.7848527,27.0296019 26.5343659,25.2195369 C26.6147515,25.0255177 26.6717854,24.8216022 26.7222217,24.6732447 Z M5.65251282,19.0364431 C5.85234831,18.95762 6.02015106,18.8990236 6.18170354,18.8266245 C7.52369171,18.2250346 8.9109076,17.7746669 10.3785091,17.6171076 C11.5788242,17.4881087 11.5106787,17.4763894 11.9128672,16.3417024 C12.4267794,14.8918968 13.0762882,13.4907046 13.6427202,12.0587818 C13.7267518,11.8462721 13.6758814,11.5805482 13.6874271,11.3393914 C13.4583368,11.3326202 13.2099748,11.2661242 13.0041494,11.3320994 C12.6202778,11.4551953 12.249688,11.6346305 11.8932482,11.8269136 C10.0462023,12.8237472 8.55915548,14.2500274 7.22211543,15.8375996 C6.57416926,16.6071658 5.98351739,17.4263003 5.39451492,18.2430042 C5.29164564,18.3856322 5.28643707,18.634515 5.31664682,18.8214159 C5.33079679,18.9091803 5.53566721,18.9663878 5.65251282,19.0364431 Z" id="Shape" stroke="#FFFFFF" stroke-width="1.2" fill="#FFFFFF" fill-rule="nonzero"></path>
        <path d="M12.8096094,28.9315982 C12.7789656,30.5270701 11.9537545,31.5844967 10.9568341,32.529071 C9.22055718,34.1747188 7.13174684,35.2747688 4.97678768,36.2465144 C3.6288097,36.8543546 2.24636828,37.387799 0.865576263,37.9187259 C0.66626162,37.9955523 0.337687681,37.9411228 0.16580485,37.8150754 C0.0433166189,37.7254012 -0.00112980611,37.3830245 0.063456417,37.2061067 C1.23243321,34.0063951 2.51782156,30.860679 4.56123053,28.0930184 C5.24164344,27.171275 6.01355359,26.3360808 7.00986626,25.7418697 C8.17189828,25.0491299 9.38419306,24.8998175 10.5717471,25.6153015 C11.8539235,26.3878193 12.7573501,27.4537532 12.8096094,28.9315982 Z M8.83755362,26.2864258 C8.77843637,26.2959748 8.61636299,26.3114269 8.45975863,26.3491022 C7.27967019,26.633143 6.48961689,27.4642572 5.77352526,28.3523184 C4.08195521,30.4502438 2.97626254,32.8771771 1.96614715,35.3497723 C1.89088333,35.5338085 1.86397237,35.9042246 1.94939293,35.9530984 C2.13855083,36.0615234 2.44767952,36.1069248 2.64794905,36.0272337 C4.7649725,35.1841397 6.82478844,34.2186444 8.70733938,32.9203214 C9.7411538,32.2071813 10.7220144,31.4205136 11.3422683,30.2916428 C12.2702619,28.6018089 10.8764485,26.288162 8.83755362,26.2864258 Z" id="Shape" stroke="#FFFFFF" stroke-width="1.4" fill="#FFFFFF" fill-rule="nonzero"></path>
        <path d="M25.6997793,7.80459508 C28.153884,7.79313624 30.1486797,9.77221933 30.1542355,12.2239802 C30.1598781,14.6676678 28.1595267,16.6705368 25.716794,16.6668908 C23.2809192,16.663158 21.3102566,14.6979644 21.3024438,12.2649543 C21.2945441,9.78246288 23.2330004,7.81622757 25.6997793,7.80459508 Z M29.032049,12.238217 C29.034306,10.4081858 27.5368421,8.90204083 25.7158391,8.90264853 C23.9057741,8.90316938 22.3866077,10.4370066 22.4026675,12.2476792 C22.4185536,14.0547927 23.9080311,15.5493052 25.7016891,15.5582465 C27.5242547,15.5672747 29.0297052,14.066512 29.032049,12.238217 Z" id="Shape" stroke="#FFFFFF" stroke-width="1.4" fill="#FFFFFF" fill-rule="nonzero"></path>
    </g>
</svg>