<svg width="513px" height="217px" viewBox="372 186 513 217" version="1.1" xmlns="http://www.w3.org/2000/svg" xmlns:xlink="http://www.w3.org/1999/xlink">
    <defs>
        <polygon id="path-1" points="37.0527344 132.578125 250.791016 54.6894531 487.451172 92.1523438 298.541016 191.822266"></polygon>
        <mask id="mask-2" maskContentUnits="userSpaceOnUse" maskUnits="objectBoundingBox" x="0" y="0" width="450.398438" height="137.132812" fill="white">
            <use xlink:href="#path-1"></use>
        </mask>
        <linearGradient x1="0%" y1="50%" x2="100%" y2="50%" id="linearGradient-3">
            <stop stop-color="#D7D7D7" offset="0%"></stop>
            <stop stop-color="#BFBFBF" offset="100%"></stop>
        </linearGradient>
        <polygon id="path-4" points="1.41699219 119.219727 141.272461 145.864258 141.272461 149.864258 1.41699219 123.219727"></polygon>
        <mask id="mask-5" maskContentUnits="userSpaceOnUse" maskUnits="objectBoundingBox" x="0" y="0" width="139.855469" height="30.6445312" fill="white">
            <use xlink:href="#path-4"></use>
        </mask>
        <polygon id="path-6" points="140.788818 145.834717 220.354492 115.152344 220.354492 119.152344 140.788818 149.834717"></polygon>
        <mask id="mask-7" maskContentUnits="userSpaceOnUse" maskUnits="objectBoundingBox" x="0" y="0" width="79.5656738" height="34.682373" fill="white">
            <use xlink:href="#path-6"></use>
        </mask>
        <polygon id="path-8" points="76.565508 103.177696 218.144955 92.7843985 146.46749 139.406214 3.11307716 142.548568"></polygon>
        <mask id="mask-9" maskContentUnits="userSpaceOnUse" maskUnits="objectBoundingBox" x="0" y="0" width="215.031878" height="49.7641696" fill="white">
            <use xlink:href="#path-8"></use>
        </mask>
        <path d="M100.893959,5.26840933 C101.504808,2.57280288 104.248504,0.387582094 106.991228,0.387582094 L238.99763,0.387582094 C243.417217,0.387582094 246.195578,3.87388446 245.202857,8.17626153 L220.243103,116.349915 L80.0753784,97.1383057 L100.893959,5.26840933 Z" id="path-10"></path>
        <mask id="mask-11" maskContentUnits="userSpaceOnUse" maskUnits="objectBoundingBox" x="0" y="0" width="165.328625" height="115.962332" fill="white">
            <use xlink:href="#path-10"></use>
        </mask>
        <polygon id="path-12" points="106.375977 5.73339844 238.34082 5.73339844 213.352539 107.665039 87.1171875 91.7910156"></polygon>
        <mask id="mask-13" maskContentUnits="userSpaceOnUse" maskUnits="objectBoundingBox" x="0" y="0" width="151.223633" height="101.931641" fill="white">
            <use xlink:href="#path-12"></use>
        </mask>
        <path d="M11.3682,3.4984 L5.2197,2.9414 L4.5792,5.2014 L10.7297,5.7704 L11.3682,3.4984 Z M8.8407,12.4924 L9.8807,8.7909 L3.7272,8.2054 L2.6837,11.8874 L0.0002,11.6234 L2.6742,2.2264 C2.8442,1.6289 3.3527,0.7419 3.9802,0.4024 C4.5842,0.0809 5.3117,-0.0526 6.1207,0.0189 L12.3387,0.5659 C13.1182,0.6349 13.6877,0.8839 14.0337,1.2924 C14.3797,1.7019 14.3572,2.6409 14.1827,3.2639 L11.5252,12.7564 L8.8407,12.4924 Z" id="path-14"></path>
        <filter x="-50%" y="-50%" width="200%" height="200%" filterUnits="objectBoundingBox" id="filter-15">
            <feGaussianBlur stdDeviation="0.5" in="SourceAlpha" result="shadowBlurInner1"></feGaussianBlur>
            <feOffset dx="0.3" dy="0.4" in="shadowBlurInner1" result="shadowOffsetInner1"></feOffset>
            <feComposite in="shadowOffsetInner1" in2="SourceAlpha" operator="arithmetic" k2="-1" k3="1" result="shadowInnerInner1"></feComposite>
            <feColorMatrix values="0 0 0 0 0   0 0 0 0 0   0 0 0 0 0  0 0 0 0.5 0" type="matrix" in="shadowInnerInner1"></feColorMatrix>
        </filter>
        <path d="M50.029,8.80375 L45.5995,8.39625 L44.9735,10.74025 L49.4045,11.15675 L50.029,8.80375 Z M48.0245,16.35775 L48.642,14.03125 L44.2085,13.60375 L43.5895,15.92175 L40.505,15.61875 L42.708,7.41025 C42.874,6.79075 43.275,6.31575 43.9365,5.96625 C44.5725,5.63525 45.346,5.49975 46.2115,5.57725 L51.1435,6.01975 C51.9755,6.09425 52.5885,6.35525 52.967,6.78075 C53.3455,7.20675 53.463,7.73325 53.2925,8.37825 L51.105,16.66075 L48.0245,16.35775 Z" id="path-16"></path>
        <filter x="-50%" y="-50%" width="200%" height="200%" filterUnits="objectBoundingBox" id="filter-17">
            <feGaussianBlur stdDeviation="0.5" in="SourceAlpha" result="shadowBlurInner1"></feGaussianBlur>
            <feOffset dx="0.3" dy="0.4" in="shadowBlurInner1" result="shadowOffsetInner1"></feOffset>
            <feComposite in="shadowOffsetInner1" in2="SourceAlpha" operator="arithmetic" k2="-1" k3="1" result="shadowInnerInner1"></feComposite>
            <feColorMatrix values="0 0 0 0 0   0 0 0 0 0   0 0 0 0 0  0 0 0 0.5 0" type="matrix" in="shadowInnerInner1"></feColorMatrix>
        </filter>
        <path d="M16.5111,4.8003 C16.6576,4.2758 17.0471,3.8303 17.6016,3.5338 C18.1346,3.2518 18.7791,3.1363 19.4966,3.2008 L25.0101,3.6953 C25.7006,3.7573 26.2066,3.9773 26.5156,4.3368 C26.8246,4.6973 26.9141,5.1743 26.7636,5.7203 L26.4456,6.9068 L22.9131,6.5808 L20.9481,13.6958 L17.9106,13.3973 L19.8786,6.3008 L16.1881,5.9603 L16.5111,4.8003 Z" id="path-18"></path>
        <filter x="-50%" y="-50%" width="200%" height="200%" filterUnits="objectBoundingBox" id="filter-19">
            <feGaussianBlur stdDeviation="0.5" in="SourceAlpha" result="shadowBlurInner1"></feGaussianBlur>
            <feOffset dx="0.2" dy="0.4" in="shadowBlurInner1" result="shadowOffsetInner1"></feOffset>
            <feComposite in="shadowOffsetInner1" in2="SourceAlpha" operator="arithmetic" k2="-1" k3="1" result="shadowInnerInner1"></feComposite>
            <feColorMatrix values="0 0 0 0 0   0 0 0 0 0   0 0 0 0 0  0 0 0 0.5 0" type="matrix" in="shadowInnerInner1"></feColorMatrix>
        </filter>
        <path d="M37.93985,14.3632 L37.67985,15.3407 L27.23785,14.3142 L29.44185,6.2797 C29.60935,5.6672 30.06135,5.1592 30.71135,4.8132 C31.33735,4.4847 32.34435,4.3532 33.19135,4.4292 L31.26235,11.5492 L35.83585,11.9912 C36.65085,12.0692 37.26685,12.3372 37.63385,12.7622 C38.00135,13.1882 38.11285,13.7217 37.93985,14.3632" id="path-20"></path>
        <filter x="-50%" y="-50%" width="200%" height="200%" filterUnits="objectBoundingBox" id="filter-21">
            <feGaussianBlur stdDeviation="0.5" in="SourceAlpha" result="shadowBlurInner1"></feGaussianBlur>
            <feOffset dx="0.2" dy="0.4" in="shadowBlurInner1" result="shadowOffsetInner1"></feOffset>
            <feComposite in="shadowOffsetInner1" in2="SourceAlpha" operator="arithmetic" k2="-1" k3="1" result="shadowInnerInner1"></feComposite>
            <feColorMatrix values="0 0 0 0 0   0 0 0 0 0   0 0 0 0 0  0 0 0 0.5 0" type="matrix" in="shadowInnerInner1"></feColorMatrix>
        </filter>
        <path d="M54.2247,16.6244 C54.3907,15.9939 54.8192,15.4329 55.4932,15.0814 C56.1422,14.7479 56.9652,14.6159 57.8512,14.7009 L62.9217,15.1864 L63.2827,13.7949 L57.8807,13.2814 C55.8172,13.0854 55.3752,12.3354 55.7642,10.8564 L56.2952,8.8364 C56.6827,7.3609 57.5512,6.6744 60.1182,6.9049 L64.9792,7.3474 C65.8297,7.4239 66.5117,7.6734 66.9022,8.1044 C67.2927,8.5359 67.4167,9.0689 67.2482,9.7214 L67.1427,10.1154 L59.0622,9.3734 L58.7002,10.7559 L64.1862,11.2654 C66.1467,11.4479 66.5577,12.1989 66.1822,13.6514 L65.5272,16.1849 C65.3842,16.7389 65.0322,17.1669 64.4772,17.4494 C63.9172,17.7519 63.6042,17.8894 62.7512,17.8059 L54.1362,16.9589 L54.2247,16.6244 Z" id="path-22"></path>
        <filter x="-50%" y="-50%" width="200%" height="200%" filterUnits="objectBoundingBox" id="filter-23">
            <feGaussianBlur stdDeviation="0.5" in="SourceAlpha" result="shadowBlurInner1"></feGaussianBlur>
            <feOffset dx="0.3" dy="0.4" in="shadowBlurInner1" result="shadowOffsetInner1"></feOffset>
            <feComposite in="shadowOffsetInner1" in2="SourceAlpha" operator="arithmetic" k2="-1" k3="1" result="shadowInnerInner1"></feComposite>
            <feColorMatrix values="0 0 0 0 0   0 0 0 0 0   0 0 0 0 0  0 0 0 0.5 0" type="matrix" in="shadowInnerInner1"></feColorMatrix>
        </filter>
    </defs>
    <g id="Group-4" stroke="none" stroke-width="1" fill="none" fill-rule="evenodd" transform="translate(372.000000, 186.078125)">
        <use id="Rectangle-8" stroke="#BDBDBD" mask="url(#mask-2)" fill="#EDEDED" xlink:href="#path-1"></use>
        <g id="Group-2" transform="translate(431.000000, 81.000000)">
            <ellipse id="Oval-2" fill-opacity="0.2" fill="#06A79C" cx="41" cy="19" rx="40.8" ry="19"></ellipse>
            <ellipse id="Oval-2-Copy" stroke="#373D41" stroke-width="0.5" fill="#FFFFFF" cx="41" cy="15.8333333" rx="17" ry="7.91666667"></ellipse>
            <path d="M58,15.9768533 C58,11.604599 50.3888407,8.06018662 41,8.06018662 C31.6111593,8.06018662 24,11.604599 24,15.9768533 L24,23.75 L58,23.75 C58,23.75 58,17.6095399 58,15.9768533 Z" id="Oval-2-Copy-3" stroke="#373D41" stroke-width="0.5" fill="url(#linearGradient-3)" transform="translate(41.000000, 15.905093) scale(1, -1) translate(-41.000000, -15.905093) "></path>
            <ellipse id="Oval-2-Copy-2" stroke="#373D41" stroke-width="0.5" fill="#FFFFFF" cx="41" cy="7.91666667" rx="17" ry="7.91666667"></ellipse>
        </g>
        <g id="Group-2-Copy" transform="translate(0.585569, 119.219727)">
            <ellipse id="Oval-2" fill-opacity="0.3" fill="#06A79C" cx="41" cy="14" rx="40.8" ry="14"></ellipse>
            <ellipse id="Oval-2-Copy" stroke="#373D41" stroke-width="0.5" fill="#FFFFFF" cx="41" cy="11.6666667" rx="17" ry="5.83333333"></ellipse>
            <path d="M58,11.7724182 C58,8.55075717 50.3888407,5.93908488 41,5.93908488 C31.6111593,5.93908488 24,8.55075717 24,11.7724182 L24,17.5 L58,17.5 C58,17.5 58,12.9754505 58,11.7724182 Z" id="Oval-2-Copy-3" stroke="#373D41" stroke-width="0.5" fill="url(#linearGradient-3)" transform="translate(41.000000, 11.719542) scale(1, -1) translate(-41.000000, -11.719542) "></path>
            <ellipse id="Oval-2-Copy-2" stroke="#373D41" stroke-width="0.5" fill="#FFFFFF" cx="41" cy="5.83333333" rx="17" ry="5.83333333"></ellipse>
        </g>
        <g id="Group-2-Copy-2" transform="translate(248.429016, 167.419727)">
            <ellipse id="Oval-2" fill-opacity="0.2" fill="#06A79C" cx="49.2" cy="24" rx="48.96" ry="24"></ellipse>
            <ellipse id="Oval-2-Copy" stroke="#373D41" stroke-width="0.6" fill="#FFFFFF" cx="49.2" cy="20" rx="20.4" ry="10"></ellipse>
            <path d="M69.6,20.1812884 C69.6,14.6584409 60.4666089,10.1812884 49.2,10.1812884 C37.9333911,10.1812884 28.8,14.6584409 28.8,20.1812884 L28.8,30 L69.6,30 C69.6,30 69.6,22.2436293 69.6,20.1812884 Z" id="Oval-2-Copy-3" stroke="#373D41" stroke-width="0.6" fill="url(#linearGradient-3)" transform="translate(49.200000, 20.090644) scale(1, -1) translate(-49.200000, -20.090644) "></path>
            <ellipse id="Oval-2-Copy-2" stroke="#373D41" stroke-width="0.6" fill="#FFFFFF" cx="49.2" cy="10" rx="20.4" ry="10"></ellipse>
        </g>
        <g id="Group-3" transform="translate(148.000000, 0.000000)">
            <use id="Rectangle-3" stroke="#777F84" mask="url(#mask-5)" stroke-width="1.5" fill="#D8D8D8" xlink:href="#path-4"></use>
            <use id="Rectangle-4" stroke="#777F84" mask="url(#mask-7)" stroke-width="1.5" fill="#D8D8D8" xlink:href="#path-6"></use>
            <use id="Rectangle-2" stroke="#777F84" mask="url(#mask-9)" stroke-width="1.5" fill="#F7F7F7" transform="translate(110.629016, 117.666483) rotate(12.000000) translate(-110.629016, -117.666483) " xlink:href="#path-8"></use>
            <ellipse id="Oval-2" fill-opacity="0.2" fill="#06A79C" cx="112.629016" cy="117.419727" rx="12.611543" ry="6.18212891"></ellipse>
            <use id="Rectangle-5" stroke="#777F84" mask="url(#mask-11)" stroke-width="2" xlink:href="#path-10"></use>
            <use id="Rectangle-6" stroke="#979797" mask="url(#mask-13)" stroke-width="2" fill="#DDDDDD" xlink:href="#path-12"></use>
            <g id="Page-1" transform="translate(159.749657, 54.986916) rotate(-3.000000) translate(-159.749657, -54.986916) translate(125.749657, 45.986916)" fill="black" fill-opacity="1">
                <g id="Fill-1">
                    <use filter="url(#filter-15)" xlink:href="#path-14"></use>
                </g>
                <g id="Fill-3">
                    <use filter="url(#filter-17)" xlink:href="#path-16"></use>
                </g>
                <g id="Fill-5">
                    <use filter="url(#filter-19)" xlink:href="#path-18"></use>
                </g>
                <g id="Fill-7">
                    <use filter="url(#filter-21)" xlink:href="#path-20"></use>
                </g>
                <g id="Fill-9">
                    <use filter="url(#filter-23)" xlink:href="#path-22"></use>
                </g>
            </g>
        </g>
        <path d="M260.292969,115.339844 C260.292969,115.339844 276.773438,69.7929687 348.867188,52.8730469 C420.960938,35.953125 472.445312,80.3984375 472.445312,80.3984375" id="Path-2" stroke="#06A79C" stroke-linecap="round" stroke-linejoin="round" stroke-dasharray="3,3"></path>
        <path d="M53.5,118.5 C53.5,118.5 82.015625,89.3984375 102.999023,78.4345703 C123.982422,67.4707031 143.419922,58.5654297 187.695312,64.3632812 C231.970703,70.1611328 259.158203,114.808594 259.158203,114.808594" id="Line" stroke="#06A79C" stroke-linecap="round" stroke-dasharray="3"></path>
        <path d="M260.5,117.5 C260.5,117.5 276.742188,117.086768 286.121094,129.292969 C295.5,141.499169 295.5,165.5 295.5,165.5" id="Line" stroke="#06A79C" stroke-linecap="round" stroke-dasharray="3"></path>
    </g>
</svg>