
<svg width="451px" height="340px" viewBox="859 248 451 340" version="1.1" xmlns="http://www.w3.org/2000/svg" xmlns:xlink="http://www.w3.org/1999/xlink">
    <defs>
        <polygon id="path-1" points="117 103 176.019409 67.3387451 176.019409 105.338745 117 141"></polygon>
        <mask id="mask-2" maskContentUnits="userSpaceOnUse" maskUnits="objectBoundingBox" x="0" y="0" width="59.0194092" height="73.6612549" fill="white">
            <use xlink:href="#path-1"></use>
        </mask>
        <polygon id="path-3" points="117 103 176.019409 67.3387451 176.019409 105.338745 117 141"></polygon>
        <mask id="mask-4" maskContentUnits="userSpaceOnUse" maskUnits="objectBoundingBox" x="0" y="0" width="59.0194092" height="73.6612549" fill="white">
            <use xlink:href="#path-3"></use>
        </mask>
        <polygon id="path-5" points="391 215 450.019409 179.338745 450.019409 217.338745 391 253"></polygon>
        <mask id="mask-6" maskContentUnits="userSpaceOnUse" maskUnits="objectBoundingBox" x="0" y="0" width="59.0194092" height="73.6612549" fill="white">
            <use xlink:href="#path-5"></use>
        </mask>
    </defs>
    <g stroke="none" stroke-width="1" fill="none" fill-rule="evenodd" transform="translate(859.000000, 249.100000)">
        <g id="Page-1" transform="translate(81.000000, 0.007812)">
            <polygon id="Stroke-1" stroke="#7A7A7A" stroke-width="0.75" points="0.7421 73.3176 61.1831 37.4576 175.9111 104.8206 116.9251 140.4516"></polygon>
            <path d="M39.4584,61.4756 L63.9894,47.2856 C64.7554,46.8426 65.6994,46.8416 66.4664,47.2836 L90.7624,61.2826 C91.7604,61.8576 91.7604,63.2966 90.7624,63.8716 L66.4684,77.8696 C65.7004,78.3126 64.7544,78.3106 63.9884,77.8666 L39.4574,63.6356 C38.6274,63.1536 38.6284,61.9556 39.4584,61.4756" id="Fill-3" fill="#FFFFFF"></path>
            <path d="M39.4584,65.3792 L63.9894,51.1892 C64.7554,50.7462 65.6994,50.7452 66.4664,51.1872 L90.7624,65.1862 C91.7604,65.7612 91.7604,67.2002 90.7624,67.7752 L66.4684,81.7732 C65.7004,82.2162 64.7544,82.2142 63.9884,81.7702 L39.4574,67.5392 C38.6274,67.0572 38.6284,65.8592 39.4584,65.3792" id="Fill-5" fill="#FFFFFF"></path>
            <path d="M91.2548,61.3382 L66.6608,46.9582 C65.7548,46.4292 64.6338,46.4292 63.7288,46.9582 L39.1348,61.3382 C38.6398,61.6272 38.3928,62.1292 38.3928,62.6302 L38.3928,74.8662 C38.3928,75.3682 38.6398,75.8702 39.1348,76.1582 L63.7288,90.5382 C64.6338,91.0672 65.7548,91.0672 66.6608,90.5382 L91.2548,76.1582 C91.7488,75.8702 91.9958,75.3682 91.9958,74.8662 L91.9958,62.6302 C91.9958,62.1282 91.7488,61.6272 91.2548,61.3382" id="Fill-7" fill="#BABABA"></path>
            <path d="M66.6606,46.9585 C65.7546,46.4285 64.6346,46.4285 63.7286,46.9585 L39.1346,61.3385 C38.6396,61.6275 38.3936,62.1285 38.3936,62.6305 L38.3936,74.8665 C38.3936,75.3675 38.6396,75.8695 39.1346,76.1585 L63.7286,90.5385 C64.6346,91.0675 64.2886,91.4645 65.1946,90.9355 L65.1946,69.9725 C65.1946,69.4705 66.6606,46.9585 66.6606,46.9585" id="Fill-9" fill="#D8D8D8"></path>
            <path d="M39.4584,61.4756 L63.9894,47.2856 C64.7554,46.8426 65.6994,46.8416 66.4664,47.2836 L90.7624,61.2826 C91.7604,61.8576 91.7604,63.2966 90.7624,63.8716 L66.4684,77.8696 C65.7004,78.3126 64.7544,78.3106 63.9884,77.8666 L39.4574,63.6356 C38.6274,63.1536 38.6284,61.9556 39.4584,61.4756" id="Fill-11" fill="#FFFFFF"></path>
            <path d="M91.0973,61.346 C92.0793,61.92 92.0793,63.34 91.0973,63.914 L66.6603,78.202 C65.7553,78.731 64.6343,78.731 63.7283,78.202 L39.2913,63.914 C38.3093,63.34 38.3093,61.92 39.2913,61.346" id="Stroke-13" stroke="#777F84" stroke-width="0.75"></path>
            <path d="M91.7724,65.305 C91.9554,65.925 91.7304,66.646 91.0974,67.016 L66.6604,81.304 C65.7544,81.833 64.6344,81.833 63.7284,81.304 L39.2914,67.016 C38.6914,66.665 38.4574,65.998 38.5914,65.402" id="Stroke-15" stroke="#777F84" stroke-width="0.5"></path>
            <path d="M65.1732,91.169 L65.1732,81.77" id="Stroke-17" stroke="#777F84" stroke-width="0.5"></path>
            <path d="M91.2548,61.3382 L66.6608,46.9582 C65.7548,46.4292 64.6338,46.4292 63.7288,46.9582 L39.1348,61.3382 C38.6398,61.6272 38.3928,62.1292 38.3928,62.6302 L38.3928,74.8662 C38.3928,75.3682 38.6398,75.8702 39.1348,76.1582 L63.7288,90.5382 C64.6338,91.0672 65.7548,91.0672 66.6608,90.5382 L91.2548,76.1582 C91.7488,75.8702 91.9958,75.3682 91.9958,74.8662 L91.9958,62.6302 C91.9958,62.1282 91.7488,61.6272 91.2548,61.3382 Z" id="Stroke-19" stroke="#373D41"></path>
            <path d="M39.6124,62.6303 C39.6124,63.3033 39.0664,63.8493 38.3934,63.8493 C37.7204,63.8493 37.1744,63.3033 37.1744,62.6303 C37.1744,61.9573 37.7204,61.4113 38.3934,61.4113 C39.0664,61.4113 39.6124,61.9573 39.6124,62.6303" id="Fill-21" fill="#373D41"></path>
            <path d="M39.6124,75.5747 C39.6124,76.2477 39.0664,76.7937 38.3934,76.7937 C37.7204,76.7937 37.1744,76.2477 37.1744,75.5747 C37.1744,74.9017 37.7204,74.3557 38.3934,74.3557 C39.0664,74.3557 39.6124,74.9017 39.6124,75.5747" id="Fill-23" fill="#373D41"></path>
            <path d="M66.4066,90.9352 C66.4066,91.6082 65.8606,92.1542 65.1876,92.1542 C64.5146,92.1542 63.9686,91.6082 63.9686,90.9352 C63.9686,90.2622 64.5146,89.7162 65.1876,89.7162 C65.8606,89.7162 66.4066,90.2622 66.4066,90.9352" id="Fill-25" fill="#373D41"></path>
            <path d="M93.2149,75.5747 C93.2149,76.2477 92.6689,76.7937 91.9959,76.7937 C91.3229,76.7937 90.7769,76.2477 90.7769,75.5747 C90.7769,74.9017 91.3229,74.3557 91.9959,74.3557 C92.6689,74.3557 93.2149,74.9017 93.2149,75.5747" id="Fill-27" fill="#373D41"></path>
            <path d="M93.2149,62.6303 C93.2149,63.3033 92.6689,63.8493 91.9959,63.8493 C91.3229,63.8493 90.7769,63.3033 90.7769,62.6303 C90.7769,61.9573 91.3229,61.4113 91.9959,61.4113 C92.6689,61.4113 93.2149,61.9573 93.2149,62.6303" id="Fill-29" fill="#373D41"></path>
            <path d="M66.4066,78.5988 C66.4066,79.2718 65.8606,79.8178 65.1876,79.8178 C64.5146,79.8178 63.9686,79.2718 63.9686,78.5988 C63.9686,77.9258 64.5146,77.3798 65.1876,77.3798 C65.8606,77.3798 66.4066,77.9258 66.4066,78.5988" id="Fill-31" fill="#777F84"></path>
            <path d="M66.4066,46.5613 C66.4066,47.2343 65.8606,47.7803 65.1876,47.7803 C64.5146,47.7803 63.9686,47.2343 63.9686,46.5613 C63.9686,45.8883 64.5146,45.3423 65.1876,45.3423 C65.8606,45.3423 66.4066,45.8883 66.4066,46.5613" id="Fill-33" fill="#373D41"></path>
            <path d="M39.4584,41.4636 L63.9894,27.2736 C64.7554,26.8306 65.6994,26.8296 66.4664,27.2716 L90.7624,41.2706 C91.7604,41.8456 91.7604,43.2846 90.7624,43.8596 L66.4684,57.8576 C65.7004,58.3006 64.7544,58.2986 63.9884,57.8546 L39.4574,43.6236 C38.6274,43.1416 38.6284,41.9436 39.4584,41.4636" id="Fill-37" fill="#FFFFFF"></path>
            <path d="M39.4584,45.3672 L63.9894,31.1772 C64.7554,30.7342 65.6994,30.7332 66.4664,31.1752 L90.7624,45.1742 C91.7604,45.7492 91.7604,47.1882 90.7624,47.7632 L66.4684,61.7612 C65.7004,62.2042 64.7544,62.2022 63.9884,61.7582 L39.4574,47.5272 C38.6274,47.0452 38.6284,45.8472 39.4584,45.3672" id="Fill-39" fill="#FFFFFF"></path>
            <path d="M91.2548,41.3262 L66.6608,26.9462 C65.7548,26.4172 64.6338,26.4172 63.7288,26.9462 L39.1348,41.3262 C38.6398,41.6152 38.3928,42.1172 38.3928,42.6182 L38.3928,54.8542 C38.3928,55.3562 38.6398,55.8582 39.1348,56.1462 L63.7288,70.5262 C64.6338,71.0552 65.7548,71.0552 66.6608,70.5262 L91.2548,56.1462 C91.7488,55.8582 91.9958,55.3562 91.9958,54.8542 L91.9958,42.6182 C91.9958,42.1162 91.7488,41.6152 91.2548,41.3262" id="Fill-41" fill="#BABABA"></path>
            <path d="M66.6606,26.9465 C65.7546,26.4165 64.6346,26.4165 63.7286,26.9465 L39.1346,41.3265 C38.6396,41.6155 38.3936,42.1165 38.3936,42.6185 L38.3936,54.8545 C38.3936,55.3555 38.6396,55.8575 39.1346,56.1465 L63.7286,70.5265 C64.6346,71.0555 64.2886,71.4525 65.1946,70.9235 L65.1946,49.9605 C65.1946,49.4585 66.6606,26.9465 66.6606,26.9465" id="Fill-43" fill="#D8D8D8"></path>
            <path d="M39.4584,41.4636 L63.9894,27.2736 C64.7554,26.8306 65.6994,26.8296 66.4664,27.2716 L90.7624,41.2706 C91.7604,41.8456 91.7604,43.2846 90.7624,43.8596 L66.4684,57.8576 C65.7004,58.3006 64.7544,58.2986 63.9884,57.8546 L39.4574,43.6236 C38.6274,43.1416 38.6284,41.9436 39.4584,41.4636" id="Fill-45" fill="#FFFFFF"></path>
            <path d="M91.0973,41.334 C92.0793,41.908 92.0793,43.328 91.0973,43.902 L66.6603,58.19 C65.7553,58.719 64.6343,58.719 63.7283,58.19 L39.2913,43.902 C38.3093,43.328 38.3093,41.908 39.2913,41.334" id="Stroke-47" stroke="#777F84" stroke-width="0.75"></path>
            <path d="M91.7724,45.293 C91.9554,45.913 91.7304,46.634 91.0974,47.004 L66.6604,61.292 C65.7544,61.821 64.6344,61.821 63.7284,61.292 L39.2914,47.004 C38.6914,46.653 38.4574,45.986 38.5914,45.39" id="Stroke-49" stroke="#777F84" stroke-width="0.5"></path>
            <path d="M65.1732,71.157 L65.1732,61.758" id="Stroke-51" stroke="#777F84" stroke-width="0.5"></path>
            <path d="M91.2548,41.3262 L66.6608,26.9462 C65.7548,26.4172 64.6338,26.4172 63.7288,26.9462 L39.1348,41.3262 C38.6398,41.6152 38.3928,42.1172 38.3928,42.6182 L38.3928,54.8542 C38.3928,55.3562 38.6398,55.8582 39.1348,56.1462 L63.7288,70.5262 C64.6338,71.0552 65.7548,71.0552 66.6608,70.5262 L91.2548,56.1462 C91.7488,55.8582 91.9958,55.3562 91.9958,54.8542 L91.9958,42.6182 C91.9958,42.1162 91.7488,41.6152 91.2548,41.3262 Z" id="Stroke-53" stroke="#373D41"></path>
            <path d="M39.6124,42.6183 C39.6124,43.2913 39.0664,43.8373 38.3934,43.8373 C37.7204,43.8373 37.1744,43.2913 37.1744,42.6183 C37.1744,41.9453 37.7204,41.3993 38.3934,41.3993 C39.0664,41.3993 39.6124,41.9453 39.6124,42.6183" id="Fill-55" fill="#373D41"></path>
            <path d="M39.6124,55.5628 C39.6124,56.2358 39.0664,56.7818 38.3934,56.7818 C37.7204,56.7818 37.1744,56.2358 37.1744,55.5628 C37.1744,54.8898 37.7204,54.3438 38.3934,54.3438 C39.0664,54.3438 39.6124,54.8898 39.6124,55.5628" id="Fill-57" fill="#373D41"></path>
            <path d="M66.4066,70.9232 C66.4066,71.5962 65.8606,72.1422 65.1876,72.1422 C64.5146,72.1422 63.9686,71.5962 63.9686,70.9232 C63.9686,70.2502 64.5146,69.7042 65.1876,69.7042 C65.8606,69.7042 66.4066,70.2502 66.4066,70.9232" id="Fill-59" fill="#373D41"></path>
            <path d="M93.2149,55.5628 C93.2149,56.2358 92.6689,56.7818 91.9959,56.7818 C91.3229,56.7818 90.7769,56.2358 90.7769,55.5628 C90.7769,54.8898 91.3229,54.3438 91.9959,54.3438 C92.6689,54.3438 93.2149,54.8898 93.2149,55.5628" id="Fill-61" fill="#373D41"></path>
            <path d="M93.2149,42.6183 C93.2149,43.2913 92.6689,43.8373 91.9959,43.8373 C91.3229,43.8373 90.7769,43.2913 90.7769,42.6183 C90.7769,41.9453 91.3229,41.3993 91.9959,41.3993 C92.6689,41.3993 93.2149,41.9453 93.2149,42.6183" id="Fill-63" fill="#373D41"></path>
            <path d="M66.4066,58.5868 C66.4066,59.2598 65.8606,59.8058 65.1876,59.8058 C64.5146,59.8058 63.9686,59.2598 63.9686,58.5868 C63.9686,57.9138 64.5146,57.3678 65.1876,57.3678 C65.8606,57.3678 66.4066,57.9138 66.4066,58.5868" id="Fill-65" fill="#777F84"></path>
            <path d="M66.4066,26.5493 C66.4066,27.2223 65.8606,27.7683 65.1876,27.7683 C64.5146,27.7683 63.9686,27.2223 63.9686,26.5493 C63.9686,25.8763 64.5146,25.3303 65.1876,25.3303 C65.8606,25.3303 66.4066,25.8763 66.4066,26.5493" id="Fill-67" fill="#373D41"></path>
            <path d="M88.725,90.6097 L113.256,76.4197 C114.022,75.9767 114.966,75.9757 115.733,76.4177 L140.029,90.4167 C141.027,90.9917 141.027,92.4307 140.029,93.0057 L115.735,107.0037 C114.967,107.4467 114.021,107.4447 113.255,107.0007 L88.724,92.7697 C87.894,92.2877 87.895,91.0897 88.725,90.6097" id="Fill-69" fill="#FFFFFF"></path>
            <path d="M88.725,94.5134 L113.256,80.3234 C114.022,79.8804 114.966,79.8794 115.733,80.3214 L140.029,94.3204 C141.027,94.8954 141.027,96.3344 140.029,96.9094 L115.735,110.9074 C114.967,111.3504 114.021,111.3484 113.255,110.9044 L88.724,96.6734 C87.894,96.1914 87.895,94.9934 88.725,94.5134" id="Fill-71" fill="#FFFFFF"></path>
            <path d="M140.5214,90.4723 L115.9274,76.0923 C115.0214,75.5633 113.9004,75.5633 112.9954,76.0923 L88.4014,90.4723 C87.9064,90.7613 87.6594,91.2633 87.6594,91.7643 L87.6594,104.0003 C87.6594,104.5023 87.9064,105.0043 88.4014,105.2923 L112.9954,119.6723 C113.9004,120.2013 115.0214,120.2013 115.9274,119.6723 L140.5214,105.2923 C141.0154,105.0043 141.2624,104.5023 141.2624,104.0003 L141.2624,91.7643 C141.2624,91.2623 141.0154,90.7613 140.5214,90.4723" id="Fill-73" fill="#BABABA"></path>
            <path d="M115.9272,76.0926 C115.0212,75.5626 113.9012,75.5626 112.9952,76.0926 L88.4012,90.4726 C87.9062,90.7616 87.6602,91.2626 87.6602,91.7646 L87.6602,104.0006 C87.6602,104.5016 87.9062,105.0036 88.4012,105.2926 L112.9952,119.6726 C113.9012,120.2016 113.5552,120.5986 114.4612,120.0696 L114.4612,99.1066 C114.4612,98.6046 115.9272,76.0926 115.9272,76.0926" id="Fill-75" fill="#D8D8D8"></path>
            <path d="M88.725,90.6097 L113.256,76.4197 C114.022,75.9767 114.966,75.9757 115.733,76.4177 L140.029,90.4167 C141.027,90.9917 141.027,92.4307 140.029,93.0057 L115.735,107.0037 C114.967,107.4467 114.021,107.4447 113.255,107.0007 L88.724,92.7697 C87.894,92.2877 87.895,91.0897 88.725,90.6097" id="Fill-77" fill="#FFFFFF"></path>
            <path d="M140.3639,90.4801 C141.3459,91.0541 141.3459,92.4741 140.3639,93.0481 L115.9269,107.3361 C115.0219,107.8651 113.9009,107.8651 112.9949,107.3361 L88.5579,93.0481 C87.5759,92.4741 87.5759,91.0541 88.5579,90.4801" id="Stroke-79" stroke="#777F84" stroke-width="0.75"></path>
            <path d="M141.039,94.4392 C141.222,95.0592 140.997,95.7802 140.364,96.1502 L115.927,110.4382 C115.021,110.9672 113.901,110.9672 112.995,110.4382 L88.558,96.1502 C87.958,95.7992 87.724,95.1322 87.858,94.5362" id="Stroke-81" stroke="#777F84" stroke-width="0.5"></path>
            <path d="M114.4398,120.3031 L114.4398,110.9041" id="Stroke-83" stroke="#777F84" stroke-width="0.5"></path>
            <path d="M140.5214,90.4723 L115.9274,76.0923 C115.0214,75.5633 113.9004,75.5633 112.9954,76.0923 L88.4014,90.4723 C87.9064,90.7613 87.6594,91.2633 87.6594,91.7643 L87.6594,104.0003 C87.6594,104.5023 87.9064,105.0043 88.4014,105.2923 L112.9954,119.6723 C113.9004,120.2013 115.0214,120.2013 115.9274,119.6723 L140.5214,105.2923 C141.0154,105.0043 141.2624,104.5023 141.2624,104.0003 L141.2624,91.7643 C141.2624,91.2623 141.0154,90.7613 140.5214,90.4723 Z" id="Stroke-85" stroke="#373D41"></path>
            <path d="M88.879,91.7644 C88.879,92.4374 88.333,92.9834 87.66,92.9834 C86.987,92.9834 86.441,92.4374 86.441,91.7644 C86.441,91.0914 86.987,90.5454 87.66,90.5454 C88.333,90.5454 88.879,91.0914 88.879,91.7644" id="Fill-87" fill="#373D41"></path>
            <path d="M88.879,104.7089 C88.879,105.3819 88.333,105.9279 87.66,105.9279 C86.987,105.9279 86.441,105.3819 86.441,104.7089 C86.441,104.0359 86.987,103.4899 87.66,103.4899 C88.333,103.4899 88.879,104.0359 88.879,104.7089" id="Fill-89" fill="#373D41"></path>
            <path d="M115.6732,120.0693 C115.6732,120.7423 115.1272,121.2883 114.4542,121.2883 C113.7812,121.2883 113.2352,120.7423 113.2352,120.0693 C113.2352,119.3963 113.7812,118.8503 114.4542,118.8503 C115.1272,118.8503 115.6732,119.3963 115.6732,120.0693" id="Fill-91" fill="#373D41"></path>
            <path d="M142.4815,104.7089 C142.4815,105.3819 141.9355,105.9279 141.2625,105.9279 C140.5895,105.9279 140.0435,105.3819 140.0435,104.7089 C140.0435,104.0359 140.5895,103.4899 141.2625,103.4899 C141.9355,103.4899 142.4815,104.0359 142.4815,104.7089" id="Fill-93" fill="#373D41"></path>
            <path d="M142.4815,91.7644 C142.4815,92.4374 141.9355,92.9834 141.2625,92.9834 C140.5895,92.9834 140.0435,92.4374 140.0435,91.7644 C140.0435,91.0914 140.5895,90.5454 141.2625,90.5454 C141.9355,90.5454 142.4815,91.0914 142.4815,91.7644" id="Fill-95" fill="#373D41"></path>
            <path d="M115.6732,107.7329 C115.6732,108.4059 115.1272,108.9519 114.4542,108.9519 C113.7812,108.9519 113.2352,108.4059 113.2352,107.7329 C113.2352,107.0599 113.7812,106.5139 114.4542,106.5139 C115.1272,106.5139 115.6732,107.0599 115.6732,107.7329" id="Fill-97" fill="#777F84"></path>
            <path d="M115.6732,75.6954 C115.6732,76.3684 115.1272,76.9144 114.4542,76.9144 C113.7812,76.9144 113.2352,76.3684 113.2352,75.6954 C113.2352,75.0224 113.7812,74.4764 114.4542,74.4764 C115.1272,74.4764 115.6732,75.0224 115.6732,75.6954" id="Fill-99" fill="#373D41"></path>
            <path d="M88.725,70.5977 L113.256,56.4077 C114.022,55.9647 114.966,55.9637 115.733,56.4057 L140.029,70.4047 C141.027,70.9797 141.027,72.4187 140.029,72.9937 L115.735,86.9917 C114.967,87.4347 114.021,87.4327 113.255,86.9887 L88.724,72.7577 C87.894,72.2757 87.895,71.0777 88.725,70.5977" id="Fill-103" fill="#FFFFFF"></path>
            <path d="M88.725,74.5013 L113.256,60.3113 C114.022,59.8683 114.966,59.8673 115.733,60.3093 L140.029,74.3083 C141.027,74.8833 141.027,76.3223 140.029,76.8973 L115.735,90.8953 C114.967,91.3383 114.021,91.3363 113.255,90.8923 L88.724,76.6613 C87.894,76.1793 87.895,74.9813 88.725,74.5013" id="Fill-105" fill="#FFFFFF"></path>
            <path d="M140.5214,70.4603 L115.9274,56.0803 C115.0214,55.5513 113.9004,55.5513 112.9954,56.0803 L88.4014,70.4603 C87.9064,70.7493 87.6594,71.2513 87.6594,71.7523 L87.6594,83.9883 C87.6594,84.4903 87.9064,84.9923 88.4014,85.2803 L112.9954,99.6603 C113.9004,100.1893 115.0214,100.1893 115.9274,99.6603 L140.5214,85.2803 C141.0154,84.9923 141.2624,84.4903 141.2624,83.9883 L141.2624,71.7523 C141.2624,71.2503 141.0154,70.7493 140.5214,70.4603" id="Fill-107" fill="#BABABA"></path>
            <path d="M115.9272,56.0806 C115.0212,55.5506 113.9012,55.5506 112.9952,56.0806 L88.4012,70.4606 C87.9062,70.7496 87.6602,71.2506 87.6602,71.7526 L87.6602,83.9886 C87.6602,84.4896 87.9062,84.9916 88.4012,85.2806 L112.9952,99.6606 C113.9012,100.1896 113.5552,100.5866 114.4612,100.0576 L114.4612,79.0946 C114.4612,78.5926 115.9272,56.0806 115.9272,56.0806" id="Fill-109" fill="#D8D8D8"></path>
            <path d="M88.725,70.5977 L113.256,56.4077 C114.022,55.9647 114.966,55.9637 115.733,56.4057 L140.029,70.4047 C141.027,70.9797 141.027,72.4187 140.029,72.9937 L115.735,86.9917 C114.967,87.4347 114.021,87.4327 113.255,86.9887 L88.724,72.7577 C87.894,72.2757 87.895,71.0777 88.725,70.5977" id="Fill-111" fill="#FFFFFF"></path>
            <path d="M140.3639,70.4681 C141.3459,71.0421 141.3459,72.4621 140.3639,73.0361 L115.9269,87.3241 C115.0219,87.8531 113.9009,87.8531 112.9949,87.3241 L88.5579,73.0361 C87.5759,72.4621 87.5759,71.0421 88.5579,70.4681" id="Stroke-113" stroke="#777F84" stroke-width="0.75"></path>
            <path d="M141.039,74.4272 C141.222,75.0472 140.997,75.7682 140.364,76.1382 L115.927,90.4262 C115.021,90.9552 113.901,90.9552 112.995,90.4262 L88.558,76.1382 C87.958,75.7872 87.724,75.1202 87.858,74.5242" id="Stroke-115" stroke="#777F84" stroke-width="0.5"></path>
            <path d="M114.4398,100.2911 L114.4398,90.8921" id="Stroke-117" stroke="#777F84" stroke-width="0.5"></path>
            <path d="M140.5214,70.4603 L115.9274,56.0803 C115.0214,55.5513 113.9004,55.5513 112.9954,56.0803 L88.4014,70.4603 C87.9064,70.7493 87.6594,71.2513 87.6594,71.7523 L87.6594,83.9883 C87.6594,84.4903 87.9064,84.9923 88.4014,85.2803 L112.9954,99.6603 C113.9004,100.1893 115.0214,100.1893 115.9274,99.6603 L140.5214,85.2803 C141.0154,84.9923 141.2624,84.4903 141.2624,83.9883 L141.2624,71.7523 C141.2624,71.2503 141.0154,70.7493 140.5214,70.4603 Z" id="Stroke-119" stroke="#373D41"></path>
            <path d="M88.879,71.7524 C88.879,72.4254 88.333,72.9714 87.66,72.9714 C86.987,72.9714 86.441,72.4254 86.441,71.7524 C86.441,71.0794 86.987,70.5334 87.66,70.5334 C88.333,70.5334 88.879,71.0794 88.879,71.7524" id="Fill-121" fill="#373D41"></path>
            <path d="M88.879,84.6969 C88.879,85.3699 88.333,85.9159 87.66,85.9159 C86.987,85.9159 86.441,85.3699 86.441,84.6969 C86.441,84.0239 86.987,83.4779 87.66,83.4779 C88.333,83.4779 88.879,84.0239 88.879,84.6969" id="Fill-123" fill="#373D41"></path>
            <path d="M115.6732,100.0573 C115.6732,100.7303 115.1272,101.2763 114.4542,101.2763 C113.7812,101.2763 113.2352,100.7303 113.2352,100.0573 C113.2352,99.3843 113.7812,98.8383 114.4542,98.8383 C115.1272,98.8383 115.6732,99.3843 115.6732,100.0573" id="Fill-125" fill="#373D41"></path>
            <path d="M142.4815,84.6969 C142.4815,85.3699 141.9355,85.9159 141.2625,85.9159 C140.5895,85.9159 140.0435,85.3699 140.0435,84.6969 C140.0435,84.0239 140.5895,83.4779 141.2625,83.4779 C141.9355,83.4779 142.4815,84.0239 142.4815,84.6969" id="Fill-127" fill="#373D41"></path>
            <path d="M142.4815,71.7524 C142.4815,72.4254 141.9355,72.9714 141.2625,72.9714 C140.5895,72.9714 140.0435,72.4254 140.0435,71.7524 C140.0435,71.0794 140.5895,70.5334 141.2625,70.5334 C141.9355,70.5334 142.4815,71.0794 142.4815,71.7524" id="Fill-129" fill="#373D41"></path>
            <path d="M115.6732,87.7209 C115.6732,88.3939 115.1272,88.9399 114.4542,88.9399 C113.7812,88.9399 113.2352,88.3939 113.2352,87.7209 C113.2352,87.0479 113.7812,86.5019 114.4542,86.5019 C115.1272,86.5019 115.6732,87.0479 115.6732,87.7209" id="Fill-131" fill="#777F84"></path>
            <path d="M115.6732,55.6834 C115.6732,56.3564 115.1272,56.9024 114.4542,56.9024 C113.7812,56.9024 113.2352,56.3564 113.2352,55.6834 C113.2352,55.0104 113.7812,54.4644 114.4542,54.4644 C115.1272,54.4644 115.6732,55.0104 115.6732,55.6834" id="Fill-133" fill="#373D41"></path>
            <use id="Rectangle" stroke="#7A7A7A" mask="url(#mask-2)" stroke-width="1.4" xlink:href="#path-1"></use>
            <polygon id="Fill-135" fill-opacity="0.5" fill="#D8D8D8" points="0.7421 36.2954 0.7421 72.9024 116.9251 140.0074 116.9251 103.4294"></polygon>
            <polygon id="Fill-137" fill-opacity="0.2" fill="#D8D8D8" points="0.9765 36.061 61.4175 0.201 176.1455 67.564 117.1595 103.195"></polygon>
            <polygon id="Stroke-139" stroke="#7A7A7A" stroke-width="0.75" points="0.7421 36.2954 61.1831 0.4354 175.9111 67.7984 116.9251 103.4294"></polygon>
            <polygon id="Fill-1" fill-opacity="0.699999988" fill="#BABABA" points="175.327637 68.4755859 175.327637 105.023926 117.75 139.753906 117.75 103.4899"></polygon>
            <path d="M0.7421,73.3176 L0.7421,36.2956" id="Stroke-141" stroke="#7A7A7A" stroke-width="0.75"></path>
        </g>
        <g id="Page-1" transform="translate(309.000000, 272.007812) scale(-1, -1) translate(-309.000000, -272.007812) translate(252.000000, 258.507812)">
            <polyline id="Stroke-1" stroke="#06A79C" stroke-linecap="round" stroke-dasharray="3" points="110.0207 20.6942 74.9757 0.7502 41.6877 0.7502 0.3917 26.0582"></polyline>
            <polygon id="Fill-3" fill="#06A79C" points="101.9061 21.8804 113.3651 23.3884 111.0191 16.2304"></polygon>
        </g>
        <g id="Page-1-Copy-2" transform="translate(77.000000, 141.007812)">
            <polygon id="Stroke-1" stroke="#7A7A7A" stroke-width="0.75" points="0.7421 73.3176 61.1831 37.4576 175.9111 104.8206 116.9251 140.4516"></polygon>
            <path d="M39.4584,61.4756 L63.9894,47.2856 C64.7554,46.8426 65.6994,46.8416 66.4664,47.2836 L90.7624,61.2826 C91.7604,61.8576 91.7604,63.2966 90.7624,63.8716 L66.4684,77.8696 C65.7004,78.3126 64.7544,78.3106 63.9884,77.8666 L39.4574,63.6356 C38.6274,63.1536 38.6284,61.9556 39.4584,61.4756" id="Fill-3" fill="#FFFFFF"></path>
            <path d="M39.4584,65.3792 L63.9894,51.1892 C64.7554,50.7462 65.6994,50.7452 66.4664,51.1872 L90.7624,65.1862 C91.7604,65.7612 91.7604,67.2002 90.7624,67.7752 L66.4684,81.7732 C65.7004,82.2162 64.7544,82.2142 63.9884,81.7702 L39.4574,67.5392 C38.6274,67.0572 38.6284,65.8592 39.4584,65.3792" id="Fill-5" fill="#FFFFFF"></path>
            <path d="M91.2548,61.3382 L66.6608,46.9582 C65.7548,46.4292 64.6338,46.4292 63.7288,46.9582 L39.1348,61.3382 C38.6398,61.6272 38.3928,62.1292 38.3928,62.6302 L38.3928,74.8662 C38.3928,75.3682 38.6398,75.8702 39.1348,76.1582 L63.7288,90.5382 C64.6338,91.0672 65.7548,91.0672 66.6608,90.5382 L91.2548,76.1582 C91.7488,75.8702 91.9958,75.3682 91.9958,74.8662 L91.9958,62.6302 C91.9958,62.1282 91.7488,61.6272 91.2548,61.3382" id="Fill-7" fill="#BABABA"></path>
            <path d="M66.6606,46.9585 C65.7546,46.4285 64.6346,46.4285 63.7286,46.9585 L39.1346,61.3385 C38.6396,61.6275 38.3936,62.1285 38.3936,62.6305 L38.3936,74.8665 C38.3936,75.3675 38.6396,75.8695 39.1346,76.1585 L63.7286,90.5385 C64.6346,91.0675 64.2886,91.4645 65.1946,90.9355 L65.1946,69.9725 C65.1946,69.4705 66.6606,46.9585 66.6606,46.9585" id="Fill-9" fill="#D8D8D8"></path>
            <path d="M39.4584,61.4756 L63.9894,47.2856 C64.7554,46.8426 65.6994,46.8416 66.4664,47.2836 L90.7624,61.2826 C91.7604,61.8576 91.7604,63.2966 90.7624,63.8716 L66.4684,77.8696 C65.7004,78.3126 64.7544,78.3106 63.9884,77.8666 L39.4574,63.6356 C38.6274,63.1536 38.6284,61.9556 39.4584,61.4756" id="Fill-11" fill="#FFFFFF"></path>
            <path d="M91.0973,61.346 C92.0793,61.92 92.0793,63.34 91.0973,63.914 L66.6603,78.202 C65.7553,78.731 64.6343,78.731 63.7283,78.202 L39.2913,63.914 C38.3093,63.34 38.3093,61.92 39.2913,61.346" id="Stroke-13" stroke="#777F84" stroke-width="0.75"></path>
            <path d="M91.7724,65.305 C91.9554,65.925 91.7304,66.646 91.0974,67.016 L66.6604,81.304 C65.7544,81.833 64.6344,81.833 63.7284,81.304 L39.2914,67.016 C38.6914,66.665 38.4574,65.998 38.5914,65.402" id="Stroke-15" stroke="#777F84" stroke-width="0.5"></path>
            <path d="M65.1732,91.169 L65.1732,81.77" id="Stroke-17" stroke="#777F84" stroke-width="0.5"></path>
            <path d="M91.2548,61.3382 L66.6608,46.9582 C65.7548,46.4292 64.6338,46.4292 63.7288,46.9582 L39.1348,61.3382 C38.6398,61.6272 38.3928,62.1292 38.3928,62.6302 L38.3928,74.8662 C38.3928,75.3682 38.6398,75.8702 39.1348,76.1582 L63.7288,90.5382 C64.6338,91.0672 65.7548,91.0672 66.6608,90.5382 L91.2548,76.1582 C91.7488,75.8702 91.9958,75.3682 91.9958,74.8662 L91.9958,62.6302 C91.9958,62.1282 91.7488,61.6272 91.2548,61.3382 Z" id="Stroke-19" stroke="#373D41"></path>
            <path d="M39.6124,62.6303 C39.6124,63.3033 39.0664,63.8493 38.3934,63.8493 C37.7204,63.8493 37.1744,63.3033 37.1744,62.6303 C37.1744,61.9573 37.7204,61.4113 38.3934,61.4113 C39.0664,61.4113 39.6124,61.9573 39.6124,62.6303" id="Fill-21" fill="#373D41"></path>
            <path d="M39.6124,75.5747 C39.6124,76.2477 39.0664,76.7937 38.3934,76.7937 C37.7204,76.7937 37.1744,76.2477 37.1744,75.5747 C37.1744,74.9017 37.7204,74.3557 38.3934,74.3557 C39.0664,74.3557 39.6124,74.9017 39.6124,75.5747" id="Fill-23" fill="#373D41"></path>
            <path d="M66.4066,90.9352 C66.4066,91.6082 65.8606,92.1542 65.1876,92.1542 C64.5146,92.1542 63.9686,91.6082 63.9686,90.9352 C63.9686,90.2622 64.5146,89.7162 65.1876,89.7162 C65.8606,89.7162 66.4066,90.2622 66.4066,90.9352" id="Fill-25" fill="#373D41"></path>
            <path d="M93.2149,75.5747 C93.2149,76.2477 92.6689,76.7937 91.9959,76.7937 C91.3229,76.7937 90.7769,76.2477 90.7769,75.5747 C90.7769,74.9017 91.3229,74.3557 91.9959,74.3557 C92.6689,74.3557 93.2149,74.9017 93.2149,75.5747" id="Fill-27" fill="#373D41"></path>
            <path d="M93.2149,62.6303 C93.2149,63.3033 92.6689,63.8493 91.9959,63.8493 C91.3229,63.8493 90.7769,63.3033 90.7769,62.6303 C90.7769,61.9573 91.3229,61.4113 91.9959,61.4113 C92.6689,61.4113 93.2149,61.9573 93.2149,62.6303" id="Fill-29" fill="#373D41"></path>
            <path d="M66.4066,78.5988 C66.4066,79.2718 65.8606,79.8178 65.1876,79.8178 C64.5146,79.8178 63.9686,79.2718 63.9686,78.5988 C63.9686,77.9258 64.5146,77.3798 65.1876,77.3798 C65.8606,77.3798 66.4066,77.9258 66.4066,78.5988" id="Fill-31" fill="#777F84"></path>
            <path d="M66.4066,46.5613 C66.4066,47.2343 65.8606,47.7803 65.1876,47.7803 C64.5146,47.7803 63.9686,47.2343 63.9686,46.5613 C63.9686,45.8883 64.5146,45.3423 65.1876,45.3423 C65.8606,45.3423 66.4066,45.8883 66.4066,46.5613" id="Fill-33" fill="#373D41"></path>
            <path d="M39.4584,41.4636 L63.9894,27.2736 C64.7554,26.8306 65.6994,26.8296 66.4664,27.2716 L90.7624,41.2706 C91.7604,41.8456 91.7604,43.2846 90.7624,43.8596 L66.4684,57.8576 C65.7004,58.3006 64.7544,58.2986 63.9884,57.8546 L39.4574,43.6236 C38.6274,43.1416 38.6284,41.9436 39.4584,41.4636" id="Fill-37" fill="#FFFFFF"></path>
            <path d="M39.4584,45.3672 L63.9894,31.1772 C64.7554,30.7342 65.6994,30.7332 66.4664,31.1752 L90.7624,45.1742 C91.7604,45.7492 91.7604,47.1882 90.7624,47.7632 L66.4684,61.7612 C65.7004,62.2042 64.7544,62.2022 63.9884,61.7582 L39.4574,47.5272 C38.6274,47.0452 38.6284,45.8472 39.4584,45.3672" id="Fill-39" fill="#FFFFFF"></path>
            <path d="M91.2548,41.3262 L66.6608,26.9462 C65.7548,26.4172 64.6338,26.4172 63.7288,26.9462 L39.1348,41.3262 C38.6398,41.6152 38.3928,42.1172 38.3928,42.6182 L38.3928,54.8542 C38.3928,55.3562 38.6398,55.8582 39.1348,56.1462 L63.7288,70.5262 C64.6338,71.0552 65.7548,71.0552 66.6608,70.5262 L91.2548,56.1462 C91.7488,55.8582 91.9958,55.3562 91.9958,54.8542 L91.9958,42.6182 C91.9958,42.1162 91.7488,41.6152 91.2548,41.3262" id="Fill-41" fill="#BABABA"></path>
            <path d="M66.6606,26.9465 C65.7546,26.4165 64.6346,26.4165 63.7286,26.9465 L39.1346,41.3265 C38.6396,41.6155 38.3936,42.1165 38.3936,42.6185 L38.3936,54.8545 C38.3936,55.3555 38.6396,55.8575 39.1346,56.1465 L63.7286,70.5265 C64.6346,71.0555 64.2886,71.4525 65.1946,70.9235 L65.1946,49.9605 C65.1946,49.4585 66.6606,26.9465 66.6606,26.9465" id="Fill-43" fill="#D8D8D8"></path>
            <path d="M39.4584,41.4636 L63.9894,27.2736 C64.7554,26.8306 65.6994,26.8296 66.4664,27.2716 L90.7624,41.2706 C91.7604,41.8456 91.7604,43.2846 90.7624,43.8596 L66.4684,57.8576 C65.7004,58.3006 64.7544,58.2986 63.9884,57.8546 L39.4574,43.6236 C38.6274,43.1416 38.6284,41.9436 39.4584,41.4636" id="Fill-45" fill="#FFFFFF"></path>
            <path d="M91.0973,41.334 C92.0793,41.908 92.0793,43.328 91.0973,43.902 L66.6603,58.19 C65.7553,58.719 64.6343,58.719 63.7283,58.19 L39.2913,43.902 C38.3093,43.328 38.3093,41.908 39.2913,41.334" id="Stroke-47" stroke="#777F84" stroke-width="0.75"></path>
            <path d="M91.7724,45.293 C91.9554,45.913 91.7304,46.634 91.0974,47.004 L66.6604,61.292 C65.7544,61.821 64.6344,61.821 63.7284,61.292 L39.2914,47.004 C38.6914,46.653 38.4574,45.986 38.5914,45.39" id="Stroke-49" stroke="#777F84" stroke-width="0.5"></path>
            <path d="M65.1732,71.157 L65.1732,61.758" id="Stroke-51" stroke="#777F84" stroke-width="0.5"></path>
            <path d="M91.2548,41.3262 L66.6608,26.9462 C65.7548,26.4172 64.6338,26.4172 63.7288,26.9462 L39.1348,41.3262 C38.6398,41.6152 38.3928,42.1172 38.3928,42.6182 L38.3928,54.8542 C38.3928,55.3562 38.6398,55.8582 39.1348,56.1462 L63.7288,70.5262 C64.6338,71.0552 65.7548,71.0552 66.6608,70.5262 L91.2548,56.1462 C91.7488,55.8582 91.9958,55.3562 91.9958,54.8542 L91.9958,42.6182 C91.9958,42.1162 91.7488,41.6152 91.2548,41.3262 Z" id="Stroke-53" stroke="#373D41"></path>
            <path d="M39.6124,42.6183 C39.6124,43.2913 39.0664,43.8373 38.3934,43.8373 C37.7204,43.8373 37.1744,43.2913 37.1744,42.6183 C37.1744,41.9453 37.7204,41.3993 38.3934,41.3993 C39.0664,41.3993 39.6124,41.9453 39.6124,42.6183" id="Fill-55" fill="#373D41"></path>
            <path d="M39.6124,55.5628 C39.6124,56.2358 39.0664,56.7818 38.3934,56.7818 C37.7204,56.7818 37.1744,56.2358 37.1744,55.5628 C37.1744,54.8898 37.7204,54.3438 38.3934,54.3438 C39.0664,54.3438 39.6124,54.8898 39.6124,55.5628" id="Fill-57" fill="#373D41"></path>
            <path d="M66.4066,70.9232 C66.4066,71.5962 65.8606,72.1422 65.1876,72.1422 C64.5146,72.1422 63.9686,71.5962 63.9686,70.9232 C63.9686,70.2502 64.5146,69.7042 65.1876,69.7042 C65.8606,69.7042 66.4066,70.2502 66.4066,70.9232" id="Fill-59" fill="#373D41"></path>
            <path d="M93.2149,55.5628 C93.2149,56.2358 92.6689,56.7818 91.9959,56.7818 C91.3229,56.7818 90.7769,56.2358 90.7769,55.5628 C90.7769,54.8898 91.3229,54.3438 91.9959,54.3438 C92.6689,54.3438 93.2149,54.8898 93.2149,55.5628" id="Fill-61" fill="#373D41"></path>
            <path d="M93.2149,42.6183 C93.2149,43.2913 92.6689,43.8373 91.9959,43.8373 C91.3229,43.8373 90.7769,43.2913 90.7769,42.6183 C90.7769,41.9453 91.3229,41.3993 91.9959,41.3993 C92.6689,41.3993 93.2149,41.9453 93.2149,42.6183" id="Fill-63" fill="#373D41"></path>
            <path d="M66.4066,58.5868 C66.4066,59.2598 65.8606,59.8058 65.1876,59.8058 C64.5146,59.8058 63.9686,59.2598 63.9686,58.5868 C63.9686,57.9138 64.5146,57.3678 65.1876,57.3678 C65.8606,57.3678 66.4066,57.9138 66.4066,58.5868" id="Fill-65" fill="#777F84"></path>
            <path d="M66.4066,26.5493 C66.4066,27.2223 65.8606,27.7683 65.1876,27.7683 C64.5146,27.7683 63.9686,27.2223 63.9686,26.5493 C63.9686,25.8763 64.5146,25.3303 65.1876,25.3303 C65.8606,25.3303 66.4066,25.8763 66.4066,26.5493" id="Fill-67" fill="#373D41"></path>
            <path d="M88.725,90.6097 L113.256,76.4197 C114.022,75.9767 114.966,75.9757 115.733,76.4177 L140.029,90.4167 C141.027,90.9917 141.027,92.4307 140.029,93.0057 L115.735,107.0037 C114.967,107.4467 114.021,107.4447 113.255,107.0007 L88.724,92.7697 C87.894,92.2877 87.895,91.0897 88.725,90.6097" id="Fill-69" fill="#FFFFFF"></path>
            <path d="M88.725,94.5134 L113.256,80.3234 C114.022,79.8804 114.966,79.8794 115.733,80.3214 L140.029,94.3204 C141.027,94.8954 141.027,96.3344 140.029,96.9094 L115.735,110.9074 C114.967,111.3504 114.021,111.3484 113.255,110.9044 L88.724,96.6734 C87.894,96.1914 87.895,94.9934 88.725,94.5134" id="Fill-71" fill="#FFFFFF"></path>
            <path d="M140.5214,90.4723 L115.9274,76.0923 C115.0214,75.5633 113.9004,75.5633 112.9954,76.0923 L88.4014,90.4723 C87.9064,90.7613 87.6594,91.2633 87.6594,91.7643 L87.6594,104.0003 C87.6594,104.5023 87.9064,105.0043 88.4014,105.2923 L112.9954,119.6723 C113.9004,120.2013 115.0214,120.2013 115.9274,119.6723 L140.5214,105.2923 C141.0154,105.0043 141.2624,104.5023 141.2624,104.0003 L141.2624,91.7643 C141.2624,91.2623 141.0154,90.7613 140.5214,90.4723" id="Fill-73" fill="#BABABA"></path>
            <path d="M115.9272,76.0926 C115.0212,75.5626 113.9012,75.5626 112.9952,76.0926 L88.4012,90.4726 C87.9062,90.7616 87.6602,91.2626 87.6602,91.7646 L87.6602,104.0006 C87.6602,104.5016 87.9062,105.0036 88.4012,105.2926 L112.9952,119.6726 C113.9012,120.2016 113.5552,120.5986 114.4612,120.0696 L114.4612,99.1066 C114.4612,98.6046 115.9272,76.0926 115.9272,76.0926" id="Fill-75" fill="#D8D8D8"></path>
            <path d="M88.725,90.6097 L113.256,76.4197 C114.022,75.9767 114.966,75.9757 115.733,76.4177 L140.029,90.4167 C141.027,90.9917 141.027,92.4307 140.029,93.0057 L115.735,107.0037 C114.967,107.4467 114.021,107.4447 113.255,107.0007 L88.724,92.7697 C87.894,92.2877 87.895,91.0897 88.725,90.6097" id="Fill-77" fill="#FFFFFF"></path>
            <path d="M140.3639,90.4801 C141.3459,91.0541 141.3459,92.4741 140.3639,93.0481 L115.9269,107.3361 C115.0219,107.8651 113.9009,107.8651 112.9949,107.3361 L88.5579,93.0481 C87.5759,92.4741 87.5759,91.0541 88.5579,90.4801" id="Stroke-79" stroke="#777F84" stroke-width="0.75"></path>
            <path d="M141.039,94.4392 C141.222,95.0592 140.997,95.7802 140.364,96.1502 L115.927,110.4382 C115.021,110.9672 113.901,110.9672 112.995,110.4382 L88.558,96.1502 C87.958,95.7992 87.724,95.1322 87.858,94.5362" id="Stroke-81" stroke="#777F84" stroke-width="0.5"></path>
            <path d="M114.4398,120.3031 L114.4398,110.9041" id="Stroke-83" stroke="#777F84" stroke-width="0.5"></path>
            <path d="M140.5214,90.4723 L115.9274,76.0923 C115.0214,75.5633 113.9004,75.5633 112.9954,76.0923 L88.4014,90.4723 C87.9064,90.7613 87.6594,91.2633 87.6594,91.7643 L87.6594,104.0003 C87.6594,104.5023 87.9064,105.0043 88.4014,105.2923 L112.9954,119.6723 C113.9004,120.2013 115.0214,120.2013 115.9274,119.6723 L140.5214,105.2923 C141.0154,105.0043 141.2624,104.5023 141.2624,104.0003 L141.2624,91.7643 C141.2624,91.2623 141.0154,90.7613 140.5214,90.4723 Z" id="Stroke-85" stroke="#373D41"></path>
            <path d="M88.879,91.7644 C88.879,92.4374 88.333,92.9834 87.66,92.9834 C86.987,92.9834 86.441,92.4374 86.441,91.7644 C86.441,91.0914 86.987,90.5454 87.66,90.5454 C88.333,90.5454 88.879,91.0914 88.879,91.7644" id="Fill-87" fill="#373D41"></path>
            <path d="M88.879,104.7089 C88.879,105.3819 88.333,105.9279 87.66,105.9279 C86.987,105.9279 86.441,105.3819 86.441,104.7089 C86.441,104.0359 86.987,103.4899 87.66,103.4899 C88.333,103.4899 88.879,104.0359 88.879,104.7089" id="Fill-89" fill="#373D41"></path>
            <path d="M115.6732,120.0693 C115.6732,120.7423 115.1272,121.2883 114.4542,121.2883 C113.7812,121.2883 113.2352,120.7423 113.2352,120.0693 C113.2352,119.3963 113.7812,118.8503 114.4542,118.8503 C115.1272,118.8503 115.6732,119.3963 115.6732,120.0693" id="Fill-91" fill="#373D41"></path>
            <path d="M142.4815,104.7089 C142.4815,105.3819 141.9355,105.9279 141.2625,105.9279 C140.5895,105.9279 140.0435,105.3819 140.0435,104.7089 C140.0435,104.0359 140.5895,103.4899 141.2625,103.4899 C141.9355,103.4899 142.4815,104.0359 142.4815,104.7089" id="Fill-93" fill="#373D41"></path>
            <path d="M142.4815,91.7644 C142.4815,92.4374 141.9355,92.9834 141.2625,92.9834 C140.5895,92.9834 140.0435,92.4374 140.0435,91.7644 C140.0435,91.0914 140.5895,90.5454 141.2625,90.5454 C141.9355,90.5454 142.4815,91.0914 142.4815,91.7644" id="Fill-95" fill="#373D41"></path>
            <path d="M115.6732,107.7329 C115.6732,108.4059 115.1272,108.9519 114.4542,108.9519 C113.7812,108.9519 113.2352,108.4059 113.2352,107.7329 C113.2352,107.0599 113.7812,106.5139 114.4542,106.5139 C115.1272,106.5139 115.6732,107.0599 115.6732,107.7329" id="Fill-97" fill="#777F84"></path>
            <path d="M115.6732,75.6954 C115.6732,76.3684 115.1272,76.9144 114.4542,76.9144 C113.7812,76.9144 113.2352,76.3684 113.2352,75.6954 C113.2352,75.0224 113.7812,74.4764 114.4542,74.4764 C115.1272,74.4764 115.6732,75.0224 115.6732,75.6954" id="Fill-99" fill="#373D41"></path>
            <path d="M88.725,70.5977 L113.256,56.4077 C114.022,55.9647 114.966,55.9637 115.733,56.4057 L140.029,70.4047 C141.027,70.9797 141.027,72.4187 140.029,72.9937 L115.735,86.9917 C114.967,87.4347 114.021,87.4327 113.255,86.9887 L88.724,72.7577 C87.894,72.2757 87.895,71.0777 88.725,70.5977" id="Fill-103" fill="#FFFFFF"></path>
            <path d="M88.725,74.5013 L113.256,60.3113 C114.022,59.8683 114.966,59.8673 115.733,60.3093 L140.029,74.3083 C141.027,74.8833 141.027,76.3223 140.029,76.8973 L115.735,90.8953 C114.967,91.3383 114.021,91.3363 113.255,90.8923 L88.724,76.6613 C87.894,76.1793 87.895,74.9813 88.725,74.5013" id="Fill-105" fill="#FFFFFF"></path>
            <path d="M140.5214,70.4603 L115.9274,56.0803 C115.0214,55.5513 113.9004,55.5513 112.9954,56.0803 L88.4014,70.4603 C87.9064,70.7493 87.6594,71.2513 87.6594,71.7523 L87.6594,83.9883 C87.6594,84.4903 87.9064,84.9923 88.4014,85.2803 L112.9954,99.6603 C113.9004,100.1893 115.0214,100.1893 115.9274,99.6603 L140.5214,85.2803 C141.0154,84.9923 141.2624,84.4903 141.2624,83.9883 L141.2624,71.7523 C141.2624,71.2503 141.0154,70.7493 140.5214,70.4603" id="Fill-107" fill="#BABABA"></path>
            <path d="M115.9272,56.0806 C115.0212,55.5506 113.9012,55.5506 112.9952,56.0806 L88.4012,70.4606 C87.9062,70.7496 87.6602,71.2506 87.6602,71.7526 L87.6602,83.9886 C87.6602,84.4896 87.9062,84.9916 88.4012,85.2806 L112.9952,99.6606 C113.9012,100.1896 113.5552,100.5866 114.4612,100.0576 L114.4612,79.0946 C114.4612,78.5926 115.9272,56.0806 115.9272,56.0806" id="Fill-109" fill="#D8D8D8"></path>
            <path d="M88.725,70.5977 L113.256,56.4077 C114.022,55.9647 114.966,55.9637 115.733,56.4057 L140.029,70.4047 C141.027,70.9797 141.027,72.4187 140.029,72.9937 L115.735,86.9917 C114.967,87.4347 114.021,87.4327 113.255,86.9887 L88.724,72.7577 C87.894,72.2757 87.895,71.0777 88.725,70.5977" id="Fill-111" fill="#FFFFFF"></path>
            <path d="M140.3639,70.4681 C141.3459,71.0421 141.3459,72.4621 140.3639,73.0361 L115.9269,87.3241 C115.0219,87.8531 113.9009,87.8531 112.9949,87.3241 L88.5579,73.0361 C87.5759,72.4621 87.5759,71.0421 88.5579,70.4681" id="Stroke-113" stroke="#777F84" stroke-width="0.75"></path>
            <path d="M141.039,74.4272 C141.222,75.0472 140.997,75.7682 140.364,76.1382 L115.927,90.4262 C115.021,90.9552 113.901,90.9552 112.995,90.4262 L88.558,76.1382 C87.958,75.7872 87.724,75.1202 87.858,74.5242" id="Stroke-115" stroke="#777F84" stroke-width="0.5"></path>
            <path d="M114.4398,100.2911 L114.4398,90.8921" id="Stroke-117" stroke="#777F84" stroke-width="0.5"></path>
            <path d="M140.5214,70.4603 L115.9274,56.0803 C115.0214,55.5513 113.9004,55.5513 112.9954,56.0803 L88.4014,70.4603 C87.9064,70.7493 87.6594,71.2513 87.6594,71.7523 L87.6594,83.9883 C87.6594,84.4903 87.9064,84.9923 88.4014,85.2803 L112.9954,99.6603 C113.9004,100.1893 115.0214,100.1893 115.9274,99.6603 L140.5214,85.2803 C141.0154,84.9923 141.2624,84.4903 141.2624,83.9883 L141.2624,71.7523 C141.2624,71.2503 141.0154,70.7493 140.5214,70.4603 Z" id="Stroke-119" stroke="#373D41"></path>
            <path d="M88.879,71.7524 C88.879,72.4254 88.333,72.9714 87.66,72.9714 C86.987,72.9714 86.441,72.4254 86.441,71.7524 C86.441,71.0794 86.987,70.5334 87.66,70.5334 C88.333,70.5334 88.879,71.0794 88.879,71.7524" id="Fill-121" fill="#373D41"></path>
            <path d="M88.879,84.6969 C88.879,85.3699 88.333,85.9159 87.66,85.9159 C86.987,85.9159 86.441,85.3699 86.441,84.6969 C86.441,84.0239 86.987,83.4779 87.66,83.4779 C88.333,83.4779 88.879,84.0239 88.879,84.6969" id="Fill-123" fill="#373D41"></path>
            <path d="M115.6732,100.0573 C115.6732,100.7303 115.1272,101.2763 114.4542,101.2763 C113.7812,101.2763 113.2352,100.7303 113.2352,100.0573 C113.2352,99.3843 113.7812,98.8383 114.4542,98.8383 C115.1272,98.8383 115.6732,99.3843 115.6732,100.0573" id="Fill-125" fill="#373D41"></path>
            <path d="M142.4815,84.6969 C142.4815,85.3699 141.9355,85.9159 141.2625,85.9159 C140.5895,85.9159 140.0435,85.3699 140.0435,84.6969 C140.0435,84.0239 140.5895,83.4779 141.2625,83.4779 C141.9355,83.4779 142.4815,84.0239 142.4815,84.6969" id="Fill-127" fill="#373D41"></path>
            <path d="M142.4815,71.7524 C142.4815,72.4254 141.9355,72.9714 141.2625,72.9714 C140.5895,72.9714 140.0435,72.4254 140.0435,71.7524 C140.0435,71.0794 140.5895,70.5334 141.2625,70.5334 C141.9355,70.5334 142.4815,71.0794 142.4815,71.7524" id="Fill-129" fill="#373D41"></path>
            <path d="M115.6732,87.7209 C115.6732,88.3939 115.1272,88.9399 114.4542,88.9399 C113.7812,88.9399 113.2352,88.3939 113.2352,87.7209 C113.2352,87.0479 113.7812,86.5019 114.4542,86.5019 C115.1272,86.5019 115.6732,87.0479 115.6732,87.7209" id="Fill-131" fill="#777F84"></path>
            <path d="M115.6732,55.6834 C115.6732,56.3564 115.1272,56.9024 114.4542,56.9024 C113.7812,56.9024 113.2352,56.3564 113.2352,55.6834 C113.2352,55.0104 113.7812,54.4644 114.4542,54.4644 C115.1272,54.4644 115.6732,55.0104 115.6732,55.6834" id="Fill-133" fill="#373D41"></path>
            <use id="Rectangle" stroke="#7A7A7A" mask="url(#mask-4)" stroke-width="1.4" xlink:href="#path-3"></use>
            <polygon id="Fill-135" fill-opacity="0.5" fill="#D8D8D8" points="0.7421 36.2954 0.7421 72.9024 116.9251 140.0074 116.9251 103.4294"></polygon>
            <polygon id="Fill-137" fill-opacity="0.2" fill="#D8D8D8" points="0.9765 36.061 61.4175 0.201 176.1455 67.564 117.1595 103.195"></polygon>
            <polygon id="Stroke-139" stroke="#7A7A7A" stroke-width="0.75" points="0.7421 36.2954 61.1831 0.4354 175.9111 67.7984 116.9251 103.4294"></polygon>
            <polygon id="Fill-1" fill-opacity="0.699999988" fill="#BABABA" points="175.327637 68.4755859 175.327637 105.023926 117.75 139.753906 117.75 103.4899"></polygon>
            <path d="M0.7421,73.3176 L0.7421,36.2956" id="Stroke-141" stroke="#7A7A7A" stroke-width="0.75"></path>
        </g>
        <g id="Group-2-Copy-2" transform="translate(0.100000, 279.000000)" fill="#06A79C" fill-opacity="0.2">
            <ellipse id="Oval-2" cx="59.6757051" cy="29.1450476" rx="58.752" ry="28.8"></ellipse>
        </g>
        <g id="Page-1" transform="translate(31.914431, 282.007812)">
            <path d="M2.2844,16.1334 L26.8154,1.9434 C27.5814,1.5004 28.5254,1.4994 29.2924,1.9414 L53.5884,15.9404 C54.5864,16.5154 54.5864,17.9544 53.5884,18.5294 L29.2944,32.5274 C28.5264,32.9704 27.5804,32.9684 26.8144,32.5244 L2.2834,18.2934 C1.4534,17.8114 1.4544,16.6134 2.2844,16.1334" id="Fill-1" fill="#FFFFFF"></path>
            <path d="M2.2844,20.0371 L26.8154,5.8471 C27.5814,5.4041 28.5254,5.4031 29.2924,5.8451 L53.5884,19.8441 C54.5864,20.4191 54.5864,21.8581 53.5884,22.4331 L29.2944,36.4311 C28.5264,36.8741 27.5804,36.8721 26.8144,36.4281 L2.2834,22.1971 C1.4534,21.7151 1.4544,20.5171 2.2844,20.0371" id="Fill-3" fill="#FFFFFF"></path>
            <path d="M54.0807,15.996 L29.4867,1.616 C28.5807,1.087 27.4597,1.087 26.5547,1.616 L1.9607,15.996 C1.4657,16.285 1.2187,16.787 1.2187,17.288 L1.2187,29.524 C1.2187,30.026 1.4657,30.528 1.9607,30.816 L26.5547,45.196 C27.4597,45.725 28.5807,45.725 29.4867,45.196 L54.0807,30.816 C54.5747,30.528 54.8217,30.026 54.8217,29.524 L54.8217,17.288 C54.8217,16.786 54.5747,16.285 54.0807,15.996" id="Fill-5" fill="#BABABA"></path>
            <path d="M29.4865,1.6163 C28.5805,1.0863 27.4605,1.0863 26.5545,1.6163 L1.9605,15.9963 C1.4655,16.2853 1.2195,16.7863 1.2195,17.2883 L1.2195,29.5243 C1.2195,30.0253 1.4655,30.5273 1.9605,30.8163 L26.5545,45.1963 C27.4605,45.7253 27.1145,46.1223 28.0205,45.5933 L28.0205,24.6303 C28.0205,24.1283 29.4865,1.6163 29.4865,1.6163" id="Fill-7" fill="#D8D8D8"></path>
            <path d="M2.2844,16.1334 L26.8154,1.9434 C27.5814,1.5004 28.5254,1.4994 29.2924,1.9414 L53.5884,15.9404 C54.5864,16.5154 54.5864,17.9544 53.5884,18.5294 L29.2944,32.5274 C28.5264,32.9704 27.5804,32.9684 26.8144,32.5244 L2.2834,18.2934 C1.4534,17.8114 1.4544,16.6134 2.2844,16.1334" id="Fill-9" fill="#FFFFFF"></path>
            <path d="M53.9233,16.0039 C54.9053,16.5779 54.9053,17.9979 53.9233,18.5719 L29.4863,32.8599 C28.5813,33.3889 27.4603,33.3889 26.5543,32.8599 L2.1173,18.5719 C1.1353,17.9979 1.1353,16.5779 2.1173,16.0039" id="Stroke-11" stroke="#777F84" stroke-width="0.75"></path>
            <path d="M54.5984,19.9629 C54.7814,20.5829 54.5564,21.3039 53.9234,21.6739 L29.4864,35.9619 C28.5804,36.4909 27.4604,36.4909 26.5544,35.9619 L2.1174,21.6739 C1.5174,21.3229 1.2834,20.6559 1.4174,20.0599" id="Stroke-13" stroke="#777F84" stroke-width="0.5"></path>
            <path d="M27.9991,45.8269 L27.9991,36.4279" id="Stroke-15" stroke="#777F84" stroke-width="0.5"></path>
            <path d="M54.0807,15.996 L29.4867,1.616 C28.5807,1.087 27.4597,1.087 26.5547,1.616 L1.9607,15.996 C1.4657,16.285 1.2187,16.787 1.2187,17.288 L1.2187,29.524 C1.2187,30.026 1.4657,30.528 1.9607,30.816 L26.5547,45.196 C27.4597,45.725 28.5807,45.725 29.4867,45.196 L54.0807,30.816 C54.5747,30.528 54.8217,30.026 54.8217,29.524 L54.8217,17.288 C54.8217,16.786 54.5747,16.285 54.0807,15.996 Z" id="Stroke-17" stroke="#373D41"></path>
            <path d="M2.4383,17.2882 C2.4383,17.9612 1.8923,18.5072 1.2193,18.5072 C0.5463,18.5072 0.0003,17.9612 0.0003,17.2882 C0.0003,16.6152 0.5463,16.0692 1.2193,16.0692 C1.8923,16.0692 2.4383,16.6152 2.4383,17.2882" id="Fill-19" fill="#373D41"></path>
            <path d="M2.4383,30.2326 C2.4383,30.9056 1.8923,31.4516 1.2193,31.4516 C0.5463,31.4516 0.0003,30.9056 0.0003,30.2326 C0.0003,29.5596 0.5463,29.0136 1.2193,29.0136 C1.8923,29.0136 2.4383,29.5596 2.4383,30.2326" id="Fill-21" fill="#373D41"></path>
            <path d="M29.2326,45.593 C29.2326,46.266 28.6866,46.812 28.0136,46.812 C27.3406,46.812 26.7946,46.266 26.7946,45.593 C26.7946,44.92 27.3406,44.374 28.0136,44.374 C28.6866,44.374 29.2326,44.92 29.2326,45.593" id="Fill-23" fill="#373D41"></path>
            <path d="M56.0408,30.2326 C56.0408,30.9056 55.4948,31.4516 54.8218,31.4516 C54.1488,31.4516 53.6028,30.9056 53.6028,30.2326 C53.6028,29.5596 54.1488,29.0136 54.8218,29.0136 C55.4948,29.0136 56.0408,29.5596 56.0408,30.2326" id="Fill-25" fill="#373D41"></path>
            <path d="M56.0408,17.2882 C56.0408,17.9612 55.4948,18.5072 54.8218,18.5072 C54.1488,18.5072 53.6028,17.9612 53.6028,17.2882 C53.6028,16.6152 54.1488,16.0692 54.8218,16.0692 C55.4948,16.0692 56.0408,16.6152 56.0408,17.2882" id="Fill-27" fill="#373D41"></path>
            <path d="M29.2326,33.2566 C29.2326,33.9296 28.6866,34.4756 28.0136,34.4756 C27.3406,34.4756 26.7946,33.9296 26.7946,33.2566 C26.7946,32.5836 27.3406,32.0376 28.0136,32.0376 C28.6866,32.0376 29.2326,32.5836 29.2326,33.2566" id="Fill-29" fill="#777F84"></path>
            <path d="M29.2326,1.2192 C29.2326,1.8922 28.6866,2.4382 28.0136,2.4382 C27.3406,2.4382 26.7946,1.8922 26.7946,1.2192 C26.7946,0.5462 27.3406,0.0002 28.0136,0.0002 C28.6866,0.0002 29.2326,0.5462 29.2326,1.2192" id="Fill-31" fill="#373D41"></path>
        </g>
        <g id="Page-1" transform="translate(87.000000, 258.000000)">
            <path d="M1.817,22.5308 L37.268,0.6378" id="Stroke-1" stroke="#06A79C" stroke-linecap="round" stroke-dasharray="3"></path>
            <polygon id="Fill-3" fill="#06A79C" points="0 23.9112 12.69 20.2212 5.039 15.9772"></polygon>
        </g>
        <polygon id="Stroke-1" stroke="#7A7A7A" stroke-width="0.75" points="274.7421 185.3176 335.1831 149.4576 449.9111 216.8206 390.9251 252.4516"></polygon>
        <path d="M313.4584,173.4756 L337.9894,159.2856 C338.7554,158.8426 339.6994,158.8416 340.4664,159.2836 L364.7624,173.2826 C365.7604,173.8576 365.7604,175.2966 364.7624,175.8716 L340.4684,189.8696 C339.7004,190.3126 338.7544,190.3106 337.9884,189.8666 L313.4574,175.6356 C312.6274,175.1536 312.6284,173.9556 313.4584,173.4756" id="Fill-3" fill="#FFFFFF"></path>
        <path d="M313.4584,177.3792 L337.9894,163.1892 C338.7554,162.7462 339.6994,162.7452 340.4664,163.1872 L364.7624,177.1862 C365.7604,177.7612 365.7604,179.2002 364.7624,179.7752 L340.4684,193.7732 C339.7004,194.2162 338.7544,194.2142 337.9884,193.7702 L313.4574,179.5392 C312.6274,179.0572 312.6284,177.8592 313.4584,177.3792" id="Fill-5" fill="#FFFFFF"></path>
        <path d="M365.2548,173.3382 L340.6608,158.9582 C339.7548,158.4292 338.6338,158.4292 337.7288,158.9582 L313.1348,173.3382 C312.6398,173.6272 312.3928,174.1292 312.3928,174.6302 L312.3928,186.8662 C312.3928,187.3682 312.6398,187.8702 313.1348,188.1582 L337.7288,202.5382 C338.6338,203.0672 339.7548,203.0672 340.6608,202.5382 L365.2548,188.1582 C365.7488,187.8702 365.9958,187.3682 365.9958,186.8662 L365.9958,174.6302 C365.9958,174.1282 365.7488,173.6272 365.2548,173.3382" id="Fill-7" fill="#BABABA"></path>
        <path d="M340.6606,158.9585 C339.7546,158.4285 338.6346,158.4285 337.7286,158.9585 L313.1346,173.3385 C312.6396,173.6275 312.3936,174.1285 312.3936,174.6305 L312.3936,186.8665 C312.3936,187.3675 312.6396,187.8695 313.1346,188.1585 L337.7286,202.5385 C338.6346,203.0675 338.2886,203.4645 339.1946,202.9355 L339.1946,181.9725 C339.1946,181.4705 340.6606,158.9585 340.6606,158.9585" id="Fill-9" fill="#D8D8D8"></path>
        <path d="M313.4584,173.4756 L337.9894,159.2856 C338.7554,158.8426 339.6994,158.8416 340.4664,159.2836 L364.7624,173.2826 C365.7604,173.8576 365.7604,175.2966 364.7624,175.8716 L340.4684,189.8696 C339.7004,190.3126 338.7544,190.3106 337.9884,189.8666 L313.4574,175.6356 C312.6274,175.1536 312.6284,173.9556 313.4584,173.4756" id="Fill-11" fill="#FFFFFF"></path>
        <path d="M365.0973,173.346 C366.0793,173.92 366.0793,175.34 365.0973,175.914 L340.6603,190.202 C339.7553,190.731 338.6343,190.731 337.7283,190.202 L313.2913,175.914 C312.3093,175.34 312.3093,173.92 313.2913,173.346" id="Stroke-13" stroke="#777F84" stroke-width="0.75"></path>
        <path d="M365.7724,177.305 C365.9554,177.925 365.7304,178.646 365.0974,179.016 L340.6604,193.304 C339.7544,193.833 338.6344,193.833 337.7284,193.304 L313.2914,179.016 C312.6914,178.665 312.4574,177.998 312.5914,177.402" id="Stroke-15" stroke="#777F84" stroke-width="0.5"></path>
        <path d="M339.1732,203.169 L339.1732,193.77" id="Stroke-17" stroke="#777F84" stroke-width="0.5"></path>
        <path d="M365.2548,173.3382 L340.6608,158.9582 C339.7548,158.4292 338.6338,158.4292 337.7288,158.9582 L313.1348,173.3382 C312.6398,173.6272 312.3928,174.1292 312.3928,174.6302 L312.3928,186.8662 C312.3928,187.3682 312.6398,187.8702 313.1348,188.1582 L337.7288,202.5382 C338.6338,203.0672 339.7548,203.0672 340.6608,202.5382 L365.2548,188.1582 C365.7488,187.8702 365.9958,187.3682 365.9958,186.8662 L365.9958,174.6302 C365.9958,174.1282 365.7488,173.6272 365.2548,173.3382 Z" id="Stroke-19" stroke="#373D41"></path>
        <path d="M313.6124,174.6303 C313.6124,175.3033 313.0664,175.8493 312.3934,175.8493 C311.7204,175.8493 311.1744,175.3033 311.1744,174.6303 C311.1744,173.9573 311.7204,173.4113 312.3934,173.4113 C313.0664,173.4113 313.6124,173.9573 313.6124,174.6303" id="Fill-21" fill="#373D41"></path>
        <path d="M313.6124,187.5747 C313.6124,188.2477 313.0664,188.7937 312.3934,188.7937 C311.7204,188.7937 311.1744,188.2477 311.1744,187.5747 C311.1744,186.9017 311.7204,186.3557 312.3934,186.3557 C313.0664,186.3557 313.6124,186.9017 313.6124,187.5747" id="Fill-23" fill="#373D41"></path>
        <path d="M340.4066,202.9352 C340.4066,203.6082 339.8606,204.1542 339.1876,204.1542 C338.5146,204.1542 337.9686,203.6082 337.9686,202.9352 C337.9686,202.2622 338.5146,201.7162 339.1876,201.7162 C339.8606,201.7162 340.4066,202.2622 340.4066,202.9352" id="Fill-25" fill="#373D41"></path>
        <path d="M367.2149,187.5747 C367.2149,188.2477 366.6689,188.7937 365.9959,188.7937 C365.3229,188.7937 364.7769,188.2477 364.7769,187.5747 C364.7769,186.9017 365.3229,186.3557 365.9959,186.3557 C366.6689,186.3557 367.2149,186.9017 367.2149,187.5747" id="Fill-27" fill="#373D41"></path>
        <path d="M367.2149,174.6303 C367.2149,175.3033 366.6689,175.8493 365.9959,175.8493 C365.3229,175.8493 364.7769,175.3033 364.7769,174.6303 C364.7769,173.9573 365.3229,173.4113 365.9959,173.4113 C366.6689,173.4113 367.2149,173.9573 367.2149,174.6303" id="Fill-29" fill="#373D41"></path>
        <path d="M340.4066,190.5988 C340.4066,191.2718 339.8606,191.8178 339.1876,191.8178 C338.5146,191.8178 337.9686,191.2718 337.9686,190.5988 C337.9686,189.9258 338.5146,189.3798 339.1876,189.3798 C339.8606,189.3798 340.4066,189.9258 340.4066,190.5988" id="Fill-31" fill="#777F84"></path>
        <path d="M340.4066,158.5613 C340.4066,159.2343 339.8606,159.7803 339.1876,159.7803 C338.5146,159.7803 337.9686,159.2343 337.9686,158.5613 C337.9686,157.8883 338.5146,157.3423 339.1876,157.3423 C339.8606,157.3423 340.4066,157.8883 340.4066,158.5613" id="Fill-33" fill="#373D41"></path>
        <path d="M313.4584,153.4636 L337.9894,139.2736 C338.7554,138.8306 339.6994,138.8296 340.4664,139.2716 L364.7624,153.2706 C365.7604,153.8456 365.7604,155.2846 364.7624,155.8596 L340.4684,169.8576 C339.7004,170.3006 338.7544,170.2986 337.9884,169.8546 L313.4574,155.6236 C312.6274,155.1416 312.6284,153.9436 313.4584,153.4636" id="Fill-37" fill="#FFFFFF"></path>
        <path d="M313.4584,157.3672 L337.9894,143.1772 C338.7554,142.7342 339.6994,142.7332 340.4664,143.1752 L364.7624,157.1742 C365.7604,157.7492 365.7604,159.1882 364.7624,159.7632 L340.4684,173.7612 C339.7004,174.2042 338.7544,174.2022 337.9884,173.7582 L313.4574,159.5272 C312.6274,159.0452 312.6284,157.8472 313.4584,157.3672" id="Fill-39" fill="#FFFFFF"></path>
        <path d="M365.2548,153.3262 L340.6608,138.9462 C339.7548,138.4172 338.6338,138.4172 337.7288,138.9462 L313.1348,153.3262 C312.6398,153.6152 312.3928,154.1172 312.3928,154.6182 L312.3928,166.8542 C312.3928,167.3562 312.6398,167.8582 313.1348,168.1462 L337.7288,182.5262 C338.6338,183.0552 339.7548,183.0552 340.6608,182.5262 L365.2548,168.1462 C365.7488,167.8582 365.9958,167.3562 365.9958,166.8542 L365.9958,154.6182 C365.9958,154.1162 365.7488,153.6152 365.2548,153.3262" id="Fill-41" fill="#BABABA"></path>
        <path d="M340.6606,138.9465 C339.7546,138.4165 338.6346,138.4165 337.7286,138.9465 L313.1346,153.3265 C312.6396,153.6155 312.3936,154.1165 312.3936,154.6185 L312.3936,166.8545 C312.3936,167.3555 312.6396,167.8575 313.1346,168.1465 L337.7286,182.5265 C338.6346,183.0555 338.2886,183.4525 339.1946,182.9235 L339.1946,161.9605 C339.1946,161.4585 340.6606,138.9465 340.6606,138.9465" id="Fill-43" fill="#D8D8D8"></path>
        <path d="M313.4584,153.4636 L337.9894,139.2736 C338.7554,138.8306 339.6994,138.8296 340.4664,139.2716 L364.7624,153.2706 C365.7604,153.8456 365.7604,155.2846 364.7624,155.8596 L340.4684,169.8576 C339.7004,170.3006 338.7544,170.2986 337.9884,169.8546 L313.4574,155.6236 C312.6274,155.1416 312.6284,153.9436 313.4584,153.4636" id="Fill-45" fill="#FFFFFF"></path>
        <path d="M365.0973,153.334 C366.0793,153.908 366.0793,155.328 365.0973,155.902 L340.6603,170.19 C339.7553,170.719 338.6343,170.719 337.7283,170.19 L313.2913,155.902 C312.3093,155.328 312.3093,153.908 313.2913,153.334" id="Stroke-47" stroke="#777F84" stroke-width="0.75"></path>
        <path d="M365.7724,157.293 C365.9554,157.913 365.7304,158.634 365.0974,159.004 L340.6604,173.292 C339.7544,173.821 338.6344,173.821 337.7284,173.292 L313.2914,159.004 C312.6914,158.653 312.4574,157.986 312.5914,157.39" id="Stroke-49" stroke="#777F84" stroke-width="0.5"></path>
        <path d="M339.1732,183.157 L339.1732,173.758" id="Stroke-51" stroke="#777F84" stroke-width="0.5"></path>
        <path d="M365.2548,153.3262 L340.6608,138.9462 C339.7548,138.4172 338.6338,138.4172 337.7288,138.9462 L313.1348,153.3262 C312.6398,153.6152 312.3928,154.1172 312.3928,154.6182 L312.3928,166.8542 C312.3928,167.3562 312.6398,167.8582 313.1348,168.1462 L337.7288,182.5262 C338.6338,183.0552 339.7548,183.0552 340.6608,182.5262 L365.2548,168.1462 C365.7488,167.8582 365.9958,167.3562 365.9958,166.8542 L365.9958,154.6182 C365.9958,154.1162 365.7488,153.6152 365.2548,153.3262 Z" id="Stroke-53" stroke="#373D41"></path>
        <path d="M313.6124,154.6183 C313.6124,155.2913 313.0664,155.8373 312.3934,155.8373 C311.7204,155.8373 311.1744,155.2913 311.1744,154.6183 C311.1744,153.9453 311.7204,153.3993 312.3934,153.3993 C313.0664,153.3993 313.6124,153.9453 313.6124,154.6183" id="Fill-55" fill="#373D41"></path>
        <path d="M313.6124,167.5628 C313.6124,168.2358 313.0664,168.7818 312.3934,168.7818 C311.7204,168.7818 311.1744,168.2358 311.1744,167.5628 C311.1744,166.8898 311.7204,166.3438 312.3934,166.3438 C313.0664,166.3438 313.6124,166.8898 313.6124,167.5628" id="Fill-57" fill="#373D41"></path>
        <path d="M340.4066,182.9232 C340.4066,183.5962 339.8606,184.1422 339.1876,184.1422 C338.5146,184.1422 337.9686,183.5962 337.9686,182.9232 C337.9686,182.2502 338.5146,181.7042 339.1876,181.7042 C339.8606,181.7042 340.4066,182.2502 340.4066,182.9232" id="Fill-59" fill="#373D41"></path>
        <path d="M367.2149,167.5628 C367.2149,168.2358 366.6689,168.7818 365.9959,168.7818 C365.3229,168.7818 364.7769,168.2358 364.7769,167.5628 C364.7769,166.8898 365.3229,166.3438 365.9959,166.3438 C366.6689,166.3438 367.2149,166.8898 367.2149,167.5628" id="Fill-61" fill="#373D41"></path>
        <path d="M367.2149,154.6183 C367.2149,155.2913 366.6689,155.8373 365.9959,155.8373 C365.3229,155.8373 364.7769,155.2913 364.7769,154.6183 C364.7769,153.9453 365.3229,153.3993 365.9959,153.3993 C366.6689,153.3993 367.2149,153.9453 367.2149,154.6183" id="Fill-63" fill="#373D41"></path>
        <path d="M340.4066,170.5868 C340.4066,171.2598 339.8606,171.8058 339.1876,171.8058 C338.5146,171.8058 337.9686,171.2598 337.9686,170.5868 C337.9686,169.9138 338.5146,169.3678 339.1876,169.3678 C339.8606,169.3678 340.4066,169.9138 340.4066,170.5868" id="Fill-65" fill="#777F84"></path>
        <path d="M340.4066,138.5493 C340.4066,139.2223 339.8606,139.7683 339.1876,139.7683 C338.5146,139.7683 337.9686,139.2223 337.9686,138.5493 C337.9686,137.8763 338.5146,137.3303 339.1876,137.3303 C339.8606,137.3303 340.4066,137.8763 340.4066,138.5493" id="Fill-67" fill="#373D41"></path>
        <path d="M362.725,202.6097 L387.256,188.4197 C388.022,187.9767 388.966,187.9757 389.733,188.4177 L414.029,202.4167 C415.027,202.9917 415.027,204.4307 414.029,205.0057 L389.735,219.0037 C388.967,219.4467 388.021,219.4447 387.255,219.0007 L362.724,204.7697 C361.894,204.2877 361.895,203.0897 362.725,202.6097" id="Fill-69" fill="#FFFFFF"></path>
        <path d="M362.725,206.5134 L387.256,192.3234 C388.022,191.8804 388.966,191.8794 389.733,192.3214 L414.029,206.3204 C415.027,206.8954 415.027,208.3344 414.029,208.9094 L389.735,222.9074 C388.967,223.3504 388.021,223.3484 387.255,222.9044 L362.724,208.6734 C361.894,208.1914 361.895,206.9934 362.725,206.5134" id="Fill-71" fill="#FFFFFF"></path>
        <path d="M414.5214,202.4723 L389.9274,188.0923 C389.0214,187.5633 387.9004,187.5633 386.9954,188.0923 L362.4014,202.4723 C361.9064,202.7613 361.6594,203.2633 361.6594,203.7643 L361.6594,216.0003 C361.6594,216.5023 361.9064,217.0043 362.4014,217.2923 L386.9954,231.6723 C387.9004,232.2013 389.0214,232.2013 389.9274,231.6723 L414.5214,217.2923 C415.0154,217.0043 415.2624,216.5023 415.2624,216.0003 L415.2624,203.7643 C415.2624,203.2623 415.0154,202.7613 414.5214,202.4723" id="Fill-73" fill="#BABABA"></path>
        <path d="M389.9272,188.0926 C389.0212,187.5626 387.9012,187.5626 386.9952,188.0926 L362.4012,202.4726 C361.9062,202.7616 361.6602,203.2626 361.6602,203.7646 L361.6602,216.0006 C361.6602,216.5016 361.9062,217.0036 362.4012,217.2926 L386.9952,231.6726 C387.9012,232.2016 387.5552,232.5986 388.4612,232.0696 L388.4612,211.1066 C388.4612,210.6046 389.9272,188.0926 389.9272,188.0926" id="Fill-75" fill="#D8D8D8"></path>
        <path d="M362.725,202.6097 L387.256,188.4197 C388.022,187.9767 388.966,187.9757 389.733,188.4177 L414.029,202.4167 C415.027,202.9917 415.027,204.4307 414.029,205.0057 L389.735,219.0037 C388.967,219.4467 388.021,219.4447 387.255,219.0007 L362.724,204.7697 C361.894,204.2877 361.895,203.0897 362.725,202.6097" id="Fill-77" fill="#FFFFFF"></path>
        <path d="M414.3639,202.4801 C415.3459,203.0541 415.3459,204.4741 414.3639,205.0481 L389.9269,219.3361 C389.0219,219.8651 387.9009,219.8651 386.9949,219.3361 L362.5579,205.0481 C361.5759,204.4741 361.5759,203.0541 362.5579,202.4801" id="Stroke-79" stroke="#777F84" stroke-width="0.75"></path>
        <path d="M415.039,206.4392 C415.222,207.0592 414.997,207.7802 414.364,208.1502 L389.927,222.4382 C389.021,222.9672 387.901,222.9672 386.995,222.4382 L362.558,208.1502 C361.958,207.7992 361.724,207.1322 361.858,206.5362" id="Stroke-81" stroke="#777F84" stroke-width="0.5"></path>
        <path d="M388.4398,232.3031 L388.4398,222.9041" id="Stroke-83" stroke="#777F84" stroke-width="0.5"></path>
        <path d="M414.5214,202.4723 L389.9274,188.0923 C389.0214,187.5633 387.9004,187.5633 386.9954,188.0923 L362.4014,202.4723 C361.9064,202.7613 361.6594,203.2633 361.6594,203.7643 L361.6594,216.0003 C361.6594,216.5023 361.9064,217.0043 362.4014,217.2923 L386.9954,231.6723 C387.9004,232.2013 389.0214,232.2013 389.9274,231.6723 L414.5214,217.2923 C415.0154,217.0043 415.2624,216.5023 415.2624,216.0003 L415.2624,203.7643 C415.2624,203.2623 415.0154,202.7613 414.5214,202.4723 Z" id="Stroke-85" stroke="#373D41"></path>
        <path d="M362.879,203.7644 C362.879,204.4374 362.333,204.9834 361.66,204.9834 C360.987,204.9834 360.441,204.4374 360.441,203.7644 C360.441,203.0914 360.987,202.5454 361.66,202.5454 C362.333,202.5454 362.879,203.0914 362.879,203.7644" id="Fill-87" fill="#373D41"></path>
        <path d="M362.879,216.7089 C362.879,217.3819 362.333,217.9279 361.66,217.9279 C360.987,217.9279 360.441,217.3819 360.441,216.7089 C360.441,216.0359 360.987,215.4899 361.66,215.4899 C362.333,215.4899 362.879,216.0359 362.879,216.7089" id="Fill-89" fill="#373D41"></path>
        <path d="M389.6732,232.0693 C389.6732,232.7423 389.1272,233.2883 388.4542,233.2883 C387.7812,233.2883 387.2352,232.7423 387.2352,232.0693 C387.2352,231.3963 387.7812,230.8503 388.4542,230.8503 C389.1272,230.8503 389.6732,231.3963 389.6732,232.0693" id="Fill-91" fill="#373D41"></path>
        <path d="M416.4815,216.7089 C416.4815,217.3819 415.9355,217.9279 415.2625,217.9279 C414.5895,217.9279 414.0435,217.3819 414.0435,216.7089 C414.0435,216.0359 414.5895,215.4899 415.2625,215.4899 C415.9355,215.4899 416.4815,216.0359 416.4815,216.7089" id="Fill-93" fill="#373D41"></path>
        <path d="M416.4815,203.7644 C416.4815,204.4374 415.9355,204.9834 415.2625,204.9834 C414.5895,204.9834 414.0435,204.4374 414.0435,203.7644 C414.0435,203.0914 414.5895,202.5454 415.2625,202.5454 C415.9355,202.5454 416.4815,203.0914 416.4815,203.7644" id="Fill-95" fill="#373D41"></path>
        <path d="M389.6732,219.7329 C389.6732,220.4059 389.1272,220.9519 388.4542,220.9519 C387.7812,220.9519 387.2352,220.4059 387.2352,219.7329 C387.2352,219.0599 387.7812,218.5139 388.4542,218.5139 C389.1272,218.5139 389.6732,219.0599 389.6732,219.7329" id="Fill-97" fill="#777F84"></path>
        <path d="M389.6732,187.6954 C389.6732,188.3684 389.1272,188.9144 388.4542,188.9144 C387.7812,188.9144 387.2352,188.3684 387.2352,187.6954 C387.2352,187.0224 387.7812,186.4764 388.4542,186.4764 C389.1272,186.4764 389.6732,187.0224 389.6732,187.6954" id="Fill-99" fill="#373D41"></path>
        <path d="M362.725,182.5977 L387.256,168.4077 C388.022,167.9647 388.966,167.9637 389.733,168.4057 L414.029,182.4047 C415.027,182.9797 415.027,184.4187 414.029,184.9937 L389.735,198.9917 C388.967,199.4347 388.021,199.4327 387.255,198.9887 L362.724,184.7577 C361.894,184.2757 361.895,183.0777 362.725,182.5977" id="Fill-103" fill="#FFFFFF"></path>
        <path d="M362.725,186.5013 L387.256,172.3113 C388.022,171.8683 388.966,171.8673 389.733,172.3093 L414.029,186.3083 C415.027,186.8833 415.027,188.3223 414.029,188.8973 L389.735,202.8953 C388.967,203.3383 388.021,203.3363 387.255,202.8923 L362.724,188.6613 C361.894,188.1793 361.895,186.9813 362.725,186.5013" id="Fill-105" fill="#FFFFFF"></path>
        <path d="M414.5214,182.4603 L389.9274,168.0803 C389.0214,167.5513 387.9004,167.5513 386.9954,168.0803 L362.4014,182.4603 C361.9064,182.7493 361.6594,183.2513 361.6594,183.7523 L361.6594,195.9883 C361.6594,196.4903 361.9064,196.9923 362.4014,197.2803 L386.9954,211.6603 C387.9004,212.1893 389.0214,212.1893 389.9274,211.6603 L414.5214,197.2803 C415.0154,196.9923 415.2624,196.4903 415.2624,195.9883 L415.2624,183.7523 C415.2624,183.2503 415.0154,182.7493 414.5214,182.4603" id="Fill-107" fill="#BABABA"></path>
        <path d="M389.9272,168.0806 C389.0212,167.5506 387.9012,167.5506 386.9952,168.0806 L362.4012,182.4606 C361.9062,182.7496 361.6602,183.2506 361.6602,183.7526 L361.6602,195.9886 C361.6602,196.4896 361.9062,196.9916 362.4012,197.2806 L386.9952,211.6606 C387.9012,212.1896 387.5552,212.5866 388.4612,212.0576 L388.4612,191.0946 C388.4612,190.5926 389.9272,168.0806 389.9272,168.0806" id="Fill-109" fill="#D8D8D8"></path>
        <path d="M362.725,182.5977 L387.256,168.4077 C388.022,167.9647 388.966,167.9637 389.733,168.4057 L414.029,182.4047 C415.027,182.9797 415.027,184.4187 414.029,184.9937 L389.735,198.9917 C388.967,199.4347 388.021,199.4327 387.255,198.9887 L362.724,184.7577 C361.894,184.2757 361.895,183.0777 362.725,182.5977" id="Fill-111" fill="#FFFFFF"></path>
        <path d="M414.3639,182.4681 C415.3459,183.0421 415.3459,184.4621 414.3639,185.0361 L389.9269,199.3241 C389.0219,199.8531 387.9009,199.8531 386.9949,199.3241 L362.5579,185.0361 C361.5759,184.4621 361.5759,183.0421 362.5579,182.4681" id="Stroke-113" stroke="#777F84" stroke-width="0.75"></path>
        <path d="M415.039,186.4272 C415.222,187.0472 414.997,187.7682 414.364,188.1382 L389.927,202.4262 C389.021,202.9552 387.901,202.9552 386.995,202.4262 L362.558,188.1382 C361.958,187.7872 361.724,187.1202 361.858,186.5242" id="Stroke-115" stroke="#777F84" stroke-width="0.5"></path>
        <path d="M388.4398,212.2911 L388.4398,202.8921" id="Stroke-117" stroke="#777F84" stroke-width="0.5"></path>
        <path d="M414.5214,182.4603 L389.9274,168.0803 C389.0214,167.5513 387.9004,167.5513 386.9954,168.0803 L362.4014,182.4603 C361.9064,182.7493 361.6594,183.2513 361.6594,183.7523 L361.6594,195.9883 C361.6594,196.4903 361.9064,196.9923 362.4014,197.2803 L386.9954,211.6603 C387.9004,212.1893 389.0214,212.1893 389.9274,211.6603 L414.5214,197.2803 C415.0154,196.9923 415.2624,196.4903 415.2624,195.9883 L415.2624,183.7523 C415.2624,183.2503 415.0154,182.7493 414.5214,182.4603 Z" id="Stroke-119" stroke="#373D41"></path>
        <path d="M362.879,183.7524 C362.879,184.4254 362.333,184.9714 361.66,184.9714 C360.987,184.9714 360.441,184.4254 360.441,183.7524 C360.441,183.0794 360.987,182.5334 361.66,182.5334 C362.333,182.5334 362.879,183.0794 362.879,183.7524" id="Fill-121" fill="#373D41"></path>
        <path d="M362.879,196.6969 C362.879,197.3699 362.333,197.9159 361.66,197.9159 C360.987,197.9159 360.441,197.3699 360.441,196.6969 C360.441,196.0239 360.987,195.4779 361.66,195.4779 C362.333,195.4779 362.879,196.0239 362.879,196.6969" id="Fill-123" fill="#373D41"></path>
        <path d="M389.6732,212.0573 C389.6732,212.7303 389.1272,213.2763 388.4542,213.2763 C387.7812,213.2763 387.2352,212.7303 387.2352,212.0573 C387.2352,211.3843 387.7812,210.8383 388.4542,210.8383 C389.1272,210.8383 389.6732,211.3843 389.6732,212.0573" id="Fill-125" fill="#373D41"></path>
        <path d="M416.4815,196.6969 C416.4815,197.3699 415.9355,197.9159 415.2625,197.9159 C414.5895,197.9159 414.0435,197.3699 414.0435,196.6969 C414.0435,196.0239 414.5895,195.4779 415.2625,195.4779 C415.9355,195.4779 416.4815,196.0239 416.4815,196.6969" id="Fill-127" fill="#373D41"></path>
        <path d="M416.4815,183.7524 C416.4815,184.4254 415.9355,184.9714 415.2625,184.9714 C414.5895,184.9714 414.0435,184.4254 414.0435,183.7524 C414.0435,183.0794 414.5895,182.5334 415.2625,182.5334 C415.9355,182.5334 416.4815,183.0794 416.4815,183.7524" id="Fill-129" fill="#373D41"></path>
        <path d="M389.6732,199.7209 C389.6732,200.3939 389.1272,200.9399 388.4542,200.9399 C387.7812,200.9399 387.2352,200.3939 387.2352,199.7209 C387.2352,199.0479 387.7812,198.5019 388.4542,198.5019 C389.1272,198.5019 389.6732,199.0479 389.6732,199.7209" id="Fill-131" fill="#777F84"></path>
        <path d="M389.6732,167.6834 C389.6732,168.3564 389.1272,168.9024 388.4542,168.9024 C387.7812,168.9024 387.2352,168.3564 387.2352,167.6834 C387.2352,167.0104 387.7812,166.4644 388.4542,166.4644 C389.1272,166.4644 389.6732,167.0104 389.6732,167.6834" id="Fill-133" fill="#373D41"></path>
        <use id="Rectangle" stroke="#7A7A7A" mask="url(#mask-6)" stroke-width="1.4" xlink:href="#path-5"></use>
        <polygon id="Fill-135" fill-opacity="0.5" fill="#D8D8D8" points="274.7421 148.2954 274.7421 184.9024 390.9251 252.0074 390.9251 215.4294"></polygon>
        <polygon id="Fill-137" fill-opacity="0.2" fill="#D8D8D8" points="274.9765 148.061 335.4175 112.201 450.1455 179.564 391.1595 215.195"></polygon>
        <polygon id="Stroke-139" stroke="#7A7A7A" stroke-width="0.75" points="274.7421 148.2954 335.1831 112.4354 449.9111 179.7984 390.9251 215.4294"></polygon>
        <polygon id="Fill-1" fill-opacity="0.699999988" fill="#BABABA" points="449.327637 180.475586 449.327637 217.023926 391.75 251.753906 391.75 215.4899"></polygon>
        <path d="M274.7421,185.3176 L274.7421,148.2956" id="Stroke-141" stroke="#7A7A7A" stroke-width="0.75"></path>
        <g id="Page-1" transform="translate(64.183594, 123.847656) scale(-1, -1) translate(-64.183594, -123.847656) translate(44.683594, 95.347656)">
            <polyline id="Stroke-1" stroke="#06A79C" stroke-linecap="round" stroke-dasharray="3" points="0.3731 56.4919 38.4521 34.6539 38.3861 19.9719 10.9901 2.9049"></polyline>
            <polygon id="Fill-3" fill="#06A79C" points="7.2315 -0.0003 10.5915 7.7807 18.2255 2.8037"></polygon>
        </g>
    </g>
</svg>