
<svg width="613px" height="365px" viewBox="751 101 613 365" version="1.1" xmlns="http://www.w3.org/2000/svg" xmlns:xlink="http://www.w3.org/1999/xlink">
    <defs>
        <polygon id="path-1" points="1.11243998 0.246399996 4.52563992 0.246399996 4.52563992 3.65945994 1.11243998 3.65945994 1.11243998 0.246399996"></polygon>
        <polygon id="path-3" points="5.618 0.038 5.618 4.914 0.7424 4.914 0.7424 0.038 5.618 0.038"></polygon>
        <polygon id="path-5" points="5.618 0.6114 5.618 5.4874 0.7424 5.4874 0.7424 0.6114 5.618 0.6114"></polygon>
        <linearGradient x1="-23.741819%" y1="100%" x2="100%" y2="77.3962857%" id="linearGradient-7">
            <stop stop-color="#EBEBEB" offset="0%"></stop>
            <stop stop-color="#B9B9B9" offset="100%"></stop>
        </linearGradient>
        <path d="M330.620001,26.8054864 C332.189007,22.6823258 336.829603,18.1144611 341.015428,16.6923611 C341.015428,16.6923611 352.705382,11.9151334 373.455016,8.58129796 C397.974914,4.64169586 409.016133,6.22928254 409.016133,6.22928254 C416.186925,6.54059784 422.558167,12.5782329 423.087179,19.74596 C423.087179,19.74596 424.072683,24.1865234 424.072683,52.0029696 C423,80.1123047 421.386775,88.1672462 421.386775,88.1672462 C420.068596,99.1205737 410.048479,108.404825 399.011313,108.811119 C399.011313,108.811119 392.071289,109.399609 366.187109,109.399609 C343.236328,108.697722 329.794924,104.81147 329.794924,104.81147 C325.489906,103.811023 321.71145,99.4292999 321.458262,95.0137022 C321.458262,95.0137022 319.870748,82.2182418 322.578122,59.7899004 C325.101217,38.8881637 330.620001,26.8054864 330.620001,26.8054864 Z" id="path-8"></path>
        <mask id="mask-9" maskContentUnits="userSpaceOnUse" maskUnits="objectBoundingBox" x="0" y="0" width="103.076912" height="103.486518" fill="white">
            <use xlink:href="#path-8"></use>
        </mask>
        <path d="M321.620001,21.8054864 C323.189007,17.6823258 327.829603,13.1144611 332.015428,11.6923611 C332.015428,11.6923611 343.705382,6.91513336 364.455016,3.58129796 C388.974914,-0.358304135 400.016133,1.22928254 400.016133,1.22928254 C407.186925,1.54059784 413.558167,7.57823288 414.087179,14.74596 C414.087179,14.74596 415.072683,19.1865234 415.072683,47.0029696 C414,75.1123047 412.386775,83.1672462 412.386775,83.1672462 C411.068596,94.1205737 401.048479,103.404825 390.011313,103.811119 C390.011313,103.811119 383.071289,104.399609 357.187109,104.399609 C334.236328,103.697722 320.794924,99.8114696 320.794924,99.8114696 C316.489906,98.8110226 312.71145,94.4292999 312.458262,90.0137022 C312.458262,90.0137022 310.870748,77.2182418 313.578122,54.7899004 C316.101217,33.8881637 321.620001,21.8054864 321.620001,21.8054864 Z" id="path-10"></path>
        <mask id="mask-11" maskContentUnits="userSpaceOnUse" maskUnits="objectBoundingBox" x="0" y="0" width="103.076912" height="103.486518" fill="white">
            <use xlink:href="#path-10"></use>
        </mask>
        <path d="M344.300001,68.5300637 C339.439896,68.5300637 334.500002,66.5901697 334.500002,61.7300642 C334.500002,57.7807974 338.422116,55.0994471 342.499915,54.2331264 C342.241063,53.5139008 342.100001,52.7384562 342.100001,51.9300649 C342.100001,48.1745288 345.144465,45.1300653 348.900001,45.1300653 C349.898207,45.1300653 350.846177,45.3451488 351.700096,45.7314999 C351.727034,40.2172267 357.447424,33.7705839 364.5,33.7705839 C371.569244,33.7705839 377.299999,39.2477361 377.299999,44.7705833 C377.299999,44.8713203 377.298093,44.9717093 377.294306,45.0717297 C383.801311,45.9941998 389.499998,51.3101923 389.499998,57.7300645 C389.499998,64.6698793 382.840863,68.3923332 375.699999,68.5263143 L375.699999,68.5300637 L344.300001,68.5300637 Z" id="path-12"></path>
        <filter x="-50%" y="-50%" width="200%" height="200%" filterUnits="objectBoundingBox" id="filter-13">
            <feGaussianBlur stdDeviation="0.5" in="SourceAlpha" result="shadowBlurInner1"></feGaussianBlur>
            <feOffset dx="0.3" dy="1" in="shadowBlurInner1" result="shadowOffsetInner1"></feOffset>
            <feComposite in="shadowOffsetInner1" in2="SourceAlpha" operator="arithmetic" k2="-1" k3="1" result="shadowInnerInner1"></feComposite>
            <feColorMatrix values="0 0 0 0 0   0 0 0 0 0   0 0 0 0 0  0 0 0 0.8 0" type="matrix" in="shadowInnerInner1"></feColorMatrix>
        </filter>
    </defs>
    <g id="Group-5" stroke="none" stroke-width="1" fill="none" fill-rule="evenodd" transform="translate(751.000000, 101.792969)">
        <path d="M356.5,62.5 C356.5,62.5 259.429687,38.0546875 159.578125,91.234375 C59.7265625,144.414062 27.5,258.5 27.5,258.5" id="Line" stroke="#06A79C" stroke-linecap="round" stroke-dasharray="3"></path>
        <path d="M391.467005,123.732941 C391.467005,123.732941 334.311216,106.157528 271.035748,139.857248 C207.760279,173.556967 177.073883,221.704263 177.073883,221.704263" id="Line-Copy-3" stroke="#06A79C" stroke-linecap="round" stroke-dasharray="3" transform="translate(284.270444, 170.428094) rotate(-30.000000) translate(-284.270444, -170.428094) "></path>
        <path d="M360.261063,108.436396 C360.261063,108.436396 286.869031,72.2561042 193.515483,94.6009166 C100.161935,116.945729 52.3214374,192.774712 52.3214374,192.774712" id="Line-Copy-4" stroke="#06A79C" stroke-linecap="round" stroke-dasharray="3" opacity="0.5" transform="translate(206.291250, 140.044756) rotate(-376.000000) translate(-206.291250, -140.044756) "></path>
        <path d="M377.99416,96.2442958 C377.99416,96.2442958 309.464089,75.6804604 240.230354,115.889044 C170.996619,156.097628 151.7329,203.352787 151.7329,203.352787" id="Line-Copy-5" stroke="#06A79C" stroke-linecap="round" stroke-dasharray="3" opacity="0.699999988" transform="translate(264.863530, 147.169642) rotate(-10.000000) translate(-264.863530, -147.169642) "></path>
        <path d="M373.631026,82.5029217 C373.631026,82.5029217 263.235114,56.1126231 168.79077,132.471302 C74.3464261,208.829981 66.69224,313.34463 66.69224,313.34463" id="Line-Copy" stroke="#06A79C" stroke-linecap="round" stroke-dasharray="3" transform="translate(220.161633, 195.719600) rotate(-6.000000) translate(-220.161633, -195.719600) "></path>
        <ellipse id="Oval-2-Copy-4" fill-opacity="0.2" fill="#06A79C" cx="482.648216" cy="309.674371" rx="109.304466" ry="53.5806208"></ellipse>
        <g id="Page-1" transform="translate(442.748217, 244.832840)">
            <path d="M3.19815995,52.0035591 L37.5415594,32.1375595 C38.6139593,31.5173595 39.9355593,31.5159595 41.0093593,32.1347595 L75.0237587,51.7333591 C76.4209587,52.5383591 76.4209587,54.5529591 75.0237587,55.3579591 L41.0121593,74.9551587 C39.9369593,75.5753587 38.6125593,75.5725587 37.5401594,74.9509587 L3.19675995,55.0275591 C2.03475997,54.3527591 2.03615997,52.6755591 3.19815995,52.0035591" id="Fill-1" fill="#FFFFFF"></path>
            <path d="M3.19815995,57.468739 L37.5415594,37.6027394 C38.6139593,36.9825394 39.9355593,36.9811394 41.0093593,37.5999394 L75.0237587,57.198539 C76.4209587,58.003539 76.4209587,60.018139 75.0237587,60.823139 L41.0121593,80.4203386 C39.9369593,81.0405386 38.6125593,81.0377386 37.5401594,80.4161386 L3.19675995,60.492739 C2.03475997,59.817939 2.03615997,58.140739 3.19815995,57.468739" id="Fill-3" fill="#FFFFFF"></path>
            <path d="M75.7129787,51.8111991 L41.2813793,31.6791995 C40.0129793,30.9385995 38.4435793,30.9385995 37.1765794,31.6791995 L2.74497995,51.8111991 C2.05197997,52.2157991 1.70617997,52.9185991 1.70617997,53.6199991 L1.70617997,70.7503988 C1.70617997,71.4531988 2.05197997,72.1559988 2.74497995,72.5591988 L37.1765794,92.6911984 C38.4435793,93.4317984 40.0129793,93.4317984 41.2813793,92.6911984 L75.7129787,72.5591988 C76.4045787,72.1559988 76.7503787,71.4531988 76.7503787,70.7503988 L76.7503787,53.6199991 C76.7503787,52.9171991 76.4045787,52.2157991 75.7129787,51.8111991" id="Fill-5" fill="#BABABA"></path>
            <path d="M41.2810993,31.6796195 C40.0126993,30.9376195 38.4446993,30.9376195 37.1762994,31.6796195 L2.74469995,51.8116191 C2.05169997,52.2162191 1.70729997,52.9176191 1.70729997,53.6204191 L1.70729997,70.7508188 C1.70729997,71.4522188 2.05169997,72.1550188 2.74469995,72.5596188 L37.1762994,92.6916184 C38.4446993,93.4322184 37.9602994,93.9880184 39.2286993,93.2474184 L39.2286993,63.8992189 C39.2286993,63.1964189 41.2810993,31.6796195 41.2810993,31.6796195" id="Fill-7" fill="#D8D8D8"></path>
            <path d="M3.19815995,52.0035591 L37.5415594,32.1375595 C38.6139593,31.5173595 39.9355593,31.5159595 41.0093593,32.1347595 L75.0237587,51.7333591 C76.4209587,52.5383591 76.4209587,54.5529591 75.0237587,55.3579591 L41.0121593,74.9551587 C39.9369593,75.5753587 38.6125593,75.5725587 37.5401594,74.9509587 L3.19675995,55.0275591 C2.03475997,54.3527591 2.03615997,52.6755591 3.19815995,52.0035591" id="Fill-9" fill="#FFFFFF"></path>
            <path d="M75.4926187,51.8222591 C76.8674187,52.6258591 76.8674187,54.6138591 75.4926187,55.4174591 L41.2808193,75.4206587 C40.0138193,76.1612587 38.4444193,76.1612587 37.1760194,75.4206587 L2.96421995,55.4174591 C1.58941997,54.6138591 1.58941997,52.6258591 2.96421995,51.8222591" id="Stroke-11" stroke="#777F84" stroke-width="1.04999998"></path>
            <path d="M76.4377587,57.364859 C76.6939587,58.232859 76.3789587,59.242259 75.4927587,59.760259 L41.2809593,79.7634586 C40.0125593,80.5040586 38.4445593,80.5040586 37.1761594,79.7634586 L2.96435995,59.760259 C2.12435996,59.268859 1.79675997,58.335059 1.98435997,57.500659" id="Stroke-13" stroke="#777F84" stroke-width="0.699999988"></path>
            <path d="M39.1987393,93.5744584 L39.1987393,80.4158586" id="Stroke-15" stroke="#777F84" stroke-width="0.699999988"></path>
            <path d="M75.7129787,51.8111991 L41.2813793,31.6791995 C40.0129793,30.9385995 38.4435793,30.9385995 37.1765794,31.6791995 L2.74497995,51.8111991 C2.05197997,52.2157991 1.70617997,52.9185991 1.70617997,53.6199991 L1.70617997,70.7503988 C1.70617997,71.4531988 2.05197997,72.1559988 2.74497995,72.5591988 L37.1765794,92.6911984 C38.4435793,93.4317984 40.0129793,93.4317984 41.2813793,92.6911984 L75.7129787,72.5591988 C76.4045787,72.1559988 76.7503787,71.4531988 76.7503787,70.7503988 L76.7503787,53.6199991 C76.7503787,52.9171991 76.4045787,52.2157991 75.7129787,51.8111991 Z" id="Stroke-17" stroke="#373D41" stroke-width="1.39999998"></path>
            <path d="M3.41361994,53.6202791 C3.41361994,54.5624791 2.64921995,55.3268791 1.70701997,55.3268791 C0.764819987,55.3268791 0.000419999993,54.5624791 0.000419999993,53.6202791 C0.000419999993,52.6780791 0.764819987,51.9136791 1.70701997,51.9136791 C2.64921995,51.9136791 3.41361994,52.6780791 3.41361994,53.6202791" id="Fill-19" fill="#373D41"></path>
            <path d="M3.41361994,71.7424388 C3.41361994,72.6846388 2.64921995,73.4490387 1.70701997,73.4490387 C0.764819987,73.4490387 0.000419999993,72.6846388 0.000419999993,71.7424388 C0.000419999993,70.8002388 0.764819987,70.0358388 1.70701997,70.0358388 C2.64921995,70.0358388 3.41361994,70.8002388 3.41361994,71.7424388" id="Fill-21" fill="#373D41"></path>
            <path d="M40.9256393,93.2469984 C40.9256393,94.1891984 40.1612393,94.9535984 39.2190393,94.9535984 C38.2768393,94.9535984 37.5124394,94.1891984 37.5124394,93.2469984 C37.5124394,92.3047984 38.2768393,91.5403984 39.2190393,91.5403984 C40.1612393,91.5403984 40.9256393,92.3047984 40.9256393,93.2469984" id="Fill-23" fill="#373D41"></path>
            <path d="M78.4571187,71.7424388 C78.4571187,72.6846388 77.6927187,73.4490387 76.7505187,73.4490387 C75.8083187,73.4490387 75.0439187,72.6846388 75.0439187,71.7424388 C75.0439187,70.8002388 75.8083187,70.0358388 76.7505187,70.0358388 C77.6927187,70.0358388 78.4571187,70.8002388 78.4571187,71.7424388" id="Fill-25" fill="#373D41"></path>
            <path d="M78.4571187,53.6202791 C78.4571187,54.5624791 77.6927187,55.3268791 76.7505187,55.3268791 C75.8083187,55.3268791 75.0439187,54.5624791 75.0439187,53.6202791 C75.0439187,52.6780791 75.8083187,51.9136791 76.7505187,51.9136791 C77.6927187,51.9136791 78.4571187,52.6780791 78.4571187,53.6202791" id="Fill-27" fill="#373D41"></path>
            <path d="M40.9256393,75.9760387 C40.9256393,76.9182387 40.1612393,77.6826387 39.2190393,77.6826387 C38.2768393,77.6826387 37.5124394,76.9182387 37.5124394,75.9760387 C37.5124394,75.0338387 38.2768393,74.2694387 39.2190393,74.2694387 C40.1612393,74.2694387 40.9256393,75.0338387 40.9256393,75.9760387" id="Fill-29" fill="#777F84"></path>
            <path d="M40.9256393,31.1236795 C40.9256393,32.0658795 40.1612393,32.8302794 39.2190393,32.8302794 C38.2768393,32.8302794 37.5124394,32.0658795 37.5124394,31.1236795 C37.5124394,30.1814795 38.2768393,29.4170795 39.2190393,29.4170795 C40.1612393,29.4170795 40.9256393,30.1814795 40.9256393,31.1236795" id="Fill-31" fill="#373D41"></path>
            <path d="M36.3549194,51.5589191 L36.3549194,51.5589191 L36.4837194,51.5407191 L43.9149193,51.0003191 L42.8621193,55.882119 L36.3549194,51.5589191 Z M50.4221191,48.8765192 L46.1115192,49.5681192 L47.1419192,46.6967192 L40.5591193,42.3245193 L32.1157195,43.5761193 L29.8407195,49.4757192 L33.8839194,52.1609191 L27.7729195,53.0373191 L25.7051196,58.799719 L32.2879195,63.1719189 L40.6081193,61.563319 L42.2419193,57.713319 L45.9547192,60.180119 L54.8125191,58.654119 L56.674519,53.0289191 L50.4221191,48.8765192 Z" id="Fill-33" fill="#4BECBC"></path>
            <path d="M3.19815995,23.9867596 L37.5415594,4.12075993 C38.6139593,3.50055994 39.9355593,3.49915994 41.0093593,4.11795993 L75.0237587,23.7165596 C76.4209587,24.5215596 76.4209587,26.5361595 75.0237587,27.3411595 L41.0121593,46.9383592 C39.9369593,47.5585592 38.6125593,47.5557592 37.5401594,46.9341592 L3.19675995,27.0107595 C2.03475997,26.3359596 2.03615997,24.6587596 3.19815995,23.9867596" id="Fill-35" fill="#FFFFFF"></path>
            <path d="M3.19815995,29.4519395 L37.5415594,9.58593984 C38.6139593,8.96573985 39.9355593,8.96433985 41.0093593,9.58313984 L75.0237587,29.1817395 C76.4209587,29.9867395 76.4209587,32.0013395 75.0237587,32.8063394 L41.0121593,52.4035391 C39.9369593,53.0237391 38.6125593,53.0209391 37.5401594,52.3993391 L3.19675995,32.4759394 C2.03475997,31.8011395 2.03615997,30.1239395 3.19815995,29.4519395" id="Fill-37" fill="#FFFFFF"></path>
            <path d="M75.7129787,23.7943996 L41.2813793,3.66239994 C40.0129793,2.92179995 38.4435793,2.92179995 37.1765794,3.66239994 L2.74497995,23.7943996 C2.05197997,24.1989996 1.70617997,24.9017996 1.70617997,25.6031996 L1.70617997,42.7335993 C1.70617997,43.4363993 2.05197997,44.1391992 2.74497995,44.5423992 L37.1765794,64.6743989 C38.4435793,65.4149989 40.0129793,65.4149989 41.2813793,64.6743989 L75.7129787,44.5423992 C76.4045787,44.1391992 76.7503787,43.4363993 76.7503787,42.7335993 L76.7503787,25.6031996 C76.7503787,24.9003996 76.4045787,24.1989996 75.7129787,23.7943996" id="Fill-39" fill="#BABABA"></path>
            <path d="M41.2810993,3.66281994 C40.0126993,2.92081995 38.4446993,2.92081995 37.1762994,3.66281994 L2.74469995,23.7948196 C2.05169997,24.1994196 1.70729997,24.9008196 1.70729997,25.6036196 L1.70729997,42.7340193 C1.70729997,43.4354193 2.05169997,44.1382192 2.74469995,44.5428192 L37.1762994,64.6748189 C38.4446993,65.4154189 37.9602994,65.9712189 39.2286993,65.2306189 L39.2286993,35.8824194 C39.2286993,35.1796194 41.2810993,3.66281994 41.2810993,3.66281994" id="Fill-41" fill="#D8D8D8"></path>
            <path d="M3.19815995,23.9867596 L37.5415594,4.12075993 C38.6139593,3.50055994 39.9355593,3.49915994 41.0093593,4.11795993 L75.0237587,23.7165596 C76.4209587,24.5215596 76.4209587,26.5361595 75.0237587,27.3411595 L41.0121593,46.9383592 C39.9369593,47.5585592 38.6125593,47.5557592 37.5401594,46.9341592 L3.19675995,27.0107595 C2.03475997,26.3359596 2.03615997,24.6587596 3.19815995,23.9867596" id="Fill-43" fill="#FFFFFF"></path>
            <path d="M75.4926187,23.8054596 C76.8674187,24.6090596 76.8674187,26.5970595 75.4926187,27.4006595 L41.2808193,47.4038592 C40.0138193,48.1444592 38.4444193,48.1444592 37.1760194,47.4038592 L2.96421995,27.4006595 C1.58941997,26.5970595 1.58941997,24.6090596 2.96421995,23.8054596" id="Stroke-45" stroke="#777F84" stroke-width="1.04999998"></path>
            <path d="M76.4377587,29.3480595 C76.6939587,30.2160595 76.3789587,31.2254595 75.4927587,31.7434595 L41.2809593,51.7466591 C40.0125593,52.4872591 38.4445593,52.4872591 37.1761594,51.7466591 L2.96435995,31.7434595 C2.12435996,31.2520595 1.79675997,30.3182595 1.98435997,29.4838595" id="Stroke-47" stroke="#777F84" stroke-width="0.699999988"></path>
            <path d="M39.1987393,65.5576589 L39.1987393,52.3990591" id="Stroke-49" stroke="#777F84" stroke-width="0.699999988"></path>
            <path d="M75.7129787,23.7943996 L41.2813793,3.66239994 C40.0129793,2.92179995 38.4435793,2.92179995 37.1765794,3.66239994 L2.74497995,23.7943996 C2.05197997,24.1989996 1.70617997,24.9017996 1.70617997,25.6031996 L1.70617997,42.7335993 C1.70617997,43.4363993 2.05197997,44.1391992 2.74497995,44.5423992 L37.1765794,64.6743989 C38.4435793,65.4149989 40.0129793,65.4149989 41.2813793,64.6743989 L75.7129787,44.5423992 C76.4045787,44.1391992 76.7503787,43.4363993 76.7503787,42.7335993 L76.7503787,25.6031996 C76.7503787,24.9003996 76.4045787,24.1989996 75.7129787,23.7943996 Z" id="Stroke-51" stroke="#373D41" stroke-width="1.39999998"></path>
            <path d="M3.41361994,25.6034796 C3.41361994,26.5456795 2.64921995,27.3100795 1.70701997,27.3100795 C0.764819987,27.3100795 0.000419999993,26.5456795 0.000419999993,25.6034796 C0.000419999993,24.6612796 0.764819987,23.8968796 1.70701997,23.8968796 C2.64921995,23.8968796 3.41361994,24.6612796 3.41361994,25.6034796" id="Fill-53" fill="#373D41"></path>
            <path d="M3.41361994,43.7256393 C3.41361994,44.6678392 2.64921995,45.4322392 1.70701997,45.4322392 C0.764819987,45.4322392 0.000419999993,44.6678392 0.000419999993,43.7256393 C0.000419999993,42.7834393 0.764819987,42.0190393 1.70701997,42.0190393 C2.64921995,42.0190393 3.41361994,42.7834393 3.41361994,43.7256393" id="Fill-55" fill="#373D41"></path>
            <path d="M40.9256393,65.2301989 C40.9256393,66.1723989 40.1612393,66.9367989 39.2190393,66.9367989 C38.2768393,66.9367989 37.5124394,66.1723989 37.5124394,65.2301989 C37.5124394,64.2879989 38.2768393,63.5235989 39.2190393,63.5235989 C40.1612393,63.5235989 40.9256393,64.2879989 40.9256393,65.2301989" id="Fill-57" fill="#373D41"></path>
            <path d="M78.4571187,43.7256393 C78.4571187,44.6678392 77.6927187,45.4322392 76.7505187,45.4322392 C75.8083187,45.4322392 75.0439187,44.6678392 75.0439187,43.7256393 C75.0439187,42.7834393 75.8083187,42.0190393 76.7505187,42.0190393 C77.6927187,42.0190393 78.4571187,42.7834393 78.4571187,43.7256393" id="Fill-59" fill="#373D41"></path>
            <path d="M78.4571187,25.6034796 C78.4571187,26.5456795 77.6927187,27.3100795 76.7505187,27.3100795 C75.8083187,27.3100795 75.0439187,26.5456795 75.0439187,25.6034796 C75.0439187,24.6612796 75.8083187,23.8968796 76.7505187,23.8968796 C77.6927187,23.8968796 78.4571187,24.6612796 78.4571187,25.6034796" id="Fill-61" fill="#373D41"></path>
            <path d="M40.9256393,47.9592392 C40.9256393,48.9014392 40.1612393,49.6658392 39.2190393,49.6658392 C38.2768393,49.6658392 37.5124394,48.9014392 37.5124394,47.9592392 C37.5124394,47.0170392 38.2768393,46.2526392 39.2190393,46.2526392 C40.1612393,46.2526392 40.9256393,47.0170392 40.9256393,47.9592392" id="Fill-63" fill="#777F84"></path>
            <g id="Group-67" transform="translate(36.399999, 1.153880)">
                <mask id="mask-2" fill="white">
                    <use xlink:href="#path-1"></use>
                </mask>
                <g id="Clip-66"></g>
                <path d="M4.52563992,1.95285997 C4.52563992,2.89505995 3.76123994,3.65945994 2.81903995,3.65945994 C1.87683997,3.65945994 1.11243998,2.89505995 1.11243998,1.95285997 C1.11243998,1.01065998 1.87683997,0.246259996 2.81903995,0.246259996 C3.76123994,0.246259996 4.52563992,1.01065998 4.52563992,1.95285997" id="Fill-65" fill="#373D41" mask="url(#mask-2)"></path>
            </g>
        </g>
        <path d="M567.690116,151.986247 C567.690116,151.986247 514.579412,137.34976 451.303943,171.049479 C388.028475,204.749199 327.952816,293.347344 327.952816,293.347344" id="Line-Copy-6" stroke="#06A79C" stroke-linecap="round" stroke-dasharray="3" transform="translate(447.821466, 221.085416) scale(-1, 1) rotate(-36.000000) translate(-447.821466, -221.085416) "></path>
        <path d="M588.569594,138.007205 C588.569594,138.007205 520.638043,127.489331 457.362574,161.189051 C394.087106,194.88877 369.311491,234.377548 369.311491,234.377548" id="Line-Copy-8" stroke="#06A79C" stroke-linecap="round" stroke-dasharray="3" opacity="0.200000003" transform="translate(478.940543, 185.415635) scale(-1, 1) rotate(-27.000000) translate(-478.940543, -185.415635) "></path>
        <path d="M507.12235,140.309836 C507.12235,140.309836 419.940696,125.645475 327.424452,211.918268" id="Line-Copy-7" stroke="#06A79C" stroke-linecap="round" stroke-dasharray="3" opacity="0.6" transform="translate(417.273401, 175.642106) scale(-1, 1) rotate(-47.000000) translate(-417.273401, -175.642106) "></path>
        <path d="M585.534531,148.371159 C585.534531,148.371159 457.124003,132.883305 367.176379,266.941115" id="Line-Copy-13" stroke="#06A79C" stroke-linecap="round" stroke-dasharray="3" opacity="0.5" transform="translate(476.355455, 207.383328) scale(-1, 1) rotate(-30.000000) translate(-476.355455, -207.383328) "></path>
        <path d="M596.779082,110.314828 C596.779082,110.314828 572.48741,91.6495669 480.392909,129.37806 C388.298409,167.106553 354.795979,268.913488 354.795979,268.913488" id="Line-Copy-9" stroke="#06A79C" stroke-linecap="round" stroke-dasharray="3" opacity="0.7" transform="translate(475.787530, 187.305676) scale(-1, 1) rotate(-13.000000) translate(-475.787530, -187.305676) "></path>
        <ellipse id="Oval-2" fill-opacity="0.2" fill="#06A79C" cx="118" cy="282.09375" rx="117.504" ry="57.6"></ellipse>
        <g id="Page-1" transform="translate(121.000000, 208.392969)">
            <polygon id="Fill-1" fill="#D8D8D8" points="2.2464 72.7168 48.6204 100.7528 47.7644 35.7688 1.5344 11.2828"></polygon>
            <polygon id="Fill-2" fill="#BABABA" points="47.7648 36.4504 47.9948 100.7544 62.5548 92.6324 62.5548 28.4384"></polygon>
            <g id="Group-31" transform="translate(0.000000, 0.389800)">
                <path d="M2.1298,17.6734 L46.5638,41.6994 C47.3198,42.1094 48.2338,42.0994 48.9818,41.6754 L63.1798,33.6334" id="Stroke-3" stroke="#777F84"></path>
                <polygon id="Fill-5" fill="#FFFFFF" points="2.1298 9.7934 47.7638 35.3774 63.1798 27.0114 17.0298 1.2114"></polygon>
                <path d="M2.4384,10.742 L46.7744,35.18 C47.7784,35.728 48.9944,35.718 49.9904,35.154 L63.1804,27.696" id="Stroke-7" stroke="#777F84" stroke-width="1.5"></path>
                <path d="M2.1298,70.7736 L2.1298,11.6696 C2.1298,10.8076 2.5878,10.0116 3.3318,9.5776 L15.6498,2.3796 C16.3838,1.9516 17.2898,1.9376 18.0358,2.3456 L61.9178,26.3236 C62.6958,26.7476 63.1798,27.5636 63.1798,28.4496 L63.1798,90.8176 C63.1798,91.6956 62.7038,92.5056 61.9378,92.9336 L49.8518,99.6776 C49.0898,100.1016 48.1578,100.0856 47.4138,99.6316 L3.2958,72.8456 C2.5718,72.4056 2.1298,71.6196 2.1298,70.7736 Z" id="Stroke-9" stroke="#4B5154" stroke-width="1.5"></path>
                <path d="M47.9952,99.5616 L47.9952,41.6096" id="Stroke-11" stroke="#777F84"></path>
                <path d="M4.38899988,10.893 C4.38899988,11.9697999 3.51539994,12.8433999 2.4386,12.8433999 C1.36180006,12.8433999 0.488200116,11.9697999 0.488200116,10.893 C0.488200116,9.81620006 1.36180006,8.94260012 2.4386,8.94260012 C3.51539994,8.94260012 4.38899988,9.81620006 4.38899988,10.893" id="Fill-13" fill="#373D41"></path>
                <path d="M4.38899988,71.4316 C4.38899988,72.5083999 3.51539994,73.3819999 2.4386,73.3819999 C1.36180006,73.3819999 0.488200116,72.5083999 0.488200116,71.4316 C0.488200116,70.3548001 1.36180006,69.4812001 2.4386,69.4812001 C3.51539994,69.4812001 4.38899988,70.3548001 4.38899988,71.4316" id="Fill-15" fill="#373D41"></path>
                <g id="Group-19" transform="translate(60.000000, 89.000000)">
                    <mask id="mask-4" fill="white">
                        <use xlink:href="#path-3"></use>
                    </mask>
                    <g id="Clip-18"></g>
                    <path d="M5.13079988,2.476 C5.13079988,3.55279994 4.25719994,4.42639988 3.1804,4.42639988 C2.10360006,4.42639988 1.23000012,3.55279994 1.23000012,2.476 C1.23000012,1.39920006 2.10360006,0.525600116 3.1804,0.525600116 C4.25719994,0.525600116 5.13079988,1.39920006 5.13079988,2.476" id="Fill-17" fill="#373D41" mask="url(#mask-4)"></path>
                </g>
                <path d="M50.5701999,99.5616 C50.5701999,100.6384 49.6965999,101.512 48.6198,101.512 C47.5430001,101.512 46.6694001,100.6384 46.6694001,99.5616 C46.6694001,98.4848001 47.5430001,97.6112001 48.6198,97.6112001 C49.6965999,97.6112001 50.5701999,98.4848001 50.5701999,99.5616" id="Fill-20" fill="#373D41"></path>
                <g id="Group-24" transform="translate(60.000000, 25.000000)">
                    <mask id="mask-6" fill="white">
                        <use xlink:href="#path-5"></use>
                    </mask>
                    <g id="Clip-23"></g>
                    <path d="M5.13079988,3.0494 C5.13079988,4.12619994 4.25719994,4.99979988 3.1804,4.99979988 C2.10360006,4.99979988 1.23000012,4.12619994 1.23000012,3.0494 C1.23000012,1.97260006 2.10360006,1.09900012 3.1804,1.09900012 C4.25719994,1.09900012 5.13079988,1.97260006 5.13079988,3.0494" id="Fill-22" fill="#373D41" mask="url(#mask-6)"></path>
                </g>
                <path d="M18.5693999,2.0484 C18.5693999,3.12519994 17.6957999,3.99879988 16.619,3.99879988 C15.5422001,3.99879988 14.6686001,3.12519994 14.6686001,2.0484 C14.6686001,0.971600064 15.5422001,0.0980001163 16.619,0.0980001163 C17.6957999,0.0980001163 18.5693999,0.971600064 18.5693999,2.0484" id="Fill-25" fill="#373D41"></path>
                <path d="M49.7153999,35.3776 C49.7153999,36.4543999 48.8417999,37.3279999 47.765,37.3279999 C46.6882001,37.3279999 45.8146001,36.4543999 45.8146001,35.3776 C45.8146001,34.3008001 46.6882001,33.4272001 47.765,33.4272001 C48.8417999,33.4272001 49.7153999,34.3008001 49.7153999,35.3776" id="Fill-27" fill="#373D41"></path>
                <path d="M32.387,67.0982 L17.765,58.6062 L17.765,36.2962 L32.387,44.7882 L32.387,67.0982 Z M25.077,70.7422 C23.733,69.9622 22.639,68.1502 22.639,66.7022 C22.639,65.2542 23.733,64.7122 25.077,65.4942 C26.421,66.2742 27.513,68.0862 27.513,69.5342 C27.513,70.9802 26.421,71.5242 25.077,70.7422 L25.077,70.7422 Z M33.605,41.5602 L16.547,31.6522 C15.203,30.8702 14.111,31.4122 14.111,32.8602 L14.111,64.3562 C14.111,65.8042 15.203,67.6142 16.547,68.3962 L33.605,78.3042 C34.951,79.0862 36.043,78.5442 36.043,77.0962 L36.043,45.6002 C36.043,44.1502 34.951,42.3402 33.605,41.5602 L33.605,41.5602 Z M25.077,69.4302 L25.077,68.1182 L25.075,68.1182 L25.077,69.4302 Z" id="Fill-29" fill="#666666"></path>
            </g>
        </g>
        <use id="Rectangle-10" stroke="#999999" mask="url(#mask-9)" stroke-width="2" fill="url(#linearGradient-7)" xlink:href="#path-8"></use>
        <use id="Rectangle-10-Copy" stroke="#999999" mask="url(#mask-11)" stroke-width="2" fill="#DDDDDD" xlink:href="#path-10"></use>
        <g id="Combined-Shape">
            <use fill="black" fill-opacity="1" filter="url(#filter-13)" xlink:href="#path-12"></use>
            <use stroke="#FFFFFF" stroke-width="0.5" xlink:href="#path-12"></use>
        </g>
    </g>
</svg>