<svg width="237px" height="61px" viewBox="103 24 237 61" version="1.1" xmlns="http://www.w3.org/2000/svg" xmlns:xlink="http://www.w3.org/1999/xlink">
    <desc>Created with Sketch.</desc>
    <defs>
        <polygon id="path-1" points="25.2066977 24.8512744 25.2066977 0.11732093 0.156362791 0.11732093 0.156362791 24.8512744 25.2066977 24.8512744"></polygon>
        <polygon id="path-3" points="0.000111627907 0.0965581395 26.0342512 0.0965581395 26.0342512 59.7209302 0.000111627907 59.7209302 0.000111627907 0.0965581395"></polygon>
        <polygon id="path-5" points="26.1151535 59.7209302 0.0807348837 59.7209302 0.0807348837 0.0965860465 26.1151535 0.0965860465"></polygon>
    </defs>
    <g id="Page-1" stroke="none" stroke-width="1" fill="none" fill-rule="evenodd" transform="translate(103.625000, 24.000000)">
        <path d="M101.621023,22.7501581 L86.2487442,22.7501581 L86.2487442,28.409693 L101.621023,28.409693 L101.621023,22.7501581 Z M101.621023,45.0955535 L101.621023,35.917507 L86.2487442,35.917507 L86.2487442,45.0952744 L79.4986047,45.0952744 L79.4986047,21.5629953 C79.4986047,20.0610419 80.1284651,17.7732279 81.436186,16.8045767 C82.695907,15.8839256 84.3912558,15.3994605 86.4259535,15.3994605 L101.976558,15.3994605 C103.91414,15.3994605 105.464372,15.8839256 106.578698,16.8045767 C107.692744,17.7252279 108.274326,20.0127628 108.274326,21.5629953 L108.274326,45.0955535 L101.621023,45.0955535 Z" id="Fill-1" stroke="#06A79C" fill="#FFFFFF"></path>
        <path d="M195.858474,26.9943349 L185.49494,26.9943349 L185.49494,32.6538698 L195.858474,32.6538698 L195.858474,26.9943349 Z M195.858474,45.126614 L195.858474,39.5533116 L185.49494,39.5533116 L185.49494,45.126614 L178.24387,45.126614 L178.24387,25.2922884 C178.24387,23.7903349 178.874009,22.5791721 180.181451,21.6105209 C181.441172,20.6898698 183.1368,20.2054047 185.171219,20.2054047 L196.71466,20.2054047 C198.652242,20.2054047 200.202474,20.6898698 201.317079,21.6105209 C202.431126,22.530893 203.012428,23.7420558 203.012428,25.2922884 L203.012428,45.126614 L195.858474,45.126614 Z" id="Fill-3" stroke="#06A79C" fill="#FFFFFF"></path>
        <path d="M114.919005,24.7733023 C114.919005,23.4717209 115.557795,22.3091163 116.690819,21.4696744 C117.78254,20.672093 119.251563,20.2523721 121.014726,20.2523721 L134.490167,20.2523721 C136.16933,20.2523721 137.512493,20.672093 138.478353,21.4696744 C139.443656,22.2675349 139.965516,23.3930233 139.965516,24.736186 L139.983377,27.6491163 L131.400028,27.6491163 L131.400028,45.1266977 L123.987656,45.1266977 L123.987656,27.6491163 L114.919842,27.6491163 L114.919005,24.7733023 Z" id="Fill-5" stroke="#06A79C" fill="#FFFFFF"></path>
        <path d="M171.56146,42.7660186 L171.569274,45.1266698 L146.631321,45.1266698 L146.643321,25.4893674 C146.643321,23.987414 147.378949,22.6727163 148.68667,21.7040651 C149.946391,20.783414 152.227507,20.2523442 154.261926,20.2523442 L154.285926,37.6389488 L165.212344,37.6484372 C167.150205,37.6484372 168.743693,38.1421116 169.858298,39.0627628 C170.972344,39.983414 171.56146,41.215786 171.56146,42.7660186" id="Fill-7" stroke="#06A79C" fill="#FFFFFF"></path>
        <g id="Group-11" transform="translate(209.860465, 20.275535)">
            <mask id="mask-2" fill="white">
                <use xlink:href="#path-1"></use>
            </mask>
            <g id="Clip-10"></g>
            <path d="M0.158316279,24.0548093 C0.158316279,22.5528558 0.790130233,21.1524837 2.09785116,20.1838326 C3.35757209,19.2631814 5.12687442,18.7725767 7.16129302,18.7725767 L18.749107,18.7664372 L18.749107,15.4683907 L6.39524651,15.4683907 C1.64743256,15.4683907 0.209944186,13.8179721 0.209944186,10.2818791 L0.209944186,5.44615814 C0.209944186,1.90950698 1.76073488,0.11732093 7.67059535,0.11732093 L18.7987814,0.131832558 C20.7363628,0.131832558 22.3968279,0.570530233 23.5111535,1.49090233 C24.6252,2.41155349 25.2067814,3.62243721 25.2067814,5.17266977 L25.1981302,6.1083907 L6.75050233,6.1083907 L6.75050233,9.40950698 L19.2983163,9.40950698 C23.7553395,9.40950698 25.0959907,11.0602047 25.0959907,14.4997395 L25.0959907,20.4916465 C25.0959907,21.7996465 24.5626884,22.8648558 23.4969209,23.6401116 C22.4311535,24.4636465 21.8172,24.8512744 19.8796186,24.8512744 L0.156362791,24.8512744 L0.158316279,24.0548093 Z" id="Fill-9" stroke="#06A79C" fill="#FFFFFF" mask="url(#mask-2)"></path>
        </g>
        <path d="M40.2846977,24.1947628 C40.2846977,25.1860186 39.4809767,25.9897395 38.4897209,25.9897395 C37.4984651,25.9897395 36.6950233,25.1860186 36.6950233,24.1947628 C36.6950233,23.203507 37.4984651,22.399786 38.4897209,22.399786 C39.4809767,22.399786 40.2846977,23.203507 40.2846977,24.1947628" id="Fill-12" fill="#FFFFFF"></path>
        <path d="M37.3959628,47.8882326 L37.3959628,47.8882326 C37.3959628,48.7767907 37.0848,49.5199535 36.5093581,50.0476744 C35.9336372,50.5751163 35.132707,50.8527907 34.1316837,50.8527907 L26.0981023,50.8527907 C25.0468465,50.8527907 24.1711256,50.5751163 23.5200558,50.0476744 C22.844707,49.4923256 22.4637767,48.7488837 22.4637767,47.8882326 C22.4637767,47.0275814 22.844707,46.2841395 23.5200558,45.7287907 C24.1711256,45.2013488 25.0468465,44.9236744 26.0981023,44.9236744 L34.1316837,44.9236744 C35.132707,44.9236744 35.9336372,45.2013488 36.5093581,45.7287907 C37.0848,46.2565116 37.3959628,46.9996744 37.3959628,47.8882326" id="Fill-14" fill="#FFFFFF"></path>
        <g id="Group-18" transform="translate(0.000000, 0.182512)">
            <mask id="mask-4" fill="white">
                <use xlink:href="#path-3"></use>
            </mask>
            <g id="Clip-17"></g>
            <path d="M1.73146047,25.2472465 L15.1803907,14.9780372 L1.36364651,29.789386 C1.36364651,29.789386 -0.00435348837,30.8819442 0.00401860465,33.3935721 L0.0079255814,55.6468744 C0.0079255814,57.897014 1.83973953,59.721014 4.08987907,59.721014 C5.21508837,59.721014 6.25769302,59.2736651 6.99499535,58.5363628 L22.7702512,29.6699442 C24.2682977,26.8234326 26.0325767,24.3838047 26.0325767,21.0785023 L26.0342512,5.67775814 C26.0342512,2.59543256 23.5354605,0.0963627907 20.4528558,0.0963627907 L5.58150698,0.0963627907 C2.49890233,0.0963627907 0.000111627907,2.59543256 0.000111627907,5.67775814 L0.00318139535,24.4633395 C0.00318139535,24.4633395 0.101693023,26.1009209 1.73146047,25.2472465" id="Fill-16" fill="#FFFFFF" mask="url(#mask-4)"></path>
        </g>
        <g id="Group-21" transform="translate(33.767442, 0.182512)">
            <mask id="mask-6" fill="white">
                <use xlink:href="#path-5"></use>
            </mask>
            <g id="Clip-20"></g>
            <path d="M24.6517116,25.6010512 L11.1519907,14.9980744 L24.7457581,29.7329581 C24.7457581,29.7329581 26.1106884,30.8118419 26.1106884,33.3935163 L26.1073395,55.6468186 C26.1073395,57.8969581 24.2752465,59.7209581 22.025107,59.7209581 C20.9001767,59.7209581 19.857293,59.2738884 19.1199907,58.536586 L3.34501395,29.6698884 C3.31654884,29.6380744 3.29031628,29.6048651 3.2624093,29.5727721 C5.64845581,29.4469116 7.54613023,27.4780744 7.54613023,25.0607721 C7.54613023,22.5619814 5.52064186,20.536493 3.02213023,20.536493 C1.90473488,20.536493 0.884176744,20.9433767 0.0949674419,21.6142605 C0.0877116279,21.436493 0.0824093023,21.2581674 0.0824093023,21.0784465 L0.0807348837,5.6779814 C0.0807348837,2.59537674 2.57980465,0.0965860465 5.66213023,0.0965860465 L20.5337581,0.0965860465 C23.6160837,0.0965860465 26.1151535,2.59537674 26.1151535,5.6779814 L26.1118047,24.9513767 C26.1118047,24.9513767 25.8492,26.2853302 24.6517116,25.6010512" id="Fill-19" fill="#FFFFFF" mask="url(#mask-6)"></path>
        </g>
        <path d="M32.4643814,56.965507 C31.6313581,56.965507 30.8290326,56.8351814 30.0755442,56.5951814 C29.3220558,56.8351814 28.5200093,56.965507 27.686986,56.965507 C23.606986,56.965507 21.7606605,55.8305302 21.7606605,55.8305302 C23.6139628,58.2550884 26.6499628,59.7185302 30.0808465,59.7185302 C33.4910791,59.7185302 36.5103349,58.2696 38.3658698,55.8707163 C38.3658698,55.8707163 36.4051256,56.965507 32.4643814,56.965507" id="Fill-22" fill="#FFFFFF"></path>
    </g>
</svg>